<?xml version="1.0" encoding="utf-8" standalone="no"?>
<!DOCTYPE svg PUBLIC "-//W3C//DTD SVG 1.1//EN"
  "http://www.w3.org/Graphics/SVG/1.1/DTD/svg11.dtd">
<!-- Created with matplotlib (https://matplotlib.org/) -->
<svg height="541.725079pt" version="1.1" viewBox="0 0 706.604627 541.725079" width="706.604627pt" xmlns="http://www.w3.org/2000/svg" xmlns:xlink="http://www.w3.org/1999/xlink">
 <defs>
  <style type="text/css">
*{stroke-linecap:butt;stroke-linejoin:round;}
  </style>
 </defs>
 <g id="figure_1">
  <g id="patch_1">
   <path d="M 0 541.725079 
L 706.604627 541.725079 
L 706.604627 -0 
L 0 -0 
z
" style="fill:#ffffff;"/>
  </g>
  <g id="axes_1">
   <g id="patch_2">
    <path d="M 54.302627 496.665349 
L 706.604627 496.665349 
L 706.604627 38.176549 
L 54.302627 38.176549 
z
" style="fill:#ffffff;"/>
   </g>
   <g id="matplotlib.axis_1">
    <g id="xtick_1">
     <g id="line2d_1">
      <path clip-path="url(#pabb54eb7d6)" d="M 83.952718 496.665349 
L 83.952718 38.176549 
" style="fill:none;stroke:#b0b0b0;stroke-linecap:square;stroke-width:0.8;"/>
     </g>
     <g id="line2d_2">
      <defs>
       <path d="M 0 0 
L 0 3.5 
" id="m51e3fbab05" style="stroke:#000000;stroke-width:0.8;"/>
      </defs>
      <g>
       <use style="stroke:#000000;stroke-width:0.8;" x="83.952718" xlink:href="#m51e3fbab05" y="496.665349"/>
      </g>
     </g>
     <g id="text_1">
      <!-- $0$ -->
      <defs>
       <path d="M 42 31.84375 
C 42 37.96875 41.90625 48.421875 37.703125 56.453125 
C 34 63.484375 28.09375 66 22.90625 66 
C 18.09375 66 12 63.78125 8.203125 56.5625 
C 4.203125 49.015625 3.796875 39.671875 3.796875 31.84375 
C 3.796875 26.109375 3.90625 17.375 7 9.734375 
C 11.296875 -0.609375 19 -2 22.90625 -2 
C 27.5 -2 34.5 -0.109375 38.59375 9.4375 
C 41.59375 16.375 42 24.5 42 31.84375 
z
M 22.90625 -0.40625 
C 16.5 -0.40625 12.703125 5.125 11.296875 12.75 
C 10.203125 18.6875 10.203125 27.328125 10.203125 32.953125 
C 10.203125 40.6875 10.203125 47.109375 11.5 53.234375 
C 13.40625 61.78125 19 64.390625 22.90625 64.390625 
C 27 64.390625 32.296875 61.671875 34.203125 53.4375 
C 35.5 47.71875 35.59375 40.984375 35.59375 32.953125 
C 35.59375 26.421875 35.59375 18.375 34.40625 12.453125 
C 32.296875 1.5 26.40625 -0.40625 22.90625 -0.40625 
z
" id="CMR17-48"/>
      </defs>
      <g transform="translate(80.050724 514.734937)scale(0.16 -0.16)">
       <use transform="scale(0.996264)" xlink:href="#CMR17-48"/>
      </g>
     </g>
    </g>
    <g id="xtick_2">
     <g id="line2d_3">
      <path clip-path="url(#pabb54eb7d6)" d="M 168.667263 496.665349 
L 168.667263 38.176549 
" style="fill:none;stroke:#b0b0b0;stroke-linecap:square;stroke-width:0.8;"/>
     </g>
     <g id="line2d_4">
      <g>
       <use style="stroke:#000000;stroke-width:0.8;" x="168.667263" xlink:href="#m51e3fbab05" y="496.665349"/>
      </g>
     </g>
     <g id="text_2">
      <!-- $1$ -->
      <defs>
       <path d="M 26.59375 63.796875 
C 26.59375 65.890625 26.5 66 25.09375 66 
C 21.203125 61.359375 15.296875 59.890625 9.703125 59.6875 
C 9.40625 59.6875 8.90625 59.6875 8.796875 59.5 
C 8.703125 59.296875 8.703125 59.09375 8.703125 57 
C 11.796875 57 17 57.59375 21 59.984375 
L 21 7.296875 
C 21 3.796875 20.796875 2.59375 12.203125 2.59375 
L 9.203125 2.59375 
L 9.203125 0 
C 14 0.09375 19 0.1875 23.796875 0.1875 
C 28.59375 0.1875 33.59375 0.09375 38.40625 0 
L 38.40625 2.59375 
L 35.40625 2.59375 
C 26.796875 2.59375 26.59375 3.6875 26.59375 7.296875 
z
" id="CMR17-49"/>
      </defs>
      <g transform="translate(164.76527 514.734937)scale(0.16 -0.16)">
       <use transform="scale(0.996264)" xlink:href="#CMR17-49"/>
      </g>
     </g>
    </g>
    <g id="xtick_3">
     <g id="line2d_5">
      <path clip-path="url(#pabb54eb7d6)" d="M 253.381809 496.665349 
L 253.381809 38.176549 
" style="fill:none;stroke:#b0b0b0;stroke-linecap:square;stroke-width:0.8;"/>
     </g>
     <g id="line2d_6">
      <g>
       <use style="stroke:#000000;stroke-width:0.8;" x="253.381809" xlink:href="#m51e3fbab05" y="496.665349"/>
      </g>
     </g>
     <g id="text_3">
      <!-- $2$ -->
      <defs>
       <path d="M 41.703125 15.46875 
L 39.90625 15.46875 
C 38.90625 8.390625 38.09375 7.1875 37.703125 6.59375 
C 37.203125 5.796875 30 5.796875 28.59375 5.796875 
L 9.40625 5.796875 
C 13 9.6875 20 16.765625 28.5 24.9375 
C 34.59375 30.71875 41.703125 37.5 41.703125 47.390625 
C 41.703125 59.1875 32.296875 66 21.796875 66 
C 10.796875 66 4.09375 56.296875 4.09375 47.296875 
C 4.09375 43.390625 7 42.890625 8.203125 42.890625 
C 9.203125 42.890625 12.203125 43.484375 12.203125 46.984375 
C 12.203125 50.09375 9.59375 51 8.203125 51 
C 7.59375 51 7 50.890625 6.59375 50.6875 
C 8.5 59.1875 14.296875 63.390625 20.40625 63.390625 
C 29.09375 63.390625 34.796875 56.5 34.796875 47.390625 
C 34.796875 38.703125 29.703125 31.21875 24 24.734375 
L 4.09375 2.296875 
L 4.09375 0 
L 39.296875 0 
z
" id="CMR17-50"/>
      </defs>
      <g transform="translate(249.479815 514.734937)scale(0.16 -0.16)">
       <use transform="scale(0.996264)" xlink:href="#CMR17-50"/>
      </g>
     </g>
    </g>
    <g id="xtick_4">
     <g id="line2d_7">
      <path clip-path="url(#pabb54eb7d6)" d="M 338.096354 496.665349 
L 338.096354 38.176549 
" style="fill:none;stroke:#b0b0b0;stroke-linecap:square;stroke-width:0.8;"/>
     </g>
     <g id="line2d_8">
      <g>
       <use style="stroke:#000000;stroke-width:0.8;" x="338.096354" xlink:href="#m51e3fbab05" y="496.665349"/>
      </g>
     </g>
     <g id="text_4">
      <!-- $3$ -->
      <defs>
       <path d="M 22.09375 34 
C 31 34 34.90625 26.140625 34.90625 17.09375 
C 34.90625 5.03125 28.5 0.390625 22.703125 0.390625 
C 17.40625 0.390625 8.796875 3.015625 6.09375 10.796875 
C 6.59375 10.59375 7.09375 10.59375 7.59375 10.59375 
C 10 10.59375 11.796875 12.1875 11.796875 14.796875 
C 11.796875 17.6875 9.59375 19 7.59375 19 
C 5.90625 19 3.296875 18.1875 3.296875 14.484375 
C 3.296875 5.234375 12.296875 -2 22.90625 -2 
C 34 -2 42.5 6.75 42.5 16.984375 
C 42.5 26.84375 34.5 34 25 35.09375 
C 32.59375 36.671875 39.90625 43.375 39.90625 52.390625 
C 39.90625 60.25 32 66 23 66 
C 13.90625 66 5.90625 60.34375 5.90625 52.296875 
C 5.90625 48.796875 8.5 48.1875 9.796875 48.1875 
C 11.90625 48.1875 13.703125 49.484375 13.703125 52.09375 
C 13.703125 54.6875 11.90625 56 9.796875 56 
C 9.40625 56 8.90625 56 8.5 55.796875 
C 11.40625 62.484375 19.296875 63.6875 22.796875 63.6875 
C 26.296875 63.6875 32.90625 61.96875 32.90625 52.296875 
C 32.90625 49.484375 32.5 44.546875 29.09375 40.21875 
C 26.09375 36.390625 22.703125 36.1875 19.40625 35.890625 
C 18.90625 35.890625 16.59375 35.6875 16.203125 35.6875 
C 15.5 35.59375 15.09375 35.5 15.09375 34.796875 
C 15.09375 34.09375 15.203125 34 17.203125 34 
z
" id="CMR17-51"/>
      </defs>
      <g transform="translate(334.194361 514.734937)scale(0.16 -0.16)">
       <use transform="scale(0.996264)" xlink:href="#CMR17-51"/>
      </g>
     </g>
    </g>
    <g id="xtick_5">
     <g id="line2d_9">
      <path clip-path="url(#pabb54eb7d6)" d="M 422.810899 496.665349 
L 422.810899 38.176549 
" style="fill:none;stroke:#b0b0b0;stroke-linecap:square;stroke-width:0.8;"/>
     </g>
     <g id="line2d_10">
      <g>
       <use style="stroke:#000000;stroke-width:0.8;" x="422.810899" xlink:href="#m51e3fbab05" y="496.665349"/>
      </g>
     </g>
     <g id="text_5">
      <!-- $4$ -->
      <defs>
       <path d="M 33.59375 64.796875 
C 33.59375 66.890625 33.5 67 31.703125 67 
L 2 19.59375 
L 2 17 
L 27.796875 17 
L 27.796875 7.1875 
C 27.796875 3.59375 27.59375 2.59375 20.59375 2.59375 
L 18.703125 2.59375 
L 18.703125 0 
C 21.90625 0.1875 27.296875 0.1875 30.703125 0.1875 
C 34.09375 0.1875 39.5 0.1875 42.703125 0 
L 42.703125 2.59375 
L 40.796875 2.59375 
C 33.796875 2.59375 33.59375 3.59375 33.59375 7.1875 
L 33.59375 17 
L 43.796875 17 
L 43.796875 19.59375 
L 33.59375 19.59375 
z
M 28.09375 58.171875 
L 28.09375 19.59375 
L 4 19.59375 
z
" id="CMR17-52"/>
      </defs>
      <g transform="translate(418.908906 514.734937)scale(0.16 -0.16)">
       <use transform="scale(0.996264)" xlink:href="#CMR17-52"/>
      </g>
     </g>
    </g>
    <g id="xtick_6">
     <g id="line2d_11">
      <path clip-path="url(#pabb54eb7d6)" d="M 507.525445 496.665349 
L 507.525445 38.176549 
" style="fill:none;stroke:#b0b0b0;stroke-linecap:square;stroke-width:0.8;"/>
     </g>
     <g id="line2d_12">
      <g>
       <use style="stroke:#000000;stroke-width:0.8;" x="507.525445" xlink:href="#m51e3fbab05" y="496.665349"/>
      </g>
     </g>
     <g id="text_6">
      <!-- $5$ -->
      <defs>
       <path d="M 11.40625 58.59375 
C 12.40625 58.1875 16.5 56.890625 20.703125 56.890625 
C 30 56.890625 35.09375 61.890625 38 64.6875 
C 38 65.484375 38 66 37.40625 66 
C 37.296875 66 37.09375 66 36.296875 65.59375 
C 32.796875 64.09375 28.703125 63 23.703125 63 
C 20.703125 63 16.203125 63.359375 11.296875 65.484375 
C 10.203125 66 10 66 9.90625 66 
C 9.40625 66 9.296875 65.890625 9.296875 63.90625 
L 9.296875 34.859375 
C 9.296875 33.015625 9.296875 32.5 10.296875 32.5 
C 10.796875 32.5 11 32.703125 11.5 33.421875 
C 14.703125 38.046875 19.09375 40 24.09375 40 
C 27.59375 40 35.09375 37.734375 35.09375 20.203125 
C 35.09375 16.984375 35.09375 11.1875 32.09375 6.59375 
C 29.59375 2.484375 25.703125 0.390625 21.40625 0.390625 
C 14.796875 0.390625 8.09375 4.984375 6.296875 12.6875 
C 6.703125 12.59375 7.5 12.390625 7.90625 12.390625 
C 9.203125 12.390625 11.703125 13.09375 11.703125 16.1875 
C 11.703125 18.890625 9.796875 20 7.90625 20 
C 5.59375 20 4.09375 18.59375 4.09375 15.796875 
C 4.09375 7.09375 11 -2 21.59375 -2 
C 31.90625 -2 41.703125 6.890625 41.703125 19.796875 
C 41.703125 32.09375 33.90625 41.59375 24.203125 41.59375 
C 19.09375 41.59375 14.796875 39.6875 11.40625 36 
z
" id="CMR17-53"/>
      </defs>
      <g transform="translate(503.623451 514.734937)scale(0.16 -0.16)">
       <use transform="scale(0.996264)" xlink:href="#CMR17-53"/>
      </g>
     </g>
    </g>
    <g id="xtick_7">
     <g id="line2d_13">
      <path clip-path="url(#pabb54eb7d6)" d="M 592.23999 496.665349 
L 592.23999 38.176549 
" style="fill:none;stroke:#b0b0b0;stroke-linecap:square;stroke-width:0.8;"/>
     </g>
     <g id="line2d_14">
      <g>
       <use style="stroke:#000000;stroke-width:0.8;" x="592.23999" xlink:href="#m51e3fbab05" y="496.665349"/>
      </g>
     </g>
     <g id="text_7">
      <!-- $6$ -->
      <defs>
       <path d="M 10.59375 34.34375 
C 10.59375 58 21.796875 63.6875 28.296875 63.6875 
C 30.40625 63.6875 35.5 63.265625 37.5 59.09375 
C 35.90625 59.09375 32.90625 59.09375 32.90625 55.59375 
C 32.90625 52.890625 35.09375 52 36.5 52 
C 37.40625 52 40.09375 52.390625 40.09375 55.796875 
C 40.09375 62.296875 35.09375 66 28.203125 66 
C 16.296875 66 3.796875 53.296875 3.796875 31.421875 
C 3.796875 4.015625 15.09375 -2 23.09375 -2 
C 32.796875 -2 42 6.734375 42 20.234375 
C 42 32.828125 33.90625 42 23.703125 42 
C 17.59375 42 13.09375 37.96875 10.59375 30.921875 
z
M 23.09375 0.390625 
C 10.796875 0.390625 10.796875 18.9375 10.796875 22.65625 
C 10.796875 29.90625 14.203125 40.390625 23.5 40.390625 
C 25.203125 40.390625 30.09375 40.390625 33.40625 33.4375 
C 35.203125 29.515625 35.203125 25.375 35.203125 20.34375 
C 35.203125 14.90625 35.203125 10.875 33.09375 6.84375 
C 30.90625 2.703125 27.703125 0.390625 23.09375 0.390625 
z
" id="CMR17-54"/>
      </defs>
      <g transform="translate(588.337997 514.734937)scale(0.16 -0.16)">
       <use transform="scale(0.996264)" xlink:href="#CMR17-54"/>
      </g>
     </g>
    </g>
    <g id="xtick_8">
     <g id="line2d_15">
      <path clip-path="url(#pabb54eb7d6)" d="M 676.954536 496.665349 
L 676.954536 38.176549 
" style="fill:none;stroke:#b0b0b0;stroke-linecap:square;stroke-width:0.8;"/>
     </g>
     <g id="line2d_16">
      <g>
       <use style="stroke:#000000;stroke-width:0.8;" x="676.954536" xlink:href="#m51e3fbab05" y="496.665349"/>
      </g>
     </g>
     <g id="text_8">
      <!-- $7$ -->
      <defs>
       <path d="M 45.09375 61.796875 
L 45.09375 64 
L 21.59375 64 
C 9.90625 64 9.703125 65.09375 9.296875 67 
L 7.5 67 
L 4.59375 48.5 
L 6.40625 48.5 
C 6.703125 50.40625 7.40625 55.5 8.59375 57.390625 
C 9.203125 58.1875 16.59375 58.1875 18.296875 58.1875 
L 40.296875 58.1875 
L 29.203125 41.71875 
C 21.796875 30.640625 16.703125 15.671875 16.703125 2.59375 
C 16.703125 1.390625 16.703125 -2 20.296875 -2 
C 23.90625 -2 23.90625 1.390625 23.90625 2.6875 
L 23.90625 7.28125 
C 23.90625 23.65625 26.703125 34.4375 31.296875 41.3125 
z
" id="CMR17-55"/>
      </defs>
      <g transform="translate(673.052542 514.734937)scale(0.16 -0.16)">
       <use transform="scale(0.996264)" xlink:href="#CMR17-55"/>
      </g>
     </g>
    </g>
    <g id="text_9">
     <!-- $Elongation\ of\ the\ end\ of\ the\ bar\ (mm)$ -->
     <defs>
      <path d="M 69.5 23.265625 
C 69.59375 23.5625 69.90625 24.265625 69.90625 24.65625 
C 69.90625 25.171875 69.5 25.671875 68.90625 25.671875 
C 68.5 25.671875 68.296875 25.5625 68 25.265625 
C 67.796875 25.171875 67.796875 24.96875 66.90625 22.953125 
C 61 8.90625 56.703125 2.890625 40.703125 2.890625 
L 26.09375 2.890625 
C 24.703125 2.890625 24.5 2.890625 23.90625 3 
C 22.796875 3.09375 22.703125 3.296875 22.703125 4.09375 
C 22.703125 4.796875 22.90625 5.40625 23.09375 6.296875 
L 30 34 
L 39.90625 34 
C 47.703125 34 48.296875 32.28125 48.296875 29.28125 
C 48.296875 28.28125 48.296875 27.375 47.59375 24.359375 
C 47.40625 23.96875 47.296875 23.5625 47.296875 23.265625 
C 47.296875 22.5625 47.796875 22.25 48.40625 22.25 
C 49.296875 22.25 49.40625 22.953125 49.796875 24.359375 
L 55.5 47.4375 
C 55.5 47.9375 55.09375 48.421875 54.5 48.421875 
C 53.59375 48.421875 53.5 48.03125 53.09375 46.65625 
C 51.09375 39.0625 49.09375 36.890625 40.203125 36.890625 
L 30.703125 36.890625 
L 36.90625 61.140625 
C 37.796875 64.59375 38 64.890625 42.09375 64.890625 
L 56.40625 64.890625 
C 68.703125 64.890625 71.203125 61.640625 71.203125 54.140625 
C 71.203125 54.046875 71.203125 51.28125 70.796875 48.03125 
C 70.703125 47.640625 70.59375 47.046875 70.59375 46.84375 
C 70.59375 46.0625 71.09375 45.765625 71.703125 45.765625 
C 72.40625 45.765625 72.796875 46.15625 73 47.9375 
L 75.09375 65.1875 
C 75.09375 65.484375 75.296875 66.484375 75.296875 66.6875 
C 75.296875 67.796875 74.40625 67.796875 72.59375 67.796875 
L 23.796875 67.796875 
C 21.90625 67.796875 20.90625 67.796875 20.90625 65.984375 
C 20.90625 64.890625 21.59375 64.890625 23.296875 64.890625 
C 29.5 64.890625 29.5 64.203125 29.5 63.109375 
C 29.5 62.625 29.40625 62.234375 29.09375 61.140625 
L 15.59375 7.40625 
C 14.703125 3.890625 14.5 2.890625 7.5 2.890625 
C 5.59375 2.890625 4.59375 2.890625 4.59375 1.09375 
C 4.59375 0 5.203125 0 7.203125 0 
L 57.40625 0 
C 59.59375 0 59.703125 0.09375 60.40625 1.6875 
z
" id="CMMI12-69"/>
      <path d="M 25.40625 66.484375 
C 25.5 66.890625 25.703125 67.484375 25.703125 67.984375 
C 25.703125 69 24.703125 69 24.5 69 
C 24.40625 69 20.796875 68.6875 19 68.484375 
C 17.296875 68.390625 15.796875 68.1875 14 68.09375 
C 11.59375 67.890625 10.90625 67.796875 10.90625 65.984375 
C 10.90625 64.984375 11.90625 64.984375 12.90625 64.984375 
C 18 64.984375 18 64.09375 18 63.109375 
C 18 62.703125 18 62.515625 17.5 60.71875 
L 5.09375 11.421875 
C 4.796875 10.328125 4.59375 9.53125 4.59375 7.953125 
C 4.59375 2.984375 8.296875 -1 13.40625 -1 
C 16.703125 -1 18.90625 1.1875 20.5 4.265625 
C 22.203125 7.546875 23.59375 13.8125 23.59375 14.203125 
C 23.59375 14.703125 23.203125 15.109375 22.59375 15.109375 
C 21.703125 15.109375 21.59375 14.609375 21.203125 13.109375 
C 19.40625 6.265625 17.59375 1 13.59375 1 
C 10.59375 1 10.59375 4.171875 10.59375 5.5625 
C 10.59375 5.96875 10.59375 8.046875 11.296875 10.828125 
z
" id="CMMI12-108"/>
      <path d="M 45.59375 27.421875 
C 45.59375 36.90625 39.40625 44 30.296875 44 
C 17.09375 44 4.09375 29.625 4.09375 15.5625 
C 4.09375 6.078125 10.296875 -1 19.40625 -1 
C 32.703125 -1 45.59375 13.359375 45.59375 27.421875 
z
M 19.5 1 
C 14.5 1 10.796875 4.984375 10.796875 11.96875 
C 10.796875 16.5625 13.203125 26.734375 16 31.71875 
C 20.5 39.40625 26.09375 41.984375 30.203125 41.984375 
C 35.09375 41.984375 38.90625 38 38.90625 31.015625 
C 38.90625 27.03125 36.796875 16.359375 33 10.265625 
C 28.90625 3.59375 23.40625 1 19.5 1 
z
" id="CMMI12-111"/>
      <path d="M 20.59375 29.21875 
C 20.796875 29.828125 23.296875 34.8125 27 38 
C 29.59375 40.390625 33 41.984375 36.90625 41.984375 
C 40.90625 41.984375 42.296875 39 42.296875 35.015625 
C 42.296875 29.328125 38.203125 17.953125 36.203125 12.5625 
C 35.296875 10.171875 34.796875 8.875 34.796875 7.078125 
C 34.796875 2.59375 37.90625 -1 42.703125 -1 
C 52 -1 55.5 13.65625 55.5 14.265625 
C 55.5 14.765625 55.09375 15.15625 54.5 15.15625 
C 53.59375 15.15625 53.5 14.859375 53 13.15625 
C 50.703125 4.984375 46.90625 1 43 1 
C 42 1 40.40625 1.09375 40.40625 4.28125 
C 40.40625 6.78125 41.5 9.765625 42.09375 11.171875 
C 44.09375 16.65625 48.296875 27.828125 48.296875 33.515625 
C 48.296875 39.5 44.796875 44 37.203125 44 
C 28.296875 44 23.59375 37.703125 21.796875 35.203125 
C 21.5 40.890625 17.40625 44 13 44 
C 9.796875 44 7.59375 42.09375 5.90625 38.703125 
C 4.09375 35.109375 2.703125 29.125 2.703125 28.71875 
C 2.703125 28.328125 3.09375 27.828125 3.796875 27.828125 
C 4.59375 27.828125 4.703125 27.921875 5.296875 30.21875 
C 6.90625 36.3125 8.703125 41.984375 12.703125 41.984375 
C 15 41.984375 15.796875 40.390625 15.796875 37.40625 
C 15.796875 35.203125 14.796875 31.3125 14.09375 28.234375 
L 11.296875 17.453125 
C 10.90625 15.5625 9.796875 11.0625 9.296875 9.265625 
C 8.59375 6.671875 7.5 1.984375 7.5 1.484375 
C 7.5 0.09375 8.59375 -1 10.09375 -1 
C 11.296875 -1 12.703125 -0.40625 13.5 1.09375 
C 13.703125 1.59375 14.59375 5.078125 15.09375 7.078125 
L 17.296875 16.0625 
z
" id="CMMI12-110"/>
      <path d="M 33.796875 12.671875 
C 33.40625 11.0625 33.203125 10.671875 31.90625 9.171875 
C 27.796875 3.890625 23.59375 2 20.5 2 
C 17.203125 2 14.09375 4.578125 14.09375 11.46875 
C 14.09375 16.75 17.09375 27.921875 19.296875 32.421875 
C 22.203125 38 26.703125 41.984375 30.90625 41.984375 
C 37.5 41.984375 38.796875 33.8125 38.796875 33.21875 
L 38.5 31.8125 
z
M 40 37.40625 
C 38.703125 40.296875 35.90625 44 30.90625 44 
C 20 44 7.59375 30.328125 7.59375 15.453125 
C 7.59375 5.078125 13.90625 0 20.296875 0 
C 25.59375 0 30.296875 4.1875 32.09375 6.1875 
L 29.90625 -2.75 
C 28.5 -8.125 27.90625 -10.578125 24.296875 -14 
C 20.203125 -18 16.40625 -18 14.203125 -18 
C 11.203125 -18 8.703125 -17.8125 6.203125 -17.03125 
C 9.40625 -16.15625 10.203125 -13.40625 10.203125 -12.328125 
C 10.203125 -10.765625 9 -9.203125 6.796875 -9.203125 
C 4.40625 -9.203125 1.796875 -11.15625 1.796875 -14.390625 
C 1.796875 -18.40625 5.90625 -20 14.40625 -20 
C 27.296875 -20 34 -11.84375 35.296875 -6.5625 
L 46.40625 37.90625 
C 46.703125 39.09375 46.703125 39.296875 46.703125 39.5 
C 46.703125 40.890625 45.59375 42 44.09375 42 
C 41.703125 42 40.296875 40 40 37.3125 
z
" id="CMMI12-103"/>
      <path d="M 30.09375 11.859375 
C 29.59375 10.171875 29.59375 9.96875 28.203125 8.078125 
C 26 5.28125 21.59375 1 16.90625 1 
C 12.796875 1 10.5 4.6875 10.5 10.5625 
C 10.5 16.0625 13.59375 27.234375 15.5 31.421875 
C 18.90625 38.40625 23.59375 41.984375 27.5 41.984375 
C 34.09375 41.984375 35.40625 33.8125 35.40625 33.015625 
C 35.40625 32.921875 35.09375 31.625 35 31.421875 
z
M 36.5 37.40625 
C 35.40625 40 32.703125 44 27.5 44 
C 16.203125 44 4 29.421875 4 14.65625 
C 4 4.78125 9.796875 -1 16.59375 -1 
C 22.09375 -1 26.796875 3.28125 29.59375 6.578125 
C 30.59375 0.6875 35.296875 -1 38.296875 -1 
C 41.296875 -1 43.703125 0.796875 45.5 4.375 
C 47.09375 7.75 48.5 13.828125 48.5 14.21875 
C 48.5 14.71875 48.09375 15.125 47.5 15.125 
C 46.59375 15.125 46.5 14.625 46.09375 13.125 
C 44.59375 7.265625 42.703125 1 38.59375 1 
C 35.703125 1 35.5 3.578125 35.5 5.5625 
C 35.5 7.859375 35.796875 8.953125 36.703125 12.828125 
C 37.40625 15.3125 37.90625 17.5 38.703125 20.390625 
C 42.40625 35.3125 43.296875 38.890625 43.296875 39.5 
C 43.296875 40.890625 42.203125 42 40.703125 42 
C 37.5 42 36.703125 38.5 36.5 37.3125 
z
" id="CMMI12-97"/>
      <path d="M 20.09375 40.09375 
L 29.296875 40.09375 
C 31.203125 40.09375 32.203125 40.09375 32.203125 41.890625 
C 32.203125 43 31.59375 43 29.59375 43 
L 20.796875 43 
L 24.5 57.25 
C 24.90625 58.625 24.90625 58.8125 24.90625 59.5 
C 24.90625 61.09375 23.59375 62 22.296875 62 
C 21.5 62 19.203125 61.6875 18.40625 58.53125 
L 14.5 43 
L 5.09375 43 
C 3.09375 43 2.203125 43 2.203125 41.09375 
C 2.203125 40.09375 2.90625 40.09375 4.796875 40.09375 
L 13.703125 40.09375 
L 7.09375 13.765625 
C 6.296875 10.265625 6 9.265625 6 7.96875 
C 6 3.28125 9.296875 -1 14.90625 -1 
C 25 -1 30.40625 13.5625 30.40625 14.265625 
C 30.40625 14.859375 30 15.15625 29.40625 15.15625 
C 29.203125 15.15625 28.796875 15.15625 28.59375 14.75 
C 28.5 14.65625 28.40625 14.5625 27.703125 12.96875 
C 25.59375 7.96875 21 1 15.203125 1 
C 12.203125 1 12 3.484375 12 5.6875 
C 12 5.78125 12 7.671875 12.296875 8.875 
z
" id="CMMI12-116"/>
      <path d="M 28.296875 14.265625 
C 28.296875 14.765625 27.90625 15.15625 27.296875 15.15625 
C 26.40625 15.15625 26.296875 14.859375 25.796875 13.15625 
C 23.203125 4.078125 19.09375 1 15.796875 1 
C 14.59375 1 13.203125 1.296875 13.203125 4.28125 
C 13.203125 6.984375 14.40625 9.96875 15.5 12.96875 
L 22.5 31.515625 
C 22.796875 32.3125 23.5 34.109375 23.5 36.015625 
C 23.5 40.203125 20.5 44 15.59375 44 
C 6.40625 44 2.703125 29.53125 2.703125 28.71875 
C 2.703125 28.328125 3.09375 27.828125 3.796875 27.828125 
C 4.703125 27.828125 4.796875 28.234375 5.203125 29.625 
C 7.59375 38 11.40625 41.984375 15.296875 41.984375 
C 16.203125 41.984375 17.90625 41.890625 17.90625 38.703125 
C 17.90625 36.109375 16.59375 32.8125 15.796875 30.625 
L 8.796875 12.0625 
C 8.203125 10.46875 7.59375 8.875 7.59375 7.078125 
C 7.59375 2.59375 10.703125 -1 15.5 -1 
C 24.703125 -1 28.296875 13.5625 28.296875 14.265625 
z
M 27.5 62.6875 
C 27.5 64.1875 26.296875 66 24.09375 66 
C 21.796875 66 19.203125 63.796875 19.203125 61.1875 
C 19.203125 58.6875 21.296875 57.890625 22.5 57.890625 
C 25.203125 57.890625 27.5 60.484375 27.5 62.6875 
z
" id="CMMI12-105"/>
      <path d="M 44.59375 40.09375 
C 46.59375 40.09375 47.40625 40.09375 47.40625 41.984375 
C 47.40625 43 46.59375 43 44.796875 43 
L 36.703125 43 
C 38.59375 53.09375 40 60.09375 40.796875 63.296875 
C 41.40625 65.6875 43.5 67.984375 46.09375 67.984375 
C 48.203125 67.984375 50.296875 67.09375 51.296875 66.1875 
C 47.40625 65.796875 46.203125 62.890625 46.203125 61.1875 
C 46.203125 59.1875 47.703125 58 49.59375 58 
C 51.59375 58 54.59375 59.6875 54.59375 63.5 
C 54.59375 67.6875 50.40625 70 46 70 
C 41.703125 70 37.5 66.796875 35.5 62.890625 
C 33.703125 59.390625 32.703125 55.828125 30.40625 43 
L 23.703125 43 
C 21.796875 43 20.796875 43 20.796875 41.1875 
C 20.796875 40.09375 21.40625 40.09375 23.40625 40.09375 
L 29.796875 40.09375 
C 28 30.890625 23.90625 8.515625 21.59375 -2.0625 
C 19.90625 -10.703125 18.40625 -18 13.40625 -18 
C 13.09375 -18 10.203125 -18 8.40625 -16.109375 
C 13.5 -15.703125 13.5 -11.3125 13.5 -11.203125 
C 13.5 -9.203125 12 -8 10.09375 -8 
C 8.09375 -8 5.09375 -9.703125 5.09375 -13.515625 
C 5.09375 -17.8125 9.5 -20 13.40625 -20 
C 23.59375 -20 27.796875 -1.765625 28.90625 3.171875 
C 30.703125 10.796875 35.59375 37.125 36.09375 40.09375 
z
" id="CMMI12-102"/>
      <path d="M 28.09375 66.484375 
C 28.203125 66.890625 28.40625 67.484375 28.40625 67.984375 
C 28.40625 69 27.40625 69 27.203125 69 
C 27.09375 69 22.203125 68.59375 21.703125 68.484375 
C 20 68.390625 18.5 68.1875 16.703125 68.09375 
C 14.203125 67.890625 13.5 67.796875 13.5 65.984375 
C 13.5 64.984375 14.296875 64.984375 15.703125 64.984375 
C 20.59375 64.984375 20.703125 64.109375 20.703125 63.125 
C 20.703125 62.53125 20.5 61.734375 20.40625 61.4375 
L 5.90625 3.890625 
C 5.5 2.390625 5.5 2.1875 5.5 1.59375 
C 5.5 -0.609375 7.203125 -1 8.203125 -1 
C 9.90625 -1 11.203125 0.296875 11.703125 1.390625 
L 16.203125 19.453125 
C 16.703125 21.640625 17.296875 23.734375 17.796875 25.9375 
C 18.90625 30.125 18.90625 30.21875 20.796875 33.109375 
C 22.703125 36.015625 27.203125 41.984375 34.90625 41.984375 
C 38.90625 41.984375 40.296875 39 40.296875 35.015625 
C 40.296875 29.421875 36.40625 18.546875 34.203125 12.5625 
C 33.296875 10.171875 32.796875 8.875 32.796875 7.078125 
C 32.796875 2.59375 35.90625 -1 40.703125 -1 
C 50 -1 53.5 13.65625 53.5 14.265625 
C 53.5 14.765625 53.09375 15.15625 52.5 15.15625 
C 51.59375 15.15625 51.5 14.859375 51 13.15625 
C 48.703125 5.1875 45 1 41 1 
C 40 1 38.40625 1.09375 38.40625 4.28125 
C 38.40625 6.875 39.59375 10.078125 40 11.171875 
C 41.796875 15.953125 46.296875 27.734375 46.296875 33.515625 
C 46.296875 39.5 42.796875 44 35.203125 44 
C 29.5 44 24.5 41.296875 20.40625 36.109375 
z
" id="CMMI12-104"/>
      <path d="M 17.90625 23 
C 20.59375 23 27.40625 23.1875 32.203125 25 
C 39.796875 27.90625 40.5 33.75 40.5 35.546875 
C 40.5 39.984375 36.703125 44 30.09375 44 
C 19.59375 44 4.5 34.453125 4.5 16.65625 
C 4.5 6.25 10.5 -1 19.59375 -1 
C 33.203125 -1 41.796875 9.515625 41.796875 10.796875 
C 41.796875 11.390625 41.203125 11.890625 40.796875 11.890625 
C 40.5 11.890625 40.40625 11.796875 39.5 10.90625 
C 33.09375 2.484375 23.59375 1 19.796875 1 
C 14.09375 1 11.09375 5.453125 11.09375 12.78125 
C 11.09375 14.171875 11.09375 16.65625 12.59375 23 
z
M 13.09375 25 
C 17.40625 40.484375 26.90625 41.984375 30.09375 41.984375 
C 34.5 41.984375 37.5 39.375 37.5 35.546875 
C 37.5 25 21.5 25 17.296875 25 
z
" id="CMMI12-101"/>
      <path d="M 50.296875 66.484375 
C 50.40625 66.890625 50.59375 67.484375 50.59375 67.984375 
C 50.59375 69 49.59375 69 49.40625 69 
C 49.296875 69 44.40625 68.59375 43.90625 68.484375 
C 42.203125 68.390625 40.703125 68.1875 38.90625 68.09375 
C 36.40625 67.890625 35.703125 67.796875 35.703125 65.984375 
C 35.703125 64.984375 36.5 64.984375 37.90625 64.984375 
C 42.796875 64.984375 42.90625 64.109375 42.90625 63.125 
C 42.90625 62.53125 42.703125 61.734375 42.59375 61.4375 
L 36.5 37.40625 
C 35.40625 40 32.703125 44 27.5 44 
C 16.203125 44 4 29.421875 4 14.65625 
C 4 4.78125 9.796875 -1 16.59375 -1 
C 22.09375 -1 26.796875 3.28125 29.59375 6.578125 
C 30.59375 0.6875 35.296875 -1 38.296875 -1 
C 41.296875 -1 43.703125 0.796875 45.5 4.390625 
C 47.09375 7.78125 48.5 13.859375 48.5 14.265625 
C 48.5 14.765625 48.09375 15.15625 47.5 15.15625 
C 46.59375 15.15625 46.5 14.65625 46.09375 13.15625 
C 44.59375 7.28125 42.703125 1 38.59375 1 
C 35.703125 1 35.5 3.59375 35.5 5.578125 
C 35.5 5.984375 35.5 8.078125 36.203125 10.875 
z
M 30.09375 11.859375 
C 29.59375 10.171875 29.59375 9.96875 28.203125 8.078125 
C 26 5.28125 21.59375 1 16.90625 1 
C 12.796875 1 10.5 4.6875 10.5 10.5625 
C 10.5 16.0625 13.59375 27.234375 15.5 31.421875 
C 18.90625 38.40625 23.59375 41.984375 27.5 41.984375 
C 34.09375 41.984375 35.40625 33.8125 35.40625 33.015625 
C 35.40625 32.921875 35.09375 31.625 35 31.421875 
z
" id="CMMI12-100"/>
      <path d="M 23.09375 66.484375 
C 23.203125 66.890625 23.40625 67.484375 23.40625 67.984375 
C 23.40625 69 22.40625 69 22.203125 69 
C 22.09375 69 18.5 68.6875 16.703125 68.484375 
C 15 68.390625 13.5 68.1875 11.703125 68.09375 
C 9.296875 67.890625 8.59375 67.796875 8.59375 65.984375 
C 8.59375 64.984375 9.59375 64.984375 10.59375 64.984375 
C 15.703125 64.984375 15.703125 64.109375 15.703125 63.125 
C 15.703125 62.421875 14.90625 59.5625 14.5 57.796875 
L 12.09375 48.328125 
C 11.09375 44.390625 5.40625 21.75 5 19.953125 
C 4.5 17.453125 4.5 15.75 4.5 14.453125 
C 4.5 4.28125 10.203125 -1 16.703125 -1 
C 28.296875 -1 40.296875 13.859375 40.296875 28.328125 
C 40.296875 37.5 35.09375 44 27.59375 44 
C 22.40625 44 17.703125 39.703125 15.796875 37.703125 
z
M 16.796875 1 
C 13.59375 1 10.09375 3.390625 10.09375 11.171875 
C 10.09375 14.453125 10.40625 16.359375 12.203125 23.34375 
C 12.5 24.640625 14.09375 31.015625 14.5 32.3125 
C 14.703125 33.109375 20.59375 41.984375 27.40625 41.984375 
C 31.796875 41.984375 33.796875 37.609375 33.796875 32.421875 
C 33.796875 27.625 31 16.359375 28.5 11.171875 
C 26 5.78125 21.40625 1 16.796875 1 
z
" id="CMMI12-98"/>
      <path d="M 38.90625 41.140625 
C 35.796875 40.59375 34.203125 38.390625 34.203125 36.1875 
C 34.203125 33.796875 36.09375 32.984375 37.5 32.984375 
C 40.296875 32.984375 42.59375 35.390625 42.59375 38.390625 
C 42.59375 41.421875 39.5 44 34.5 44 
C 30.5 44 25.90625 42.1875 21.703125 36.484375 
C 21 41.5625 17 44 13 44 
C 9.09375 44 7.09375 41.28125 5.90625 39.1875 
C 4.203125 35.59375 2.703125 29.5625 2.703125 29.0625 
C 2.703125 28.65625 3.09375 28.140625 3.796875 28.140625 
C 4.59375 28.140625 4.703125 28.25 5.296875 30.578125 
C 6.796875 36.59375 8.703125 41.984375 12.703125 41.984375 
C 15.09375 41.984375 15.796875 40.6875 15.796875 37.796875 
C 15.796875 35.59375 14.796875 31.6875 14.09375 28.546875 
L 11.296875 17.65625 
C 10.90625 15.734375 9.796875 11.1875 9.296875 9.375 
C 8.59375 6.75 7.5 2 7.5 1.5 
C 7.5 0.09375 8.59375 -1 10.09375 -1 
C 11.203125 -1 13.09375 -0.3125 13.703125 1.703125 
C 14 2.5 17.703125 17.75 18.296875 20.078125 
C 18.796875 22.296875 19.40625 24.40625 19.90625 26.640625 
C 20.296875 28.046875 20.703125 29.65625 21 30.96875 
C 21.296875 31.875 24 36.796875 26.5 38.984375 
C 27.703125 40.09375 30.296875 41.984375 34.40625 41.984375 
C 36 41.984375 37.59375 41.78125 38.90625 41.140625 
z
" id="CMMI12-114"/>
      <path d="M 30.59375 -24.40625 
C 30.59375 -24.3125 30.59375 -24.109375 30.296875 -23.8125 
C 25.703125 -19.109375 13.40625 -6.296875 13.40625 24.9375 
C 13.40625 56.171875 25.5 68.875 30.40625 73.890625 
C 30.40625 73.984375 30.59375 74.1875 30.59375 74.484375 
C 30.59375 74.796875 30.296875 75 29.90625 75 
C 28.796875 75 20.296875 67.578125 15.40625 56.5625 
C 10.40625 45.453125 9 34.65625 9 25.046875 
C 9 17.828125 9.703125 5.625 15.703125 -7.296875 
C 20.5 -17.703125 28.703125 -25 29.90625 -25 
C 30.40625 -25 30.59375 -24.8125 30.59375 -24.40625 
z
" id="CMR17-40"/>
      <path d="M 20.59375 29.21875 
C 20.796875 29.828125 23.296875 34.8125 27 38 
C 29.59375 40.390625 33 41.984375 36.90625 41.984375 
C 40.90625 41.984375 42.296875 39 42.296875 35.015625 
C 42.296875 34.40625 42.296875 32.421875 41.09375 27.734375 
L 38.59375 17.453125 
C 37.796875 14.453125 35.90625 7.078125 35.703125 5.984375 
C 35.296875 4.484375 34.703125 1.890625 34.703125 1.484375 
C 34.703125 0.09375 35.796875 -1 37.296875 -1 
C 40.296875 -1 40.796875 1.296875 41.703125 4.890625 
L 47.703125 28.71875 
C 47.90625 29.53125 53.09375 41.984375 64.09375 41.984375 
C 68.09375 41.984375 69.5 39 69.5 35.015625 
C 69.5 29.421875 65.59375 18.546875 63.40625 12.5625 
C 62.5 10.171875 62 8.875 62 7.078125 
C 62 2.59375 65.09375 -1 69.90625 -1 
C 79.203125 -1 82.703125 13.65625 82.703125 14.265625 
C 82.703125 14.765625 82.296875 15.15625 81.703125 15.15625 
C 80.796875 15.15625 80.703125 14.859375 80.203125 13.15625 
C 77.90625 5.1875 74.203125 1 70.203125 1 
C 69.203125 1 67.59375 1.09375 67.59375 4.28125 
C 67.59375 6.875 68.796875 10.078125 69.203125 11.171875 
C 71 15.953125 75.5 27.734375 75.5 33.515625 
C 75.5 39.5 72 44 64.40625 44 
C 57.703125 44 52.296875 40.203125 48.296875 34.3125 
C 48 39.703125 44.703125 44 37.203125 44 
C 28.296875 44 23.59375 37.703125 21.796875 35.203125 
C 21.5 40.890625 17.40625 44 13 44 
C 10.09375 44 7.796875 42.59375 5.90625 38.796875 
C 4.09375 35.203125 2.703125 29.125 2.703125 28.71875 
C 2.703125 28.328125 3.09375 27.828125 3.796875 27.828125 
C 4.59375 27.828125 4.703125 27.921875 5.296875 30.21875 
C 6.796875 36.109375 8.703125 41.984375 12.703125 41.984375 
C 15 41.984375 15.796875 40.390625 15.796875 37.40625 
C 15.796875 35.203125 14.796875 31.3125 14.09375 28.234375 
L 11.296875 17.453125 
C 10.90625 15.5625 9.796875 11.0625 9.296875 9.265625 
C 8.59375 6.671875 7.5 1.984375 7.5 1.484375 
C 7.5 0.09375 8.59375 -1 10.09375 -1 
C 11.296875 -1 12.703125 -0.40625 13.5 1.09375 
C 13.703125 1.59375 14.59375 5.078125 15.09375 7.078125 
L 17.296875 16.0625 
z
" id="CMMI12-109"/>
      <path d="M 26.296875 24.9375 
C 26.296875 32.140625 25.59375 44.359375 19.59375 57.265625 
C 14.796875 67.6875 6.59375 75 5.40625 75 
C 5.09375 75 4.703125 74.890625 4.703125 74.390625 
C 4.703125 74.1875 4.796875 74.09375 4.90625 73.890625 
C 9.703125 68.875 21.90625 56.171875 21.90625 25.046875 
C 21.90625 -6.1875 9.796875 -18.90625 4.90625 -23.90625 
C 4.796875 -24.109375 4.703125 -24.203125 4.703125 -24.40625 
C 4.703125 -24.90625 5.09375 -25 5.40625 -25 
C 6.5 -25 15 -17.609375 19.90625 -6.59375 
C 24.90625 4.515625 26.296875 15.328125 26.296875 24.9375 
z
" id="CMR17-41"/>
     </defs>
     <g transform="translate(207.726529 536.760435)scale(0.2 -0.2)">
      <use transform="scale(0.996264)" xlink:href="#CMMI12-69"/>
      <use transform="translate(78.051636 0)scale(0.996264)" xlink:href="#CMMI12-108"/>
      <use transform="translate(109.30004 0)scale(0.996264)" xlink:href="#CMMI12-111"/>
      <use transform="translate(156.19535 0)scale(0.996264)" xlink:href="#CMMI12-110"/>
      <use transform="translate(214.425397 0)scale(0.996264)" xlink:href="#CMMI12-103"/>
      <use transform="translate(264.710886 0)scale(0.996264)" xlink:href="#CMMI12-97"/>
      <use transform="translate(315.918744 0)scale(0.996264)" xlink:href="#CMMI12-116"/>
      <use transform="translate(351.145074 0)scale(0.996264)" xlink:href="#CMMI12-105"/>
      <use transform="translate(384.423676 0)scale(0.996264)" xlink:href="#CMMI12-111"/>
      <use transform="translate(431.318986 0)scale(0.996264)" xlink:href="#CMMI12-110"/>
      <use transform="translate(520.778146 0)scale(0.996264)" xlink:href="#CMMI12-111"/>
      <use transform="translate(567.673455 0)scale(0.996264)" xlink:href="#CMMI12-102"/>
      <use transform="translate(657.622873 0)scale(0.996264)" xlink:href="#CMMI12-116"/>
      <use transform="translate(692.849203 0)scale(0.996264)" xlink:href="#CMMI12-104"/>
      <use transform="translate(749.003827 0)scale(0.996264)" xlink:href="#CMMI12-101"/>
      <use transform="translate(825.444941 0)scale(0.996264)" xlink:href="#CMMI12-101"/>
      <use transform="translate(870.656942 0)scale(0.996264)" xlink:href="#CMMI12-110"/>
      <use transform="translate(928.886989 0)scale(0.996264)" xlink:href="#CMMI12-100"/>
      <use transform="translate(1010.805199 0)scale(0.996264)" xlink:href="#CMMI12-111"/>
      <use transform="translate(1057.700508 0)scale(0.996264)" xlink:href="#CMMI12-102"/>
      <use transform="translate(1147.649926 0)scale(0.996264)" xlink:href="#CMMI12-116"/>
      <use transform="translate(1182.876256 0)scale(0.996264)" xlink:href="#CMMI12-104"/>
      <use transform="translate(1239.03088 0)scale(0.996264)" xlink:href="#CMMI12-101"/>
      <use transform="translate(1315.471994 0)scale(0.996264)" xlink:href="#CMMI12-98"/>
      <use transform="translate(1356.947868 0)scale(0.996264)" xlink:href="#CMMI12-97"/>
      <use transform="translate(1408.155726 0)scale(0.996264)" xlink:href="#CMMI12-114"/>
      <use transform="translate(1486.055451 0)scale(0.996264)" xlink:href="#CMR17-40"/>
      <use transform="translate(1521.336218 0)scale(0.996264)" xlink:href="#CMMI12-109"/>
      <use transform="translate(1606.663443 0)scale(0.996264)" xlink:href="#CMMI12-109"/>
      <use transform="translate(1691.990667 0)scale(0.996264)" xlink:href="#CMR17-41"/>
     </g>
    </g>
   </g>
   <g id="matplotlib.axis_2">
    <g id="ytick_1">
     <g id="line2d_17">
      <path clip-path="url(#pabb54eb7d6)" d="M 54.302627 489.210276 
L 706.604627 489.210276 
" style="fill:none;stroke:#b0b0b0;stroke-linecap:square;stroke-width:0.8;"/>
     </g>
     <g id="line2d_18">
      <defs>
       <path d="M 0 0 
L -3.5 0 
" id="mf327ebdfa4" style="stroke:#000000;stroke-width:0.8;"/>
      </defs>
      <g>
       <use style="stroke:#000000;stroke-width:0.8;" x="54.302627" xlink:href="#mf327ebdfa4" y="489.210276"/>
      </g>
     </g>
     <g id="text_10">
      <!-- $0$ -->
      <g transform="translate(39.49864 494.74507)scale(0.16 -0.16)">
       <use transform="scale(0.996264)" xlink:href="#CMR17-48"/>
      </g>
     </g>
    </g>
    <g id="ytick_2">
     <g id="line2d_19">
      <path clip-path="url(#pabb54eb7d6)" d="M 54.302627 422.283642 
L 706.604627 422.283642 
" style="fill:none;stroke:#b0b0b0;stroke-linecap:square;stroke-width:0.8;"/>
     </g>
     <g id="line2d_20">
      <g>
       <use style="stroke:#000000;stroke-width:0.8;" x="54.302627" xlink:href="#mf327ebdfa4" y="422.283642"/>
      </g>
     </g>
     <g id="text_11">
      <!-- $100$ -->
      <g transform="translate(23.890666 427.818436)scale(0.16 -0.16)">
       <use transform="scale(0.996264)" xlink:href="#CMR17-49"/>
       <use transform="translate(45.690477 0)scale(0.996264)" xlink:href="#CMR17-48"/>
       <use transform="translate(91.380954 0)scale(0.996264)" xlink:href="#CMR17-48"/>
      </g>
     </g>
    </g>
    <g id="ytick_3">
     <g id="line2d_21">
      <path clip-path="url(#pabb54eb7d6)" d="M 54.302627 355.357008 
L 706.604627 355.357008 
" style="fill:none;stroke:#b0b0b0;stroke-linecap:square;stroke-width:0.8;"/>
     </g>
     <g id="line2d_22">
      <g>
       <use style="stroke:#000000;stroke-width:0.8;" x="54.302627" xlink:href="#mf327ebdfa4" y="355.357008"/>
      </g>
     </g>
     <g id="text_12">
      <!-- $200$ -->
      <g transform="translate(23.890666 360.891802)scale(0.16 -0.16)">
       <use transform="scale(0.996264)" xlink:href="#CMR17-50"/>
       <use transform="translate(45.690477 0)scale(0.996264)" xlink:href="#CMR17-48"/>
       <use transform="translate(91.380954 0)scale(0.996264)" xlink:href="#CMR17-48"/>
      </g>
     </g>
    </g>
    <g id="ytick_4">
     <g id="line2d_23">
      <path clip-path="url(#pabb54eb7d6)" d="M 54.302627 288.430374 
L 706.604627 288.430374 
" style="fill:none;stroke:#b0b0b0;stroke-linecap:square;stroke-width:0.8;"/>
     </g>
     <g id="line2d_24">
      <g>
       <use style="stroke:#000000;stroke-width:0.8;" x="54.302627" xlink:href="#mf327ebdfa4" y="288.430374"/>
      </g>
     </g>
     <g id="text_13">
      <!-- $300$ -->
      <g transform="translate(23.890666 293.965168)scale(0.16 -0.16)">
       <use transform="scale(0.996264)" xlink:href="#CMR17-51"/>
       <use transform="translate(45.690477 0)scale(0.996264)" xlink:href="#CMR17-48"/>
       <use transform="translate(91.380954 0)scale(0.996264)" xlink:href="#CMR17-48"/>
      </g>
     </g>
    </g>
    <g id="ytick_5">
     <g id="line2d_25">
      <path clip-path="url(#pabb54eb7d6)" d="M 54.302627 221.50374 
L 706.604627 221.50374 
" style="fill:none;stroke:#b0b0b0;stroke-linecap:square;stroke-width:0.8;"/>
     </g>
     <g id="line2d_26">
      <g>
       <use style="stroke:#000000;stroke-width:0.8;" x="54.302627" xlink:href="#mf327ebdfa4" y="221.50374"/>
      </g>
     </g>
     <g id="text_14">
      <!-- $400$ -->
      <g transform="translate(23.890666 227.038534)scale(0.16 -0.16)">
       <use transform="scale(0.996264)" xlink:href="#CMR17-52"/>
       <use transform="translate(45.690477 0)scale(0.996264)" xlink:href="#CMR17-48"/>
       <use transform="translate(91.380954 0)scale(0.996264)" xlink:href="#CMR17-48"/>
      </g>
     </g>
    </g>
    <g id="ytick_6">
     <g id="line2d_27">
      <path clip-path="url(#pabb54eb7d6)" d="M 54.302627 154.577106 
L 706.604627 154.577106 
" style="fill:none;stroke:#b0b0b0;stroke-linecap:square;stroke-width:0.8;"/>
     </g>
     <g id="line2d_28">
      <g>
       <use style="stroke:#000000;stroke-width:0.8;" x="54.302627" xlink:href="#mf327ebdfa4" y="154.577106"/>
      </g>
     </g>
     <g id="text_15">
      <!-- $500$ -->
      <g transform="translate(23.890666 160.1119)scale(0.16 -0.16)">
       <use transform="scale(0.996264)" xlink:href="#CMR17-53"/>
       <use transform="translate(45.690477 0)scale(0.996264)" xlink:href="#CMR17-48"/>
       <use transform="translate(91.380954 0)scale(0.996264)" xlink:href="#CMR17-48"/>
      </g>
     </g>
    </g>
    <g id="ytick_7">
     <g id="line2d_29">
      <path clip-path="url(#pabb54eb7d6)" d="M 54.302627 87.650472 
L 706.604627 87.650472 
" style="fill:none;stroke:#b0b0b0;stroke-linecap:square;stroke-width:0.8;"/>
     </g>
     <g id="line2d_30">
      <g>
       <use style="stroke:#000000;stroke-width:0.8;" x="54.302627" xlink:href="#mf327ebdfa4" y="87.650472"/>
      </g>
     </g>
     <g id="text_16">
      <!-- $600$ -->
      <g transform="translate(23.890666 93.185266)scale(0.16 -0.16)">
       <use transform="scale(0.996264)" xlink:href="#CMR17-54"/>
       <use transform="translate(45.690477 0)scale(0.996264)" xlink:href="#CMR17-48"/>
       <use transform="translate(91.380954 0)scale(0.996264)" xlink:href="#CMR17-48"/>
      </g>
     </g>
    </g>
    <g id="text_17">
     <!-- $Temperature\ (^{\circ}C)$ -->
     <defs>
      <path d="M 41.703125 60.71875 
C 42.296875 63.09375 42.5 64 44 64.390625 
C 44.796875 64.59375 48.09375 64.59375 50.203125 64.59375 
C 60.203125 64.59375 64.90625 64.203125 64.90625 56.4375 
C 64.90625 54.9375 64.5 51.15625 63.90625 47.46875 
L 63.796875 46.28125 
C 63.796875 45.890625 64.203125 45.28125 64.796875 45.28125 
C 65.796875 45.28125 65.796875 45.78125 66.09375 47.375 
L 69 64.984375 
C 69.203125 65.890625 69.203125 66.09375 69.203125 66.390625 
C 69.203125 67.484375 68.59375 67.484375 66.59375 67.484375 
L 11.90625 67.484375 
C 9.59375 67.484375 9.5 67.390625 8.90625 65.59375 
L 2.796875 47.671875 
C 2.703125 47.46875 2.40625 46.375 2.40625 46.28125 
C 2.40625 45.78125 2.796875 45.28125 3.40625 45.28125 
C 4.203125 45.28125 4.40625 45.6875 4.796875 46.984375 
C 9 59.015625 11.09375 64.59375 24.40625 64.59375 
L 31.09375 64.59375 
C 33.5 64.59375 34.5 64.59375 34.5 63.5 
C 34.5 63.203125 34.5 63 34 61.203125 
L 20.59375 7.765625 
C 19.59375 3.890625 19.40625 2.890625 8.796875 2.890625 
C 6.296875 2.890625 5.59375 2.890625 5.59375 1 
C 5.59375 0 6.703125 0 7.203125 0 
C 9.703125 0 12.296875 0.1875 14.796875 0.1875 
L 30.40625 0.1875 
C 32.90625 0.1875 35.59375 0 38.09375 0 
C 39.203125 0 40.203125 0 40.203125 1.890625 
C 40.203125 2.890625 39.5 2.890625 36.90625 2.890625 
C 27.90625 2.890625 27.90625 3.78125 27.90625 5.28125 
C 27.90625 5.375 27.90625 6.078125 28.296875 7.671875 
z
" id="CMMI12-84"/>
      <path d="M 4.296875 -12.40625 
C 3.59375 -15.328125 3.203125 -16.109375 -0.90625 -16.109375 
C -2.109375 -16.109375 -3.109375 -16.109375 -3.109375 -18 
C -3.109375 -18.203125 -3 -19 -1.90625 -19 
C -0.609375 -19 0.796875 -18.8125 2.09375 -18.8125 
L 6.40625 -18.8125 
C 8.5 -18.8125 13.59375 -19 15.703125 -19 
C 16.296875 -19 17.5 -19 17.5 -17.203125 
C 17.5 -16.109375 16.796875 -16.109375 15.09375 -16.109375 
C 10.5 -16.109375 10.203125 -15.421875 10.203125 -14.640625 
C 10.203125 -13.484375 14.703125 3.390625 15.296875 5.6875 
C 16.40625 2.890625 19.09375 -1 24.296875 -1 
C 35.59375 -1 47.796875 13.65625 47.796875 28.328125 
C 47.796875 37.5 42.59375 44 35.09375 44 
C 28.703125 44 23.296875 37.796875 22.203125 36.40625 
C 21.40625 41.390625 17.5 44 13.5 44 
C 10.59375 44 8.296875 42.59375 6.40625 38.796875 
C 4.59375 35.203125 3.203125 29.125 3.203125 28.71875 
C 3.203125 28.328125 3.59375 27.828125 4.296875 27.828125 
C 5.09375 27.828125 5.203125 27.921875 5.796875 30.21875 
C 7.296875 36.109375 9.203125 41.984375 13.203125 41.984375 
C 15.5 41.984375 16.296875 40.390625 16.296875 37.40625 
C 16.296875 35.015625 16 34.015625 15.59375 32.21875 
z
M 21.59375 31.125 
C 22.296875 33.90625 25.09375 36.8125 26.703125 38.203125 
C 27.796875 39.203125 31.09375 41.984375 34.90625 41.984375 
C 39.296875 41.984375 41.296875 37.609375 41.296875 32.421875 
C 41.296875 27.625 38.5 16.359375 36 11.171875 
C 33.5 5.78125 28.90625 1 24.296875 1 
C 17.5 1 16.40625 9.578125 16.40625 9.96875 
C 16.40625 10.265625 16.59375 11.0625 16.703125 11.5625 
z
" id="CMMI12-112"/>
      <path d="M 34.09375 5.78125 
C 35.40625 0.1875 40.203125 -1 42.59375 -1 
C 45.796875 -1 48.203125 1.09375 49.796875 4.484375 
C 51.5 8.078125 52.796875 13.953125 52.796875 14.265625 
C 52.796875 14.75 52.40625 15.15625 51.796875 15.15625 
C 50.90625 15.15625 50.796875 14.65625 50.40625 13.15625 
C 48.59375 6.28125 46.796875 1 42.796875 1 
C 39.796875 1 39.796875 4.28125 39.796875 5.578125 
C 39.796875 7.875 40.09375 8.875 41.09375 13.0625 
C 41.796875 15.75 42.5 18.453125 43.09375 21.234375 
L 47.203125 37.5 
C 47.90625 40 47.90625 40.1875 47.90625 40.484375 
C 47.90625 41.984375 46.703125 43 45.203125 43 
C 42.296875 43 41.59375 40.484375 41 38 
C 40 34.109375 34.59375 12.65625 33.90625 9.171875 
C 33.796875 9.171875 29.90625 1 22.59375 1 
C 17.40625 1 16.40625 5.484375 16.40625 9.171875 
C 16.40625 14.859375 19.203125 22.84375 21.796875 29.53125 
C 23 32.71875 23.5 34.015625 23.5 36.015625 
C 23.5 40.296875 20.40625 44 15.59375 44 
C 6.40625 44 2.703125 29.53125 2.703125 28.71875 
C 2.703125 28.328125 3.09375 27.828125 3.796875 27.828125 
C 4.703125 27.828125 4.796875 28.234375 5.203125 29.625 
C 7.59375 38.203125 11.5 41.984375 15.296875 41.984375 
C 16.296875 41.984375 17.90625 41.890625 17.90625 38.703125 
C 17.90625 36.109375 16.796875 33.21875 15.296875 29.421875 
C 10.90625 17.546875 10.40625 13.765625 10.40625 10.765625 
C 10.40625 0.59375 18.09375 -1 22.203125 -1 
C 28.59375 -1 32.09375 3.390625 34.09375 5.78125 
z
" id="CMMI12-117"/>
      <path d="M 44.40625 24.984375 
C 44.40625 35.40625 35.5 44 25 44 
C 14.203125 44 5.5 35.21875 5.5 24.984375 
C 5.5 14.671875 14.203125 5.984375 25 5.984375 
C 35.5 5.984375 44.40625 14.5625 44.40625 24.984375 
z
M 25 10 
C 16.296875 10 9.5 16.8125 9.5 24.984375 
C 9.5 33.171875 16.40625 40 25 40 
C 33.296875 40 40.40625 33.375 40.40625 24.984375 
C 40.40625 16.609375 33.296875 10 25 10 
z
" id="CMSY10-14"/>
      <path d="M 74.703125 69.09375 
C 74.703125 70 74 70 73.796875 70 
C 73.59375 70 73.203125 70 72.40625 68.984375 
L 65.5 60.640625 
C 62 66.59375 56.5 70 49 70 
C 27.40625 70 5 48.234375 5 24.90625 
C 5 8.328125 16.703125 -2 31.296875 -2 
C 39.296875 -2 46.296875 1.390625 52.09375 6.25 
C 60.796875 13.5 63.40625 23.125 63.40625 23.921875 
C 63.40625 24.8125 62.59375 24.8125 62.296875 24.8125 
C 61.40625 24.8125 61.296875 24.21875 61.09375 23.8125 
C 56.5 8.328125 43 0.890625 33 0.890625 
C 22.40625 0.890625 13.203125 7.640625 13.203125 21.734375 
C 13.203125 24.90625 14.203125 42.171875 25.5 55.171875 
C 31 61.53125 40.40625 67.09375 49.90625 67.09375 
C 60.90625 67.09375 65.796875 58.0625 65.796875 47.9375 
C 65.796875 45.359375 65.5 43.171875 65.5 42.765625 
C 65.5 41.875 66.5 41.875 66.796875 41.875 
C 67.90625 41.875 68 41.984375 68.40625 43.765625 
z
" id="CMMI12-67"/>
     </defs>
     <g transform="translate(14.926022 346.624872)rotate(-90)scale(0.2 -0.2)">
      <use transform="scale(0.996264)" xlink:href="#CMMI12-84"/>
      <use transform="translate(70.723632 0)scale(0.996264)" xlink:href="#CMMI12-101"/>
      <use transform="translate(115.935633 0)scale(0.996264)" xlink:href="#CMMI12-109"/>
      <use transform="translate(201.262858 0)scale(0.996264)" xlink:href="#CMMI12-112"/>
      <use transform="translate(250.222372 0)scale(0.996264)" xlink:href="#CMMI12-101"/>
      <use transform="translate(295.434373 0)scale(0.996264)" xlink:href="#CMMI12-114"/>
      <use transform="translate(342.104985 0)scale(0.996264)" xlink:href="#CMMI12-97"/>
      <use transform="translate(393.312842 0)scale(0.996264)" xlink:href="#CMMI12-116"/>
      <use transform="translate(428.539173 0)scale(0.996264)" xlink:href="#CMMI12-117"/>
      <use transform="translate(484.059502 0)scale(0.996264)" xlink:href="#CMMI12-114"/>
      <use transform="translate(530.730114 0)scale(0.996264)" xlink:href="#CMMI12-101"/>
      <use transform="translate(607.171228 0)scale(0.996264)" xlink:href="#CMR17-40"/>
      <use transform="translate(642.451996 36.153639)scale(0.697382)" xlink:href="#CMSY10-14"/>
      <use transform="translate(677.819338 0)scale(0.996264)" xlink:href="#CMMI12-67"/>
      <use transform="translate(754.766184 0)scale(0.996264)" xlink:href="#CMR17-41"/>
     </g>
    </g>
   </g>
   <g id="patch_3">
    <path d="M 54.302627 496.665349 
L 54.302627 38.176549 
" style="fill:none;stroke:#000000;stroke-linecap:square;stroke-linejoin:miter;stroke-width:0.8;"/>
   </g>
   <g id="patch_4">
    <path d="M 706.604627 496.665349 
L 706.604627 38.176549 
" style="fill:none;stroke:#000000;stroke-linecap:square;stroke-linejoin:miter;stroke-width:0.8;"/>
   </g>
   <g id="patch_5">
    <path d="M 54.302627 496.665349 
L 706.604627 496.665349 
" style="fill:none;stroke:#000000;stroke-linecap:square;stroke-linejoin:miter;stroke-width:0.8;"/>
   </g>
   <g id="patch_6">
    <path d="M 54.302627 38.176549 
L 706.604627 38.176549 
" style="fill:none;stroke:#000000;stroke-linecap:square;stroke-linejoin:miter;stroke-width:0.8;"/>
   </g>
   <g id="text_18">
    <!-- $Bar\ Necking\ Benchmark\ Test$ -->
    <defs>
     <path d="M 36.59375 61.171875 
C 37.5 64.890625 37.90625 65.09375 41.796875 65.09375 
L 54.796875 65.09375 
C 66.09375 65.09375 66.09375 55.421875 66.09375 54.515625 
C 66.09375 46.359375 58 36 44.796875 36 
L 30.40625 36 
z
M 53.5 35.1875 
C 64.40625 37.203125 74.296875 44.859375 74.296875 54.109375 
C 74.296875 61.96875 67.40625 68 56.09375 68 
L 24 68 
C 22.09375 68 21.203125 68 21.203125 66.09375 
C 21.203125 65.09375 22.09375 65.09375 23.59375 65.09375 
C 29.703125 65.09375 29.703125 64.28125 29.703125 63.171875 
C 29.703125 62.984375 29.703125 62.375 29.296875 60.859375 
L 15.796875 7.328125 
C 14.90625 3.875 14.703125 2.890625 7.703125 2.890625 
C 5.796875 2.890625 4.796875 2.890625 4.796875 1.09375 
C 4.796875 0 5.40625 0 7.40625 0 
L 41.703125 0 
C 57 0 68.796875 11.453125 68.796875 21.390625 
C 68.796875 29.46875 61.59375 34.390625 53.5 35.1875 
z
M 39.296875 2.890625 
L 25.796875 2.890625 
C 24.40625 2.890625 24.203125 2.890625 23.59375 2.984375 
C 22.5 3.09375 22.40625 3.28125 22.40625 4.078125 
C 22.40625 4.765625 22.59375 5.359375 22.796875 6.234375 
L 29.796875 34 
L 48.59375 34 
C 60.40625 34 60.40625 23.171875 60.40625 22.375 
C 60.40625 12.9375 51.703125 2.890625 39.296875 2.890625 
z
" id="CMMI12-66"/>
     <path d="M 74 57.53125 
C 75.09375 61.8125 76.703125 64.796875 84.296875 65.09375 
C 84.59375 65.09375 85.796875 65.1875 85.796875 66.890625 
C 85.796875 68 84.90625 68 84.5 68 
C 82.5 68 77.40625 67.796875 75.40625 67.796875 
L 70.59375 67.796875 
C 69.203125 67.796875 67.40625 68 66 68 
C 65.40625 68 64.203125 68 64.203125 66.09375 
C 64.203125 65.09375 65 65.09375 65.703125 65.09375 
C 71.703125 64.890625 72.09375 62.609375 72.09375 60.8125 
C 72.09375 59.921875 72 59.625 71.703125 58.21875 
L 60.40625 13.34375 
L 39 66.296875 
C 38.296875 67.890625 38.203125 68 36 68 
L 23.796875 68 
C 21.796875 68 20.90625 68 20.90625 66.09375 
C 20.90625 65.09375 21.59375 65.09375 23.5 65.09375 
C 24 65.09375 29.90625 65.09375 29.90625 64.203125 
C 29.90625 64 29.703125 63.203125 29.59375 62.90625 
L 16.296875 10.15625 
C 15.09375 5.28125 12.703125 3.1875 6.09375 2.890625 
C 5.59375 2.890625 4.59375 2.796875 4.59375 1 
C 4.59375 0 5.59375 0 5.90625 0 
C 7.90625 0 13 0.1875 15 0.1875 
L 19.796875 0.1875 
C 21.203125 0.1875 22.90625 0 24.296875 0 
C 25 0 26.09375 0 26.09375 1.890625 
C 26.09375 2.796875 25.09375 2.890625 24.703125 2.890625 
C 21.40625 2.984375 18.203125 3.59375 18.203125 7.171875 
C 18.203125 7.96875 18.40625 8.859375 18.59375 9.65625 
L 32.09375 62.90625 
C 32.703125 61.90625 32.703125 61.703125 33.09375 60.8125 
L 56.90625 1.796875 
C 57.40625 0.59375 57.59375 0 58.5 0 
C 59.5 0 59.59375 0.296875 60 2 
z
" id="CMMI12-78"/>
     <path d="M 39.09375 38 
C 37.203125 38 36.296875 38 34.90625 36.796875 
C 34.296875 36.296875 33.203125 34.796875 33.203125 33.1875 
C 33.203125 31.1875 34.703125 29.984375 36.59375 29.984375 
C 39 29.984375 41.703125 31.984375 41.703125 35.984375 
C 41.703125 40.484375 37.09375 44 30.203125 44 
C 17.09375 44 4 30.1875 4 15.796875 
C 4 6.96875 9.40625 -1 19.59375 -1 
C 33.203125 -1 41.796875 9.71875 41.796875 11.03125 
C 41.796875 11.640625 41.203125 12.140625 40.796875 12.140625 
C 40.5 12.140625 40.40625 12.046875 39.5 11.125 
C 33.09375 2.515625 23.59375 1 19.796875 1 
C 12.90625 1 10.703125 7.078125 10.703125 12.140625 
C 10.703125 15.6875 12.40625 25.53125 16 32.390625 
C 18.59375 37.09375 24 41.984375 30.296875 41.984375 
C 31.59375 41.984375 37.09375 41.8125 39.09375 38 
z
" id="CMMI12-99"/>
     <path d="M 28.09375 66.484375 
C 28.203125 66.890625 28.40625 67.484375 28.40625 67.984375 
C 28.40625 69 27.40625 69 27.203125 69 
C 27.09375 69 23.5 68.6875 21.703125 68.484375 
C 20 68.390625 18.5 68.1875 16.703125 68.09375 
C 14.296875 67.890625 13.59375 67.796875 13.59375 65.984375 
C 13.59375 64.984375 14.59375 64.984375 15.59375 64.984375 
C 20.703125 64.984375 20.703125 64.109375 20.703125 63.125 
C 20.703125 62.71875 20.703125 62.53125 20.203125 60.75 
L 5.90625 3.90625 
C 5.5 2.390625 5.5 2.203125 5.5 1.59375 
C 5.5 -0.609375 7.203125 -1 8.203125 -1 
C 11 -1 11.59375 1.1875 12.40625 4.296875 
L 17.09375 23.0625 
C 24.296875 22.265625 28.59375 19.25 28.59375 14.4375 
C 28.59375 13.828125 28.59375 13.4375 28.296875 11.921875 
C 27.90625 10.421875 27.90625 9.21875 27.90625 8.71875 
C 27.90625 2.890625 31.703125 -1 36.796875 -1 
C 41.40625 -1 43.796875 3.203125 44.59375 4.609375 
C 46.703125 8.3125 48 13.9375 48 14.328125 
C 48 14.828125 47.59375 15.234375 47 15.234375 
C 46.09375 15.234375 46 14.828125 45.59375 13.234375 
C 44.203125 8.015625 42.09375 1 37 1 
C 35 1 33.703125 2 33.703125 5.8125 
C 33.703125 7.71875 34.09375 9.921875 34.5 11.421875 
C 34.90625 13.234375 34.90625 13.328125 34.90625 14.53125 
C 34.90625 20.453125 29.59375 23.765625 20.40625 24.96875 
C 24 27.171875 27.59375 31.078125 29 32.59375 
C 34.703125 38.984375 38.59375 41.984375 43.203125 41.984375 
C 45.5 41.984375 46.09375 41.484375 46.796875 41 
C 43.09375 40.59375 41.703125 37.984375 41.703125 35.984375 
C 41.703125 33.59375 43.59375 32.796875 45 32.796875 
C 47.703125 32.796875 50.09375 35.09375 50.09375 38.296875 
C 50.09375 41.15625 47.796875 44 43.296875 44 
C 37.796875 44 33.296875 40.296875 26.203125 32.296875 
C 25.203125 31.078125 21.5 27.28125 17.796875 25.875 
z
" id="CMMI12-107"/>
     <path d="M 22.796875 20.15625 
C 24.5 19.859375 27.203125 19.265625 27.796875 19.171875 
C 29.09375 18.765625 33.59375 17.171875 33.59375 12.390625 
C 33.59375 9.296875 30.796875 1 19.203125 1 
C 17.09375 1 9.59375 1.296875 7.59375 6.984375 
C 11.59375 6.46875 13.59375 9.59375 13.59375 11.796875 
C 13.59375 13.890625 12.203125 15 10.203125 15 
C 8 15 5.09375 13.296875 5.09375 8.796875 
C 5.09375 2.75 11.09375 -1 19.09375 -1 
C 34.296875 -1 38.796875 10.390625 38.796875 15.59375 
C 38.796875 17.078125 38.796875 19.859375 35.59375 23.046875 
C 33.09375 25.421875 30.703125 25.921875 25.296875 27.015625 
C 22.59375 27.609375 18.296875 28.5 18.296875 32.984375 
C 18.296875 34.984375 20.09375 41.984375 29.59375 41.984375 
C 33.796875 41.984375 37.90625 40.453125 38.90625 37 
C 34.5 37 34.296875 33.1875 34.296875 33.09375 
C 34.296875 30.984375 36.203125 30.390625 37.09375 30.390625 
C 38.5 30.390625 41.296875 31.484375 41.296875 35.6875 
C 41.296875 39.78125 37.5 44 29.703125 44 
C 16.59375 44 13.09375 33.890625 13.09375 29.796875 
C 13.09375 22.25 20.5 20.65625 22.796875 20.15625 
z
" id="CMMI12-115"/>
    </defs>
    <g transform="translate(244.713263 13.836997)scale(0.2 -0.2)">
     <use transform="scale(0.996264)" xlink:href="#CMMI12-66"/>
     <use transform="translate(79.135523 0)scale(0.996264)" xlink:href="#CMMI12-97"/>
     <use transform="translate(130.343381 0)scale(0.996264)" xlink:href="#CMMI12-114"/>
     <use transform="translate(208.243106 0)scale(0.996264)" xlink:href="#CMMI12-78"/>
     <use transform="translate(296.764878 0)scale(0.996264)" xlink:href="#CMMI12-101"/>
     <use transform="translate(341.976879 0)scale(0.996264)" xlink:href="#CMMI12-99"/>
     <use transform="translate(383.960113 0)scale(0.996264)" xlink:href="#CMMI12-107"/>
     <use transform="translate(438.039314 0)scale(0.996264)" xlink:href="#CMMI12-105"/>
     <use transform="translate(471.317915 0)scale(0.996264)" xlink:href="#CMMI12-110"/>
     <use transform="translate(529.547963 0)scale(0.996264)" xlink:href="#CMMI12-103"/>
     <use transform="translate(611.062565 0)scale(0.996264)" xlink:href="#CMMI12-66"/>
     <use transform="translate(690.198088 0)scale(0.996264)" xlink:href="#CMMI12-101"/>
     <use transform="translate(735.410089 0)scale(0.996264)" xlink:href="#CMMI12-110"/>
     <use transform="translate(793.640137 0)scale(0.996264)" xlink:href="#CMMI12-99"/>
     <use transform="translate(835.62337 0)scale(0.996264)" xlink:href="#CMMI12-104"/>
     <use transform="translate(891.777994 0)scale(0.996264)" xlink:href="#CMMI12-109"/>
     <use transform="translate(977.105219 0)scale(0.996264)" xlink:href="#CMMI12-97"/>
     <use transform="translate(1028.313076 0)scale(0.996264)" xlink:href="#CMMI12-114"/>
     <use transform="translate(1074.983688 0)scale(0.996264)" xlink:href="#CMMI12-107"/>
     <use transform="translate(1160.292002 0)scale(0.996264)" xlink:href="#CMMI12-84"/>
     <use transform="translate(1231.015634 0)scale(0.996264)" xlink:href="#CMMI12-101"/>
     <use transform="translate(1276.227635 0)scale(0.996264)" xlink:href="#CMMI12-115"/>
     <use transform="translate(1322.177683 0)scale(0.996264)" xlink:href="#CMMI12-116"/>
    </g>
   </g>
   <g id="legend_1">
    <g id="patch_7">
     <path d="M 566.154245 490.665349 
L 697.404627 490.665349 
Q 700.604627 490.665349 700.604627 487.465349 
L 700.604627 466.765873 
Q 700.604627 463.565873 697.404627 463.565873 
L 566.154245 463.565873 
Q 562.954245 463.565873 562.954245 466.765873 
L 562.954245 487.465349 
Q 562.954245 490.665349 566.154245 490.665349 
z
" style="fill:#4c4c4c;opacity:0.5;stroke:#4c4c4c;stroke-linejoin:miter;"/>
    </g>
    <g id="patch_8">
     <path d="M 564.154245 488.665349 
L 695.404627 488.665349 
Q 698.604627 488.665349 698.604627 485.465349 
L 698.604627 464.765873 
Q 698.604627 461.565873 695.404627 461.565873 
L 564.154245 461.565873 
Q 560.954245 461.565873 560.954245 464.765873 
L 560.954245 485.465349 
Q 560.954245 488.665349 564.154245 488.665349 
z
" style="fill:#ffffff;stroke:#cccccc;stroke-linejoin:miter;"/>
    </g>
    <g id="line2d_31">
     <path d="M 567.354245 473.565873 
L 599.354245 473.565873 
" style="fill:none;stroke:#ff0000;stroke-linecap:square;stroke-width:2;"/>
    </g>
    <g id="line2d_32">
     <defs>
      <path d="M 0 5 
C 1.326016 5 2.597899 4.473168 3.535534 3.535534 
C 4.473168 2.597899 5 1.326016 5 0 
C 5 -1.326016 4.473168 -2.597899 3.535534 -3.535534 
C 2.597899 -4.473168 1.326016 -5 0 -5 
C -1.326016 -5 -2.597899 -4.473168 -3.535534 -3.535534 
C -4.473168 -2.597899 -5 -1.326016 -5 0 
C -5 1.326016 -4.473168 2.597899 -3.535534 3.535534 
C -2.597899 4.473168 -1.326016 5 0 5 
z
" id="m4fecd9cff4" style="stroke:#ff0000;"/>
     </defs>
     <g>
      <use style="fill:#ff0000;stroke:#ff0000;" x="583.354245" xlink:href="#m4fecd9cff4" y="473.565873"/>
     </g>
    </g>
    <g id="text_19">
     <!-- $DynELA\ T$ -->
     <defs>
      <path d="M 15.703125 7.375 
C 14.796875 3.890625 14.59375 2.890625 7.59375 2.890625 
C 5.703125 2.890625 4.703125 2.890625 4.703125 1.09375 
C 4.703125 0 5.296875 0 7.296875 0 
L 39 0 
C 59.203125 0 78.90625 20.8125 78.90625 43 
C 78.90625 57.328125 70.296875 68 56 68 
L 23.90625 68 
C 22 68 21.09375 68 21.09375 66.09375 
C 21.09375 65.09375 22 65.09375 23.5 65.09375 
C 29.59375 65.09375 29.59375 64.296875 29.59375 63.203125 
C 29.59375 63 29.59375 62.40625 29.203125 60.90625 
z
M 36.796875 61.203125 
C 37.703125 64.890625 38.09375 65.09375 42 65.09375 
L 53 65.09375 
C 62.40625 65.09375 71 60.015625 71 46.28125 
C 71 41.3125 69 23.984375 59.296875 13.046875 
C 56.5 9.765625 48.90625 2.890625 37.40625 2.890625 
L 26 2.890625 
C 24.59375 2.890625 24.40625 2.890625 23.796875 2.984375 
C 22.703125 3.09375 22.59375 3.296875 22.59375 4.09375 
C 22.59375 4.78125 22.796875 5.375 23 6.28125 
z
" id="CMMI12-68"/>
      <path d="M 26.296875 -10.515625 
C 23.59375 -14.390625 19.703125 -18 14.796875 -18 
C 13.59375 -18 8.796875 -17.796875 7.296875 -12.90625 
C 7.59375 -13.015625 8.09375 -13.015625 8.296875 -13.015625 
C 11.296875 -13.015625 13.296875 -10.40625 13.296875 -8.109375 
C 13.296875 -5.8125 11.40625 -5 9.90625 -5 
C 8.296875 -5 4.796875 -6.203125 4.796875 -11.109375 
C 4.796875 -16.40625 9.09375 -20 14.796875 -20 
C 24.796875 -20 34.90625 -10.515625 37.703125 -0.109375 
L 47.5 38.796875 
C 47.59375 39.296875 47.796875 39.890625 47.796875 40.484375 
C 47.796875 41.984375 46.59375 43 45.09375 43 
C 44.203125 43 42.09375 42.59375 41.296875 39.59375 
L 33.90625 10.265625 
C 33.40625 8.46875 33.40625 8.28125 32.59375 7.171875 
C 30.59375 4.390625 27.296875 1 22.5 1 
C 16.90625 1 16.40625 6.484375 16.40625 9.171875 
C 16.40625 14.859375 19.09375 22.546875 21.796875 29.71875 
C 22.90625 32.609375 23.5 34.015625 23.5 36.015625 
C 23.5 40.203125 20.5 44 15.59375 44 
C 6.40625 44 2.703125 29.53125 2.703125 28.71875 
C 2.703125 28.328125 3.09375 27.828125 3.796875 27.828125 
C 4.703125 27.828125 4.796875 28.234375 5.203125 29.625 
C 7.59375 38 11.40625 41.984375 15.296875 41.984375 
C 16.203125 41.984375 17.90625 41.984375 17.90625 38.703125 
C 17.90625 36.109375 16.796875 33.21875 15.296875 29.421875 
C 10.40625 16.359375 10.40625 13.0625 10.40625 10.671875 
C 10.40625 1.1875 17.203125 -1 22.203125 -1 
C 25.09375 -1 28.703125 -0.109375 32.203125 3.59375 
L 32.296875 3.484375 
C 30.796875 -2.203125 29.796875 -5.609375 26.296875 -10.515625 
z
" id="CMMI12-121"/>
      <path d="M 36.703125 60.3125 
C 37.59375 64.09375 37.90625 65.09375 46.703125 65.09375 
C 49.40625 65.09375 50.09375 65.09375 50.09375 66.984375 
C 50.09375 68 49 68 48.59375 68 
C 46.59375 68 44.296875 67.796875 42.296875 67.796875 
L 28.90625 67.796875 
C 27 67.796875 24.796875 68 22.90625 68 
C 22.09375 68 21 68 21 66.09375 
C 21 65.09375 21.90625 65.09375 23.40625 65.09375 
C 29.5 65.09375 29.5 64.296875 29.5 63.203125 
C 29.5 63 29.5 62.40625 29.09375 60.90625 
L 15.59375 7.375 
C 14.703125 3.890625 14.5 2.890625 7.5 2.890625 
C 5.59375 2.890625 4.59375 2.890625 4.59375 1.09375 
C 4.59375 0 5.203125 0 7.203125 0 
L 52 0 
C 54.203125 0 54.296875 0.09375 55 1.890625 
L 62.703125 23.09375 
C 62.90625 23.59375 63.09375 24.1875 63.09375 24.484375 
C 63.09375 25.078125 62.59375 25.484375 62.09375 25.484375 
C 62 25.484375 61.5 25.484375 61.296875 25.078125 
C 61.09375 24.984375 61.09375 24.78125 60.296875 22.890625 
C 57.09375 14.140625 52.59375 2.890625 35.703125 2.890625 
L 26.09375 2.890625 
C 24.703125 2.890625 24.5 2.890625 23.90625 2.984375 
C 22.796875 3.09375 22.703125 3.296875 22.703125 4.09375 
C 22.703125 4.78125 22.90625 5.375 23.09375 6.28125 
z
" id="CMMI12-76"/>
      <path d="M 17 11.25 
C 13.5 5.234375 10.09375 3.203125 5.296875 2.890625 
C 4.203125 2.796875 3.40625 2.796875 3.40625 1 
C 3.40625 0.390625 3.90625 0 4.59375 0 
C 6.40625 0 10.90625 0.1875 12.703125 0.1875 
C 15.59375 0.1875 18.796875 0 21.59375 0 
C 22.203125 0 23.40625 0 23.40625 1.890625 
C 23.40625 2.796875 22.59375 2.890625 22 2.890625 
C 19.703125 3.09375 17.796875 3.90625 17.796875 6.359375 
C 17.796875 7.78125 18.40625 8.90625 19.703125 11.15625 
L 27.296875 24 
L 52.796875 24 
C 52.90625 23.078125 52.90625 22.265625 53 21.34375 
C 53.296875 18.6875 54.5 8.09375 54.5 6.15625 
C 54.5 3.09375 49.40625 2.890625 47.796875 2.890625 
C 46.703125 2.890625 45.59375 2.890625 45.59375 1.09375 
C 45.59375 0 46.5 0 47.09375 0 
C 48.796875 0 50.796875 0.1875 52.5 0.1875 
L 58.203125 0.1875 
C 64.296875 0.1875 68.703125 0 68.796875 0 
C 69.5 0 70.59375 0 70.59375 1.890625 
C 70.59375 2.890625 69.703125 2.890625 68.203125 2.890625 
C 62.703125 2.890625 62.59375 3.8125 62.296875 6.875 
L 56.203125 68.796875 
C 56 70.796875 55.59375 71 54.5 71 
C 53.5 71 52.90625 70.796875 52 69.296875 
z
M 29 26.890625 
L 49.09375 59.859375 
L 52.5 26.890625 
z
" id="CMMI12-65"/>
     </defs>
     <g transform="translate(612.154245 479.165873)scale(0.16 -0.16)">
      <use transform="scale(0.996264)" xlink:href="#CMMI12-68"/>
      <use transform="translate(83.703948 0)scale(0.996264)" xlink:href="#CMMI12-121"/>
      <use transform="translate(134.842728 0)scale(0.996264)" xlink:href="#CMMI12-110"/>
      <use transform="translate(193.072776 0)scale(0.996264)" xlink:href="#CMMI12-69"/>
      <use transform="translate(271.124412 0)scale(0.996264)" xlink:href="#CMMI12-76"/>
      <use transform="translate(337.495287 0)scale(0.996264)" xlink:href="#CMMI12-65"/>
      <use transform="translate(441.852285 0)scale(0.996264)" xlink:href="#CMMI12-84"/>
     </g>
    </g>
   </g>
   <g id="line2d_33">
    <path clip-path="url(#pabb54eb7d6)" d="M 83.952718 475.824949 
L 94.650152 475.727676 
L 96.436348 475.41325 
L 98.807613 475.377367 
L 102.966574 475.30949 
L 116.023494 473.915335 
L 126.707731 472.778851 
L 137.978509 471.660509 
L 158.169983 469.467291 
L 175.376694 467.369483 
L 190.825096 465.277462 
L 203.863419 463.300121 
L 215.137628 461.37354 
L 224.633668 459.541786 
L 233.546488 457.596453 
L 241.267065 455.689048 
L 248.39435 453.705427 
L 254.925006 451.668597 
L 261.462968 449.394212 
L 267.973484 446.879993 
L 274.522891 444.097336 
L 281.042619 441.077521 
L 288.173768 437.482832 
L 295.273374 433.65766 
L 302.408049 429.567503 
L 310.118114 424.875365 
L 317.828298 419.906274 
L 325.572209 414.640975 
L 333.282061 409.127933 
L 340.99158 403.346657 
L 348.700701 397.296482 
L 356.409395 390.976888 
L 364.151443 384.356773 
L 371.859217 377.490121 
L 379.566528 370.346111 
L 387.881781 362.321166 
L 396.196488 353.962752 
L 404.510656 345.265515 
L 412.824277 336.224711 
L 421.13737 326.837762 
L 429.416136 317.144363 
L 437.728172 307.069742 
L 446.647824 295.88841 
L 455.533096 284.392971 
L 465.628205 270.950248 
L 477.515336 254.720726 
L 511.949669 207.411366 
L 520.849567 195.702465 
L 529.144479 185.14424 
L 536.874678 175.658152 
L 544.589397 166.556639 
L 552.293414 157.824901 
L 560.018123 149.408636 
L 567.742559 141.316075 
L 575.448095 133.565509 
L 582.570061 126.716887 
L 589.703471 120.193333 
L 596.820042 113.994033 
L 603.931804 108.074285 
L 611.652839 101.935212 
L 619.360192 96.078375 
L 627.673949 90.037919 
L 636.580507 83.860778 
L 645.496895 77.953773 
L 654.393077 72.313819 
L 662.116082 67.603843 
L 675.164216 60.023833 
L 676.954536 59.016949 
L 676.954536 59.016949 
" style="fill:none;stroke:#ff0000;stroke-linecap:square;stroke-width:2;"/>
    <g clip-path="url(#pabb54eb7d6)">
     <use style="fill:#ff0000;stroke:#ff0000;" x="83.952718" xlink:href="#m4fecd9cff4" y="475.824949"/>
     <use style="fill:#ff0000;stroke:#ff0000;" x="123.731432" xlink:href="#m4fecd9cff4" y="473.081135"/>
     <use style="fill:#ff0000;stroke:#ff0000;" x="163.512949" xlink:href="#m4fecd9cff4" y="468.838729"/>
     <use style="fill:#ff0000;stroke:#ff0000;" x="203.263852" xlink:href="#m4fecd9cff4" y="463.396328"/>
     <use style="fill:#ff0000;stroke:#ff0000;" x="243.047929" xlink:href="#m4fecd9cff4" y="455.214957"/>
     <use style="fill:#ff0000;stroke:#ff0000;" x="282.833586" xlink:href="#m4fecd9cff4" y="440.19651"/>
     <use style="fill:#ff0000;stroke:#ff0000;" x="322.596408" xlink:href="#m4fecd9cff4" y="416.696586"/>
     <use style="fill:#ff0000;stroke:#ff0000;" x="362.359657" xlink:href="#m4fecd9cff4" y="385.913299"/>
     <use style="fill:#ff0000;stroke:#ff0000;" x="402.111094" xlink:href="#m4fecd9cff4" y="347.810775"/>
     <use style="fill:#ff0000;stroke:#ff0000;" x="441.883994" xlink:href="#m4fecd9cff4" y="301.906754"/>
     <use style="fill:#ff0000;stroke:#ff0000;" x="481.65959" xlink:href="#m4fecd9cff4" y="248.99621"/>
     <use style="fill:#ff0000;stroke:#ff0000;" x="521.423717" xlink:href="#m4fecd9cff4" y="194.960108"/>
     <use style="fill:#ff0000;stroke:#ff0000;" x="561.214817" xlink:href="#m4fecd9cff4" y="148.133764"/>
     <use style="fill:#ff0000;stroke:#ff0000;" x="600.96775" xlink:href="#m4fecd9cff4" y="110.508808"/>
     <use style="fill:#ff0000;stroke:#ff0000;" x="640.742645" xlink:href="#m4fecd9cff4" y="81.067314"/>
    </g>
   </g>
  </g>
 </g>
 <defs>
  <clipPath id="pabb54eb7d6">
   <rect height="458.4888" width="652.302" x="54.302627" y="38.176549"/>
  </clipPath>
 </defs>
</svg>
