<?xml version="1.0" encoding="utf-8" standalone="no"?>
<!DOCTYPE svg PUBLIC "-//W3C//DTD SVG 1.1//EN"
  "http://www.w3.org/Graphics/SVG/1.1/DTD/svg11.dtd">
<!-- Created with matplotlib (https://matplotlib.org/) -->
<svg height="541.725079pt" version="1.1" viewBox="0 0 712.230578 541.725079" width="712.230578pt" xmlns="http://www.w3.org/2000/svg" xmlns:xlink="http://www.w3.org/1999/xlink">
 <defs>
  <style type="text/css">
*{stroke-linecap:butt;stroke-linejoin:round;}
  </style>
 </defs>
 <g id="figure_1">
  <g id="patch_1">
   <path d="M 0 541.725079 
L 712.230578 541.725079 
L 712.230578 -0 
L 0 -0 
z
" style="fill:#ffffff;"/>
  </g>
  <g id="axes_1">
   <g id="patch_2">
    <path d="M 59.928578 496.665349 
L 712.230578 496.665349 
L 712.230578 38.176549 
L 59.928578 38.176549 
z
" style="fill:#ffffff;"/>
   </g>
   <g id="matplotlib.axis_1">
    <g id="xtick_1">
     <g id="line2d_1">
      <path clip-path="url(#p243c1a337e)" d="M 89.578669 496.665349 
L 89.578669 38.176549 
" style="fill:none;stroke:#b0b0b0;stroke-linecap:square;stroke-width:0.8;"/>
     </g>
     <g id="line2d_2">
      <defs>
       <path d="M 0 0 
L 0 3.5 
" id="mb4d841d750" style="stroke:#000000;stroke-width:0.8;"/>
      </defs>
      <g>
       <use style="stroke:#000000;stroke-width:0.8;" x="89.578669" xlink:href="#mb4d841d750" y="496.665349"/>
      </g>
     </g>
     <g id="text_1">
      <!-- $0$ -->
      <defs>
       <path d="M 42 31.84375 
C 42 37.96875 41.90625 48.421875 37.703125 56.453125 
C 34 63.484375 28.09375 66 22.90625 66 
C 18.09375 66 12 63.78125 8.203125 56.5625 
C 4.203125 49.015625 3.796875 39.671875 3.796875 31.84375 
C 3.796875 26.109375 3.90625 17.375 7 9.734375 
C 11.296875 -0.609375 19 -2 22.90625 -2 
C 27.5 -2 34.5 -0.109375 38.59375 9.4375 
C 41.59375 16.375 42 24.5 42 31.84375 
z
M 22.90625 -0.40625 
C 16.5 -0.40625 12.703125 5.125 11.296875 12.75 
C 10.203125 18.6875 10.203125 27.328125 10.203125 32.953125 
C 10.203125 40.6875 10.203125 47.109375 11.5 53.234375 
C 13.40625 61.78125 19 64.390625 22.90625 64.390625 
C 27 64.390625 32.296875 61.671875 34.203125 53.4375 
C 35.5 47.71875 35.59375 40.984375 35.59375 32.953125 
C 35.59375 26.421875 35.59375 18.375 34.40625 12.453125 
C 32.296875 1.5 26.40625 -0.40625 22.90625 -0.40625 
z
" id="CMR17-48"/>
      </defs>
      <g transform="translate(85.676676 514.734937)scale(0.16 -0.16)">
       <use transform="scale(0.996264)" xlink:href="#CMR17-48"/>
      </g>
     </g>
    </g>
    <g id="xtick_2">
     <g id="line2d_3">
      <path clip-path="url(#p243c1a337e)" d="M 208.179033 496.665349 
L 208.179033 38.176549 
" style="fill:none;stroke:#b0b0b0;stroke-linecap:square;stroke-width:0.8;"/>
     </g>
     <g id="line2d_4">
      <g>
       <use style="stroke:#000000;stroke-width:0.8;" x="208.179033" xlink:href="#mb4d841d750" y="496.665349"/>
      </g>
     </g>
     <g id="text_2">
      <!-- $2$ -->
      <defs>
       <path d="M 41.703125 15.46875 
L 39.90625 15.46875 
C 38.90625 8.390625 38.09375 7.1875 37.703125 6.59375 
C 37.203125 5.796875 30 5.796875 28.59375 5.796875 
L 9.40625 5.796875 
C 13 9.6875 20 16.765625 28.5 24.9375 
C 34.59375 30.71875 41.703125 37.5 41.703125 47.390625 
C 41.703125 59.1875 32.296875 66 21.796875 66 
C 10.796875 66 4.09375 56.296875 4.09375 47.296875 
C 4.09375 43.390625 7 42.890625 8.203125 42.890625 
C 9.203125 42.890625 12.203125 43.484375 12.203125 46.984375 
C 12.203125 50.09375 9.59375 51 8.203125 51 
C 7.59375 51 7 50.890625 6.59375 50.6875 
C 8.5 59.1875 14.296875 63.390625 20.40625 63.390625 
C 29.09375 63.390625 34.796875 56.5 34.796875 47.390625 
C 34.796875 38.703125 29.703125 31.21875 24 24.734375 
L 4.09375 2.296875 
L 4.09375 0 
L 39.296875 0 
z
" id="CMR17-50"/>
      </defs>
      <g transform="translate(204.277039 514.734937)scale(0.16 -0.16)">
       <use transform="scale(0.996264)" xlink:href="#CMR17-50"/>
      </g>
     </g>
    </g>
    <g id="xtick_3">
     <g id="line2d_5">
      <path clip-path="url(#p243c1a337e)" d="M 326.779397 496.665349 
L 326.779397 38.176549 
" style="fill:none;stroke:#b0b0b0;stroke-linecap:square;stroke-width:0.8;"/>
     </g>
     <g id="line2d_6">
      <g>
       <use style="stroke:#000000;stroke-width:0.8;" x="326.779397" xlink:href="#mb4d841d750" y="496.665349"/>
      </g>
     </g>
     <g id="text_3">
      <!-- $4$ -->
      <defs>
       <path d="M 33.59375 64.796875 
C 33.59375 66.890625 33.5 67 31.703125 67 
L 2 19.59375 
L 2 17 
L 27.796875 17 
L 27.796875 7.1875 
C 27.796875 3.59375 27.59375 2.59375 20.59375 2.59375 
L 18.703125 2.59375 
L 18.703125 0 
C 21.90625 0.1875 27.296875 0.1875 30.703125 0.1875 
C 34.09375 0.1875 39.5 0.1875 42.703125 0 
L 42.703125 2.59375 
L 40.796875 2.59375 
C 33.796875 2.59375 33.59375 3.59375 33.59375 7.1875 
L 33.59375 17 
L 43.796875 17 
L 43.796875 19.59375 
L 33.59375 19.59375 
z
M 28.09375 58.171875 
L 28.09375 19.59375 
L 4 19.59375 
z
" id="CMR17-52"/>
      </defs>
      <g transform="translate(322.877403 514.734937)scale(0.16 -0.16)">
       <use transform="scale(0.996264)" xlink:href="#CMR17-52"/>
      </g>
     </g>
    </g>
    <g id="xtick_4">
     <g id="line2d_7">
      <path clip-path="url(#p243c1a337e)" d="M 445.37976 496.665349 
L 445.37976 38.176549 
" style="fill:none;stroke:#b0b0b0;stroke-linecap:square;stroke-width:0.8;"/>
     </g>
     <g id="line2d_8">
      <g>
       <use style="stroke:#000000;stroke-width:0.8;" x="445.37976" xlink:href="#mb4d841d750" y="496.665349"/>
      </g>
     </g>
     <g id="text_4">
      <!-- $6$ -->
      <defs>
       <path d="M 10.59375 34.34375 
C 10.59375 58 21.796875 63.6875 28.296875 63.6875 
C 30.40625 63.6875 35.5 63.265625 37.5 59.09375 
C 35.90625 59.09375 32.90625 59.09375 32.90625 55.59375 
C 32.90625 52.890625 35.09375 52 36.5 52 
C 37.40625 52 40.09375 52.390625 40.09375 55.796875 
C 40.09375 62.296875 35.09375 66 28.203125 66 
C 16.296875 66 3.796875 53.296875 3.796875 31.421875 
C 3.796875 4.015625 15.09375 -2 23.09375 -2 
C 32.796875 -2 42 6.734375 42 20.234375 
C 42 32.828125 33.90625 42 23.703125 42 
C 17.59375 42 13.09375 37.96875 10.59375 30.921875 
z
M 23.09375 0.390625 
C 10.796875 0.390625 10.796875 18.9375 10.796875 22.65625 
C 10.796875 29.90625 14.203125 40.390625 23.5 40.390625 
C 25.203125 40.390625 30.09375 40.390625 33.40625 33.4375 
C 35.203125 29.515625 35.203125 25.375 35.203125 20.34375 
C 35.203125 14.90625 35.203125 10.875 33.09375 6.84375 
C 30.90625 2.703125 27.703125 0.390625 23.09375 0.390625 
z
" id="CMR17-54"/>
      </defs>
      <g transform="translate(441.477767 514.734937)scale(0.16 -0.16)">
       <use transform="scale(0.996264)" xlink:href="#CMR17-54"/>
      </g>
     </g>
    </g>
    <g id="xtick_5">
     <g id="line2d_9">
      <path clip-path="url(#p243c1a337e)" d="M 563.980124 496.665349 
L 563.980124 38.176549 
" style="fill:none;stroke:#b0b0b0;stroke-linecap:square;stroke-width:0.8;"/>
     </g>
     <g id="line2d_10">
      <g>
       <use style="stroke:#000000;stroke-width:0.8;" x="563.980124" xlink:href="#mb4d841d750" y="496.665349"/>
      </g>
     </g>
     <g id="text_5">
      <!-- $8$ -->
      <defs>
       <path d="M 27.203125 35.765625 
C 33.5 38.96875 39.90625 43.796875 39.90625 51.53125 
C 39.90625 60.6875 31.09375 66 23 66 
C 13.90625 66 5.90625 59.375 5.90625 50.234375 
C 5.90625 47.71875 6.5 43.390625 10.40625 39.578125 
C 11.40625 38.578125 15.59375 35.5625 18.296875 33.65625 
C 13.796875 31.34375 3.296875 25.8125 3.296875 14.765625 
C 3.296875 4.40625 13.09375 -2 22.796875 -2 
C 33.5 -2 42.5 5.71875 42.5 15.96875 
C 42.5 25.109375 36.40625 29.328125 32.40625 32.046875 
z
M 14.09375 44.609375 
C 13.296875 45.109375 9.296875 48.21875 9.296875 52.9375 
C 9.296875 59.078125 15.59375 63.6875 22.796875 63.6875 
C 30.703125 63.6875 36.5 58.0625 36.5 51.53125 
C 36.5 42.1875 26.09375 36.859375 25.59375 36.859375 
C 25.5 36.859375 25.40625 36.859375 24.59375 37.46875 
z
M 32.5 24 
C 34 22.90625 38.796875 19.578125 38.796875 13.453125 
C 38.796875 6.015625 31.40625 0.390625 23 0.390625 
C 13.90625 0.390625 7 6.921875 7 14.859375 
C 7 22.796875 13.09375 29.4375 20 32.546875 
z
" id="CMR17-56"/>
      </defs>
      <g transform="translate(560.07813 514.734937)scale(0.16 -0.16)">
       <use transform="scale(0.996264)" xlink:href="#CMR17-56"/>
      </g>
     </g>
    </g>
    <g id="xtick_6">
     <g id="line2d_11">
      <path clip-path="url(#p243c1a337e)" d="M 682.580487 496.665349 
L 682.580487 38.176549 
" style="fill:none;stroke:#b0b0b0;stroke-linecap:square;stroke-width:0.8;"/>
     </g>
     <g id="line2d_12">
      <g>
       <use style="stroke:#000000;stroke-width:0.8;" x="682.580487" xlink:href="#mb4d841d750" y="496.665349"/>
      </g>
     </g>
     <g id="text_6">
      <!-- $10$ -->
      <defs>
       <path d="M 26.59375 63.796875 
C 26.59375 65.890625 26.5 66 25.09375 66 
C 21.203125 61.359375 15.296875 59.890625 9.703125 59.6875 
C 9.40625 59.6875 8.90625 59.6875 8.796875 59.5 
C 8.703125 59.296875 8.703125 59.09375 8.703125 57 
C 11.796875 57 17 57.59375 21 59.984375 
L 21 7.296875 
C 21 3.796875 20.796875 2.59375 12.203125 2.59375 
L 9.203125 2.59375 
L 9.203125 0 
C 14 0.09375 19 0.1875 23.796875 0.1875 
C 28.59375 0.1875 33.59375 0.09375 38.40625 0 
L 38.40625 2.59375 
L 35.40625 2.59375 
C 26.796875 2.59375 26.59375 3.6875 26.59375 7.296875 
z
" id="CMR17-49"/>
      </defs>
      <g transform="translate(674.7765 514.734937)scale(0.16 -0.16)">
       <use transform="scale(0.996264)" xlink:href="#CMR17-49"/>
       <use transform="translate(45.690477 0)scale(0.996264)" xlink:href="#CMR17-48"/>
      </g>
     </g>
    </g>
    <g id="text_7">
     <!-- $Horizontal\ displacement\ along\ x\ axis\ (mm)$ -->
     <defs>
      <path d="M 74.796875 60.71875 
C 75.703125 64.09375 75.90625 65.09375 83 65.09375 
C 84.796875 65.09375 85.796875 65.09375 85.796875 66.890625 
C 85.796875 68 84.90625 68 84.296875 68 
C 82.5 68 80.40625 67.796875 78.5 67.796875 
L 66.703125 67.796875 
C 64.796875 67.796875 62.703125 68 60.796875 68 
C 60.09375 68 58.90625 68 58.90625 66.09375 
C 58.90625 65.09375 59.59375 65.09375 61.5 65.09375 
C 67.5 65.09375 67.5 64.296875 67.5 63.203125 
C 67.5 63 67.5 62.40625 67.09375 60.921875 
L 61 36.890625 
L 30.796875 36.890625 
L 36.796875 60.71875 
C 37.703125 64.09375 37.90625 65.09375 45 65.09375 
C 46.796875 65.09375 47.796875 65.09375 47.796875 66.890625 
C 47.796875 68 46.90625 68 46.296875 68 
C 44.5 68 42.40625 67.796875 40.5 67.796875 
L 28.703125 67.796875 
C 26.796875 67.796875 24.703125 68 22.796875 68 
C 22.09375 68 20.90625 68 20.90625 66.09375 
C 20.90625 65.09375 21.59375 65.09375 23.5 65.09375 
C 29.5 65.09375 29.5 64.296875 29.5 63.203125 
C 29.5 63 29.5 62.40625 29.09375 60.921875 
L 15.59375 7.375 
C 14.703125 3.890625 14.5 2.890625 7.59375 2.890625 
C 5.296875 2.890625 4.59375 2.890625 4.59375 1 
C 4.59375 0 5.703125 0 6 0 
C 7.796875 0 9.90625 0.1875 11.796875 0.1875 
L 23.59375 0.1875 
C 25.5 0.1875 27.59375 0 29.5 0 
C 30.296875 0 31.40625 0 31.40625 1.890625 
C 31.40625 2.890625 30.5 2.890625 29 2.890625 
C 22.90625 2.890625 22.90625 3.6875 22.90625 4.6875 
C 22.90625 4.78125 22.90625 5.484375 23.09375 6.28125 
L 30 34 
L 60.296875 34 
C 58.59375 27.421875 53.5 6.578125 53.296875 5.984375 
C 52.203125 2.984375 50.59375 2.984375 44.703125 2.890625 
C 43.5 2.890625 42.59375 2.890625 42.59375 1 
C 42.59375 0 43.703125 0 44 0 
C 45.796875 0 47.90625 0.1875 49.796875 0.1875 
L 61.59375 0.1875 
C 63.5 0.1875 65.59375 0 67.5 0 
C 68.296875 0 69.40625 0 69.40625 1.890625 
C 69.40625 2.890625 68.5 2.890625 67 2.890625 
C 60.90625 2.890625 60.90625 3.6875 60.90625 4.6875 
C 60.90625 4.78125 60.90625 5.484375 61.09375 6.28125 
z
" id="CMMI12-72"/>
      <path d="M 45.59375 27.421875 
C 45.59375 36.90625 39.40625 44 30.296875 44 
C 17.09375 44 4.09375 29.625 4.09375 15.5625 
C 4.09375 6.078125 10.296875 -1 19.40625 -1 
C 32.703125 -1 45.59375 13.359375 45.59375 27.421875 
z
M 19.5 1 
C 14.5 1 10.796875 4.984375 10.796875 11.96875 
C 10.796875 16.5625 13.203125 26.734375 16 31.71875 
C 20.5 39.40625 26.09375 41.984375 30.203125 41.984375 
C 35.09375 41.984375 38.90625 38 38.90625 31.015625 
C 38.90625 27.03125 36.796875 16.359375 33 10.265625 
C 28.90625 3.59375 23.40625 1 19.5 1 
z
" id="CMMI12-111"/>
      <path d="M 38.90625 41.140625 
C 35.796875 40.59375 34.203125 38.390625 34.203125 36.1875 
C 34.203125 33.796875 36.09375 32.984375 37.5 32.984375 
C 40.296875 32.984375 42.59375 35.390625 42.59375 38.390625 
C 42.59375 41.421875 39.5 44 34.5 44 
C 30.5 44 25.90625 42.1875 21.703125 36.484375 
C 21 41.5625 17 44 13 44 
C 9.09375 44 7.09375 41.28125 5.90625 39.1875 
C 4.203125 35.59375 2.703125 29.5625 2.703125 29.0625 
C 2.703125 28.65625 3.09375 28.140625 3.796875 28.140625 
C 4.59375 28.140625 4.703125 28.25 5.296875 30.578125 
C 6.796875 36.59375 8.703125 41.984375 12.703125 41.984375 
C 15.09375 41.984375 15.796875 40.6875 15.796875 37.796875 
C 15.796875 35.59375 14.796875 31.6875 14.09375 28.546875 
L 11.296875 17.65625 
C 10.90625 15.734375 9.796875 11.1875 9.296875 9.375 
C 8.59375 6.75 7.5 2 7.5 1.5 
C 7.5 0.09375 8.59375 -1 10.09375 -1 
C 11.203125 -1 13.09375 -0.3125 13.703125 1.703125 
C 14 2.5 17.703125 17.75 18.296875 20.078125 
C 18.796875 22.296875 19.40625 24.40625 19.90625 26.640625 
C 20.296875 28.046875 20.703125 29.65625 21 30.96875 
C 21.296875 31.875 24 36.796875 26.5 38.984375 
C 27.703125 40.09375 30.296875 41.984375 34.40625 41.984375 
C 36 41.984375 37.59375 41.78125 38.90625 41.140625 
z
" id="CMMI12-114"/>
      <path d="M 28.296875 14.265625 
C 28.296875 14.765625 27.90625 15.15625 27.296875 15.15625 
C 26.40625 15.15625 26.296875 14.859375 25.796875 13.15625 
C 23.203125 4.078125 19.09375 1 15.796875 1 
C 14.59375 1 13.203125 1.296875 13.203125 4.28125 
C 13.203125 6.984375 14.40625 9.96875 15.5 12.96875 
L 22.5 31.515625 
C 22.796875 32.3125 23.5 34.109375 23.5 36.015625 
C 23.5 40.203125 20.5 44 15.59375 44 
C 6.40625 44 2.703125 29.53125 2.703125 28.71875 
C 2.703125 28.328125 3.09375 27.828125 3.796875 27.828125 
C 4.703125 27.828125 4.796875 28.234375 5.203125 29.625 
C 7.59375 38 11.40625 41.984375 15.296875 41.984375 
C 16.203125 41.984375 17.90625 41.890625 17.90625 38.703125 
C 17.90625 36.109375 16.59375 32.8125 15.796875 30.625 
L 8.796875 12.0625 
C 8.203125 10.46875 7.59375 8.875 7.59375 7.078125 
C 7.59375 2.59375 10.703125 -1 15.5 -1 
C 24.703125 -1 28.296875 13.5625 28.296875 14.265625 
z
M 27.5 62.6875 
C 27.5 64.1875 26.296875 66 24.09375 66 
C 21.796875 66 19.203125 63.796875 19.203125 61.1875 
C 19.203125 58.6875 21.296875 57.890625 22.5 57.890625 
C 25.203125 57.890625 27.5 60.484375 27.5 62.6875 
z
" id="CMMI12-105"/>
      <path d="M 12.703125 7.59375 
C 17 12.640625 20.5 15.859375 25.5 20.515625 
C 31.5 25.890625 34.09375 28.46875 35.5 30.03125 
C 42.5 37.046875 46 42.390625 46 43.1875 
C 46 44 45.203125 44 45 44 
C 44.296875 44 44.09375 43.59375 43.59375 42.890625 
C 41.09375 38.59375 38.703125 37 36.09375 37 
C 34 37 32.90625 37.546875 31 39.796875 
C 28.90625 42.296875 27.203125 44 24.296875 44 
C 17 44 12.59375 35.390625 12.59375 33.234375 
C 12.59375 32.921875 12.703125 32.296875 13.59375 32.296875 
C 14.40625 32.296875 14.5 32.71875 14.796875 33.4375 
C 16.5 37.296875 21.296875 37.734375 23.203125 37.734375 
C 25.296875 37.734375 27.296875 37.296875 29.40625 36.59375 
C 33.203125 34.984375 34.796875 34.984375 35.796875 34.984375 
C 36.5 34.984375 36.90625 34.984375 37.40625 35.09375 
C 34.09375 31.0625 28.703125 26.09375 24.203125 21.859375 
L 14.09375 12.234375 
C 8 5.9375 4.296875 0.5 4.296875 -0.203125 
C 4.296875 -0.8125 4.796875 -1 5.40625 -1 
C 6 -1 6.09375 -0.90625 6.796875 0.296875 
C 8.40625 2.796875 11.59375 6 15.296875 6 
C 17.40625 6 18.40625 5.5625 20.40625 3.296875 
C 22.296875 1.09375 24 -1 27.203125 -1 
C 37 -1 42.59375 11.296875 42.59375 13.6875 
C 42.59375 14.09375 42.5 14.71875 41.5 14.71875 
C 40.703125 14.71875 40.59375 14.296875 40.296875 13.265625 
C 38.09375 7.1875 32.203125 5.25 28.296875 5.25 
C 26.203125 5.25 24.203125 5.6875 22.09375 6.390625 
C 18.09375 8 17 8 15.703125 8 
C 14.703125 8 13.59375 8 12.703125 7.59375 
z
" id="CMMI12-122"/>
      <path d="M 20.59375 29.21875 
C 20.796875 29.828125 23.296875 34.8125 27 38 
C 29.59375 40.390625 33 41.984375 36.90625 41.984375 
C 40.90625 41.984375 42.296875 39 42.296875 35.015625 
C 42.296875 29.328125 38.203125 17.953125 36.203125 12.5625 
C 35.296875 10.171875 34.796875 8.875 34.796875 7.078125 
C 34.796875 2.59375 37.90625 -1 42.703125 -1 
C 52 -1 55.5 13.65625 55.5 14.265625 
C 55.5 14.765625 55.09375 15.15625 54.5 15.15625 
C 53.59375 15.15625 53.5 14.859375 53 13.15625 
C 50.703125 4.984375 46.90625 1 43 1 
C 42 1 40.40625 1.09375 40.40625 4.28125 
C 40.40625 6.78125 41.5 9.765625 42.09375 11.171875 
C 44.09375 16.65625 48.296875 27.828125 48.296875 33.515625 
C 48.296875 39.5 44.796875 44 37.203125 44 
C 28.296875 44 23.59375 37.703125 21.796875 35.203125 
C 21.5 40.890625 17.40625 44 13 44 
C 9.796875 44 7.59375 42.09375 5.90625 38.703125 
C 4.09375 35.109375 2.703125 29.125 2.703125 28.71875 
C 2.703125 28.328125 3.09375 27.828125 3.796875 27.828125 
C 4.59375 27.828125 4.703125 27.921875 5.296875 30.21875 
C 6.90625 36.3125 8.703125 41.984375 12.703125 41.984375 
C 15 41.984375 15.796875 40.390625 15.796875 37.40625 
C 15.796875 35.203125 14.796875 31.3125 14.09375 28.234375 
L 11.296875 17.453125 
C 10.90625 15.5625 9.796875 11.0625 9.296875 9.265625 
C 8.59375 6.671875 7.5 1.984375 7.5 1.484375 
C 7.5 0.09375 8.59375 -1 10.09375 -1 
C 11.296875 -1 12.703125 -0.40625 13.5 1.09375 
C 13.703125 1.59375 14.59375 5.078125 15.09375 7.078125 
L 17.296875 16.0625 
z
" id="CMMI12-110"/>
      <path d="M 20.09375 40.09375 
L 29.296875 40.09375 
C 31.203125 40.09375 32.203125 40.09375 32.203125 41.890625 
C 32.203125 43 31.59375 43 29.59375 43 
L 20.796875 43 
L 24.5 57.25 
C 24.90625 58.625 24.90625 58.8125 24.90625 59.5 
C 24.90625 61.09375 23.59375 62 22.296875 62 
C 21.5 62 19.203125 61.6875 18.40625 58.53125 
L 14.5 43 
L 5.09375 43 
C 3.09375 43 2.203125 43 2.203125 41.09375 
C 2.203125 40.09375 2.90625 40.09375 4.796875 40.09375 
L 13.703125 40.09375 
L 7.09375 13.765625 
C 6.296875 10.265625 6 9.265625 6 7.96875 
C 6 3.28125 9.296875 -1 14.90625 -1 
C 25 -1 30.40625 13.5625 30.40625 14.265625 
C 30.40625 14.859375 30 15.15625 29.40625 15.15625 
C 29.203125 15.15625 28.796875 15.15625 28.59375 14.75 
C 28.5 14.65625 28.40625 14.5625 27.703125 12.96875 
C 25.59375 7.96875 21 1 15.203125 1 
C 12.203125 1 12 3.484375 12 5.6875 
C 12 5.78125 12 7.671875 12.296875 8.875 
z
" id="CMMI12-116"/>
      <path d="M 30.09375 11.859375 
C 29.59375 10.171875 29.59375 9.96875 28.203125 8.078125 
C 26 5.28125 21.59375 1 16.90625 1 
C 12.796875 1 10.5 4.6875 10.5 10.5625 
C 10.5 16.0625 13.59375 27.234375 15.5 31.421875 
C 18.90625 38.40625 23.59375 41.984375 27.5 41.984375 
C 34.09375 41.984375 35.40625 33.8125 35.40625 33.015625 
C 35.40625 32.921875 35.09375 31.625 35 31.421875 
z
M 36.5 37.40625 
C 35.40625 40 32.703125 44 27.5 44 
C 16.203125 44 4 29.421875 4 14.65625 
C 4 4.78125 9.796875 -1 16.59375 -1 
C 22.09375 -1 26.796875 3.28125 29.59375 6.578125 
C 30.59375 0.6875 35.296875 -1 38.296875 -1 
C 41.296875 -1 43.703125 0.796875 45.5 4.375 
C 47.09375 7.75 48.5 13.828125 48.5 14.21875 
C 48.5 14.71875 48.09375 15.125 47.5 15.125 
C 46.59375 15.125 46.5 14.625 46.09375 13.125 
C 44.59375 7.265625 42.703125 1 38.59375 1 
C 35.703125 1 35.5 3.578125 35.5 5.5625 
C 35.5 7.859375 35.796875 8.953125 36.703125 12.828125 
C 37.40625 15.3125 37.90625 17.5 38.703125 20.390625 
C 42.40625 35.3125 43.296875 38.890625 43.296875 39.5 
C 43.296875 40.890625 42.203125 42 40.703125 42 
C 37.5 42 36.703125 38.5 36.5 37.3125 
z
" id="CMMI12-97"/>
      <path d="M 25.40625 66.484375 
C 25.5 66.890625 25.703125 67.484375 25.703125 67.984375 
C 25.703125 69 24.703125 69 24.5 69 
C 24.40625 69 20.796875 68.6875 19 68.484375 
C 17.296875 68.390625 15.796875 68.1875 14 68.09375 
C 11.59375 67.890625 10.90625 67.796875 10.90625 65.984375 
C 10.90625 64.984375 11.90625 64.984375 12.90625 64.984375 
C 18 64.984375 18 64.09375 18 63.109375 
C 18 62.703125 18 62.515625 17.5 60.71875 
L 5.09375 11.421875 
C 4.796875 10.328125 4.59375 9.53125 4.59375 7.953125 
C 4.59375 2.984375 8.296875 -1 13.40625 -1 
C 16.703125 -1 18.90625 1.1875 20.5 4.265625 
C 22.203125 7.546875 23.59375 13.8125 23.59375 14.203125 
C 23.59375 14.703125 23.203125 15.109375 22.59375 15.109375 
C 21.703125 15.109375 21.59375 14.609375 21.203125 13.109375 
C 19.40625 6.265625 17.59375 1 13.59375 1 
C 10.59375 1 10.59375 4.171875 10.59375 5.5625 
C 10.59375 5.96875 10.59375 8.046875 11.296875 10.828125 
z
" id="CMMI12-108"/>
      <path d="M 50.296875 66.484375 
C 50.40625 66.890625 50.59375 67.484375 50.59375 67.984375 
C 50.59375 69 49.59375 69 49.40625 69 
C 49.296875 69 44.40625 68.59375 43.90625 68.484375 
C 42.203125 68.390625 40.703125 68.1875 38.90625 68.09375 
C 36.40625 67.890625 35.703125 67.796875 35.703125 65.984375 
C 35.703125 64.984375 36.5 64.984375 37.90625 64.984375 
C 42.796875 64.984375 42.90625 64.109375 42.90625 63.125 
C 42.90625 62.53125 42.703125 61.734375 42.59375 61.4375 
L 36.5 37.40625 
C 35.40625 40 32.703125 44 27.5 44 
C 16.203125 44 4 29.421875 4 14.65625 
C 4 4.78125 9.796875 -1 16.59375 -1 
C 22.09375 -1 26.796875 3.28125 29.59375 6.578125 
C 30.59375 0.6875 35.296875 -1 38.296875 -1 
C 41.296875 -1 43.703125 0.796875 45.5 4.390625 
C 47.09375 7.78125 48.5 13.859375 48.5 14.265625 
C 48.5 14.765625 48.09375 15.15625 47.5 15.15625 
C 46.59375 15.15625 46.5 14.65625 46.09375 13.15625 
C 44.59375 7.28125 42.703125 1 38.59375 1 
C 35.703125 1 35.5 3.59375 35.5 5.578125 
C 35.5 5.984375 35.5 8.078125 36.203125 10.875 
z
M 30.09375 11.859375 
C 29.59375 10.171875 29.59375 9.96875 28.203125 8.078125 
C 26 5.28125 21.59375 1 16.90625 1 
C 12.796875 1 10.5 4.6875 10.5 10.5625 
C 10.5 16.0625 13.59375 27.234375 15.5 31.421875 
C 18.90625 38.40625 23.59375 41.984375 27.5 41.984375 
C 34.09375 41.984375 35.40625 33.8125 35.40625 33.015625 
C 35.40625 32.921875 35.09375 31.625 35 31.421875 
z
" id="CMMI12-100"/>
      <path d="M 22.796875 20.15625 
C 24.5 19.859375 27.203125 19.265625 27.796875 19.171875 
C 29.09375 18.765625 33.59375 17.171875 33.59375 12.390625 
C 33.59375 9.296875 30.796875 1 19.203125 1 
C 17.09375 1 9.59375 1.296875 7.59375 6.984375 
C 11.59375 6.46875 13.59375 9.59375 13.59375 11.796875 
C 13.59375 13.890625 12.203125 15 10.203125 15 
C 8 15 5.09375 13.296875 5.09375 8.796875 
C 5.09375 2.75 11.09375 -1 19.09375 -1 
C 34.296875 -1 38.796875 10.390625 38.796875 15.59375 
C 38.796875 17.078125 38.796875 19.859375 35.59375 23.046875 
C 33.09375 25.421875 30.703125 25.921875 25.296875 27.015625 
C 22.59375 27.609375 18.296875 28.5 18.296875 32.984375 
C 18.296875 34.984375 20.09375 41.984375 29.59375 41.984375 
C 33.796875 41.984375 37.90625 40.453125 38.90625 37 
C 34.5 37 34.296875 33.1875 34.296875 33.09375 
C 34.296875 30.984375 36.203125 30.390625 37.09375 30.390625 
C 38.5 30.390625 41.296875 31.484375 41.296875 35.6875 
C 41.296875 39.78125 37.5 44 29.703125 44 
C 16.59375 44 13.09375 33.890625 13.09375 29.796875 
C 13.09375 22.25 20.5 20.65625 22.796875 20.15625 
z
" id="CMMI12-115"/>
      <path d="M 4.296875 -12.40625 
C 3.59375 -15.328125 3.203125 -16.109375 -0.90625 -16.109375 
C -2.109375 -16.109375 -3.109375 -16.109375 -3.109375 -18 
C -3.109375 -18.203125 -3 -19 -1.90625 -19 
C -0.609375 -19 0.796875 -18.8125 2.09375 -18.8125 
L 6.40625 -18.8125 
C 8.5 -18.8125 13.59375 -19 15.703125 -19 
C 16.296875 -19 17.5 -19 17.5 -17.203125 
C 17.5 -16.109375 16.796875 -16.109375 15.09375 -16.109375 
C 10.5 -16.109375 10.203125 -15.421875 10.203125 -14.640625 
C 10.203125 -13.484375 14.703125 3.390625 15.296875 5.6875 
C 16.40625 2.890625 19.09375 -1 24.296875 -1 
C 35.59375 -1 47.796875 13.65625 47.796875 28.328125 
C 47.796875 37.5 42.59375 44 35.09375 44 
C 28.703125 44 23.296875 37.796875 22.203125 36.40625 
C 21.40625 41.390625 17.5 44 13.5 44 
C 10.59375 44 8.296875 42.59375 6.40625 38.796875 
C 4.59375 35.203125 3.203125 29.125 3.203125 28.71875 
C 3.203125 28.328125 3.59375 27.828125 4.296875 27.828125 
C 5.09375 27.828125 5.203125 27.921875 5.796875 30.21875 
C 7.296875 36.109375 9.203125 41.984375 13.203125 41.984375 
C 15.5 41.984375 16.296875 40.390625 16.296875 37.40625 
C 16.296875 35.015625 16 34.015625 15.59375 32.21875 
z
M 21.59375 31.125 
C 22.296875 33.90625 25.09375 36.8125 26.703125 38.203125 
C 27.796875 39.203125 31.09375 41.984375 34.90625 41.984375 
C 39.296875 41.984375 41.296875 37.609375 41.296875 32.421875 
C 41.296875 27.625 38.5 16.359375 36 11.171875 
C 33.5 5.78125 28.90625 1 24.296875 1 
C 17.5 1 16.40625 9.578125 16.40625 9.96875 
C 16.40625 10.265625 16.59375 11.0625 16.703125 11.5625 
z
" id="CMMI12-112"/>
      <path d="M 39.09375 38 
C 37.203125 38 36.296875 38 34.90625 36.796875 
C 34.296875 36.296875 33.203125 34.796875 33.203125 33.1875 
C 33.203125 31.1875 34.703125 29.984375 36.59375 29.984375 
C 39 29.984375 41.703125 31.984375 41.703125 35.984375 
C 41.703125 40.484375 37.09375 44 30.203125 44 
C 17.09375 44 4 30.1875 4 15.796875 
C 4 6.96875 9.40625 -1 19.59375 -1 
C 33.203125 -1 41.796875 9.71875 41.796875 11.03125 
C 41.796875 11.640625 41.203125 12.140625 40.796875 12.140625 
C 40.5 12.140625 40.40625 12.046875 39.5 11.125 
C 33.09375 2.515625 23.59375 1 19.796875 1 
C 12.90625 1 10.703125 7.078125 10.703125 12.140625 
C 10.703125 15.6875 12.40625 25.53125 16 32.390625 
C 18.59375 37.09375 24 41.984375 30.296875 41.984375 
C 31.59375 41.984375 37.09375 41.8125 39.09375 38 
z
" id="CMMI12-99"/>
      <path d="M 17.90625 23 
C 20.59375 23 27.40625 23.1875 32.203125 25 
C 39.796875 27.90625 40.5 33.75 40.5 35.546875 
C 40.5 39.984375 36.703125 44 30.09375 44 
C 19.59375 44 4.5 34.453125 4.5 16.65625 
C 4.5 6.25 10.5 -1 19.59375 -1 
C 33.203125 -1 41.796875 9.515625 41.796875 10.796875 
C 41.796875 11.390625 41.203125 11.890625 40.796875 11.890625 
C 40.5 11.890625 40.40625 11.796875 39.5 10.90625 
C 33.09375 2.484375 23.59375 1 19.796875 1 
C 14.09375 1 11.09375 5.453125 11.09375 12.78125 
C 11.09375 14.171875 11.09375 16.65625 12.59375 23 
z
M 13.09375 25 
C 17.40625 40.484375 26.90625 41.984375 30.09375 41.984375 
C 34.5 41.984375 37.5 39.375 37.5 35.546875 
C 37.5 25 21.5 25 17.296875 25 
z
" id="CMMI12-101"/>
      <path d="M 20.59375 29.21875 
C 20.796875 29.828125 23.296875 34.8125 27 38 
C 29.59375 40.390625 33 41.984375 36.90625 41.984375 
C 40.90625 41.984375 42.296875 39 42.296875 35.015625 
C 42.296875 34.40625 42.296875 32.421875 41.09375 27.734375 
L 38.59375 17.453125 
C 37.796875 14.453125 35.90625 7.078125 35.703125 5.984375 
C 35.296875 4.484375 34.703125 1.890625 34.703125 1.484375 
C 34.703125 0.09375 35.796875 -1 37.296875 -1 
C 40.296875 -1 40.796875 1.296875 41.703125 4.890625 
L 47.703125 28.71875 
C 47.90625 29.53125 53.09375 41.984375 64.09375 41.984375 
C 68.09375 41.984375 69.5 39 69.5 35.015625 
C 69.5 29.421875 65.59375 18.546875 63.40625 12.5625 
C 62.5 10.171875 62 8.875 62 7.078125 
C 62 2.59375 65.09375 -1 69.90625 -1 
C 79.203125 -1 82.703125 13.65625 82.703125 14.265625 
C 82.703125 14.765625 82.296875 15.15625 81.703125 15.15625 
C 80.796875 15.15625 80.703125 14.859375 80.203125 13.15625 
C 77.90625 5.1875 74.203125 1 70.203125 1 
C 69.203125 1 67.59375 1.09375 67.59375 4.28125 
C 67.59375 6.875 68.796875 10.078125 69.203125 11.171875 
C 71 15.953125 75.5 27.734375 75.5 33.515625 
C 75.5 39.5 72 44 64.40625 44 
C 57.703125 44 52.296875 40.203125 48.296875 34.3125 
C 48 39.703125 44.703125 44 37.203125 44 
C 28.296875 44 23.59375 37.703125 21.796875 35.203125 
C 21.5 40.890625 17.40625 44 13 44 
C 10.09375 44 7.796875 42.59375 5.90625 38.796875 
C 4.09375 35.203125 2.703125 29.125 2.703125 28.71875 
C 2.703125 28.328125 3.09375 27.828125 3.796875 27.828125 
C 4.59375 27.828125 4.703125 27.921875 5.296875 30.21875 
C 6.796875 36.109375 8.703125 41.984375 12.703125 41.984375 
C 15 41.984375 15.796875 40.390625 15.796875 37.40625 
C 15.796875 35.203125 14.796875 31.3125 14.09375 28.234375 
L 11.296875 17.453125 
C 10.90625 15.5625 9.796875 11.0625 9.296875 9.265625 
C 8.59375 6.671875 7.5 1.984375 7.5 1.484375 
C 7.5 0.09375 8.59375 -1 10.09375 -1 
C 11.296875 -1 12.703125 -0.40625 13.5 1.09375 
C 13.703125 1.59375 14.59375 5.078125 15.09375 7.078125 
L 17.296875 16.0625 
z
" id="CMMI12-109"/>
      <path d="M 33.796875 12.671875 
C 33.40625 11.0625 33.203125 10.671875 31.90625 9.171875 
C 27.796875 3.890625 23.59375 2 20.5 2 
C 17.203125 2 14.09375 4.578125 14.09375 11.46875 
C 14.09375 16.75 17.09375 27.921875 19.296875 32.421875 
C 22.203125 38 26.703125 41.984375 30.90625 41.984375 
C 37.5 41.984375 38.796875 33.8125 38.796875 33.21875 
L 38.5 31.8125 
z
M 40 37.40625 
C 38.703125 40.296875 35.90625 44 30.90625 44 
C 20 44 7.59375 30.328125 7.59375 15.453125 
C 7.59375 5.078125 13.90625 0 20.296875 0 
C 25.59375 0 30.296875 4.1875 32.09375 6.1875 
L 29.90625 -2.75 
C 28.5 -8.125 27.90625 -10.578125 24.296875 -14 
C 20.203125 -18 16.40625 -18 14.203125 -18 
C 11.203125 -18 8.703125 -17.8125 6.203125 -17.03125 
C 9.40625 -16.15625 10.203125 -13.40625 10.203125 -12.328125 
C 10.203125 -10.765625 9 -9.203125 6.796875 -9.203125 
C 4.40625 -9.203125 1.796875 -11.15625 1.796875 -14.390625 
C 1.796875 -18.40625 5.90625 -20 14.40625 -20 
C 27.296875 -20 34 -11.84375 35.296875 -6.5625 
L 46.40625 37.90625 
C 46.703125 39.09375 46.703125 39.296875 46.703125 39.5 
C 46.703125 40.890625 45.59375 42 44.09375 42 
C 41.703125 42 40.296875 40 40 37.3125 
z
" id="CMMI12-103"/>
      <path d="M 47.40625 41 
C 44.203125 40.390625 43 37.984375 43 36.09375 
C 43 33.6875 44.90625 32.890625 46.296875 32.890625 
C 49.296875 32.890625 51.40625 35.484375 51.40625 38.1875 
C 51.40625 42.09375 46.59375 44 42.40625 44 
C 36.296875 44 32.90625 38.296875 32 36.390625 
C 29.703125 43.59375 23.5 44 21.703125 44 
C 11.5 44 6.09375 31.140625 6.09375 28.890625 
C 6.09375 28.484375 6.5 27.96875 7.203125 27.96875 
C 8 27.96875 8.203125 28.578125 8.40625 28.984375 
C 11.796875 40.1875 18.5 41.984375 21.40625 41.984375 
C 25.90625 41.984375 26.796875 38.09375 26.796875 35.6875 
C 26.796875 33.484375 26.203125 31.140625 25 26.21875 
L 21.59375 12.15625 
C 20.09375 6.09375 17.203125 1 11.90625 1 
C 11.40625 1 8.90625 1 6.796875 1.96875 
C 10.40625 2.59375 11.203125 5.59375 11.203125 6.796875 
C 11.203125 8.796875 9.703125 10 7.796875 10 
C 5.40625 10 2.796875 7.890625 2.796875 4.6875 
C 2.796875 0.890625 7.5 -1 11.796875 -1 
C 16.59375 -1 20 2.390625 22.09375 6.484375 
C 23.703125 1 28.703125 -1 32.40625 -1 
C 42.59375 -1 48 11.734375 48 14 
C 48 14.515625 47.59375 14.921875 47 14.921875 
C 46.09375 14.921875 46 14.40625 45.703125 13.59375 
C 43 4.6875 37.203125 1 32.703125 1 
C 29.203125 1 27.296875 3.1875 27.296875 7.296875 
C 27.296875 9.484375 27.703125 11.125 29.296875 17.90625 
L 32.796875 31.859375 
C 34.296875 37.890625 37.703125 41.984375 42.296875 41.984375 
C 42.5 41.984375 45.296875 41.984375 47.40625 41 
z
" id="CMMI12-120"/>
      <path d="M 30.59375 -24.40625 
C 30.59375 -24.3125 30.59375 -24.109375 30.296875 -23.8125 
C 25.703125 -19.109375 13.40625 -6.296875 13.40625 24.9375 
C 13.40625 56.171875 25.5 68.875 30.40625 73.890625 
C 30.40625 73.984375 30.59375 74.1875 30.59375 74.484375 
C 30.59375 74.796875 30.296875 75 29.90625 75 
C 28.796875 75 20.296875 67.578125 15.40625 56.5625 
C 10.40625 45.453125 9 34.65625 9 25.046875 
C 9 17.828125 9.703125 5.625 15.703125 -7.296875 
C 20.5 -17.703125 28.703125 -25 29.90625 -25 
C 30.40625 -25 30.59375 -24.8125 30.59375 -24.40625 
z
" id="CMR17-40"/>
      <path d="M 26.296875 24.9375 
C 26.296875 32.140625 25.59375 44.359375 19.59375 57.265625 
C 14.796875 67.6875 6.59375 75 5.40625 75 
C 5.09375 75 4.703125 74.890625 4.703125 74.390625 
C 4.703125 74.1875 4.796875 74.09375 4.90625 73.890625 
C 9.703125 68.875 21.90625 56.171875 21.90625 25.046875 
C 21.90625 -6.1875 9.796875 -18.90625 4.90625 -23.90625 
C 4.796875 -24.109375 4.703125 -24.203125 4.703125 -24.40625 
C 4.703125 -24.90625 5.09375 -25 5.40625 -25 
C 6.5 -25 15 -17.609375 19.90625 -6.59375 
C 24.90625 4.515625 26.296875 15.328125 26.296875 24.9375 
z
" id="CMR17-41"/>
     </defs>
     <g transform="translate(192.38093 536.760435)scale(0.2 -0.2)">
      <use transform="scale(0.996264)" xlink:href="#CMMI12-72"/>
      <use transform="translate(88.521773 0)scale(0.996264)" xlink:href="#CMMI12-111"/>
      <use transform="translate(135.417082 0)scale(0.996264)" xlink:href="#CMMI12-114"/>
      <use transform="translate(182.087694 0)scale(0.996264)" xlink:href="#CMMI12-105"/>
      <use transform="translate(215.366296 0)scale(0.996264)" xlink:href="#CMMI12-122"/>
      <use transform="translate(265.121441 0)scale(0.996264)" xlink:href="#CMMI12-111"/>
      <use transform="translate(312.016751 0)scale(0.996264)" xlink:href="#CMMI12-110"/>
      <use transform="translate(370.246798 0)scale(0.996264)" xlink:href="#CMMI12-116"/>
      <use transform="translate(405.473128 0)scale(0.996264)" xlink:href="#CMMI12-97"/>
      <use transform="translate(456.680986 0)scale(0.996264)" xlink:href="#CMMI12-108"/>
      <use transform="translate(519.158502 0)scale(0.996264)" xlink:href="#CMMI12-100"/>
      <use transform="translate(569.847599 0)scale(0.996264)" xlink:href="#CMMI12-105"/>
      <use transform="translate(603.126201 0)scale(0.996264)" xlink:href="#CMMI12-115"/>
      <use transform="translate(649.076248 0)scale(0.996264)" xlink:href="#CMMI12-112"/>
      <use transform="translate(698.035762 0)scale(0.996264)" xlink:href="#CMMI12-108"/>
      <use transform="translate(729.284166 0)scale(0.996264)" xlink:href="#CMMI12-97"/>
      <use transform="translate(780.492024 0)scale(0.996264)" xlink:href="#CMMI12-99"/>
      <use transform="translate(822.475258 0)scale(0.996264)" xlink:href="#CMMI12-101"/>
      <use transform="translate(867.687259 0)scale(0.996264)" xlink:href="#CMMI12-109"/>
      <use transform="translate(953.014483 0)scale(0.996264)" xlink:href="#CMMI12-101"/>
      <use transform="translate(998.226484 0)scale(0.996264)" xlink:href="#CMMI12-110"/>
      <use transform="translate(1056.456531 0)scale(0.996264)" xlink:href="#CMMI12-116"/>
      <use transform="translate(1122.911974 0)scale(0.996264)" xlink:href="#CMMI12-97"/>
      <use transform="translate(1174.119832 0)scale(0.996264)" xlink:href="#CMMI12-108"/>
      <use transform="translate(1205.368236 0)scale(0.996264)" xlink:href="#CMMI12-111"/>
      <use transform="translate(1252.263545 0)scale(0.996264)" xlink:href="#CMMI12-110"/>
      <use transform="translate(1310.493593 0)scale(0.996264)" xlink:href="#CMMI12-103"/>
      <use transform="translate(1392.008195 0)scale(0.996264)" xlink:href="#CMMI12-120"/>
      <use transform="translate(1478.671367 0)scale(0.996264)" xlink:href="#CMMI12-97"/>
      <use transform="translate(1529.879225 0)scale(0.996264)" xlink:href="#CMMI12-120"/>
      <use transform="translate(1585.313284 0)scale(0.996264)" xlink:href="#CMMI12-105"/>
      <use transform="translate(1618.591886 0)scale(0.996264)" xlink:href="#CMMI12-115"/>
      <use transform="translate(1695.771047 0)scale(0.996264)" xlink:href="#CMR17-40"/>
      <use transform="translate(1731.051814 0)scale(0.996264)" xlink:href="#CMMI12-109"/>
      <use transform="translate(1816.379039 0)scale(0.996264)" xlink:href="#CMMI12-109"/>
      <use transform="translate(1901.706263 0)scale(0.996264)" xlink:href="#CMR17-41"/>
     </g>
    </g>
   </g>
   <g id="matplotlib.axis_2">
    <g id="ytick_1">
     <g id="line2d_13">
      <path clip-path="url(#p243c1a337e)" d="M 59.928578 475.824949 
L 712.230578 475.824949 
" style="fill:none;stroke:#b0b0b0;stroke-linecap:square;stroke-width:0.8;"/>
     </g>
     <g id="line2d_14">
      <defs>
       <path d="M 0 0 
L -3.5 0 
" id="m0cdde34126" style="stroke:#000000;stroke-width:0.8;"/>
      </defs>
      <g>
       <use style="stroke:#000000;stroke-width:0.8;" x="59.928578" xlink:href="#m0cdde34126" y="475.824949"/>
      </g>
     </g>
     <g id="text_8">
      <!-- $0$ -->
      <g transform="translate(45.124591 481.359743)scale(0.16 -0.16)">
       <use transform="scale(0.996264)" xlink:href="#CMR17-48"/>
      </g>
     </g>
    </g>
    <g id="ytick_2">
     <g id="line2d_15">
      <path clip-path="url(#p243c1a337e)" d="M 59.928578 420.133482 
L 712.230578 420.133482 
" style="fill:none;stroke:#b0b0b0;stroke-linecap:square;stroke-width:0.8;"/>
     </g>
     <g id="line2d_16">
      <g>
       <use style="stroke:#000000;stroke-width:0.8;" x="59.928578" xlink:href="#m0cdde34126" y="420.133482"/>
      </g>
     </g>
     <g id="text_9">
      <!-- $200$ -->
      <g transform="translate(29.516617 425.668276)scale(0.16 -0.16)">
       <use transform="scale(0.996264)" xlink:href="#CMR17-50"/>
       <use transform="translate(45.690477 0)scale(0.996264)" xlink:href="#CMR17-48"/>
       <use transform="translate(91.380954 0)scale(0.996264)" xlink:href="#CMR17-48"/>
      </g>
     </g>
    </g>
    <g id="ytick_3">
     <g id="line2d_17">
      <path clip-path="url(#p243c1a337e)" d="M 59.928578 364.442014 
L 712.230578 364.442014 
" style="fill:none;stroke:#b0b0b0;stroke-linecap:square;stroke-width:0.8;"/>
     </g>
     <g id="line2d_18">
      <g>
       <use style="stroke:#000000;stroke-width:0.8;" x="59.928578" xlink:href="#m0cdde34126" y="364.442014"/>
      </g>
     </g>
     <g id="text_10">
      <!-- $400$ -->
      <g transform="translate(29.516617 369.976809)scale(0.16 -0.16)">
       <use transform="scale(0.996264)" xlink:href="#CMR17-52"/>
       <use transform="translate(45.690477 0)scale(0.996264)" xlink:href="#CMR17-48"/>
       <use transform="translate(91.380954 0)scale(0.996264)" xlink:href="#CMR17-48"/>
      </g>
     </g>
    </g>
    <g id="ytick_4">
     <g id="line2d_19">
      <path clip-path="url(#p243c1a337e)" d="M 59.928578 308.750547 
L 712.230578 308.750547 
" style="fill:none;stroke:#b0b0b0;stroke-linecap:square;stroke-width:0.8;"/>
     </g>
     <g id="line2d_20">
      <g>
       <use style="stroke:#000000;stroke-width:0.8;" x="59.928578" xlink:href="#m0cdde34126" y="308.750547"/>
      </g>
     </g>
     <g id="text_11">
      <!-- $600$ -->
      <g transform="translate(29.516617 314.285341)scale(0.16 -0.16)">
       <use transform="scale(0.996264)" xlink:href="#CMR17-54"/>
       <use transform="translate(45.690477 0)scale(0.996264)" xlink:href="#CMR17-48"/>
       <use transform="translate(91.380954 0)scale(0.996264)" xlink:href="#CMR17-48"/>
      </g>
     </g>
    </g>
    <g id="ytick_5">
     <g id="line2d_21">
      <path clip-path="url(#p243c1a337e)" d="M 59.928578 253.05908 
L 712.230578 253.05908 
" style="fill:none;stroke:#b0b0b0;stroke-linecap:square;stroke-width:0.8;"/>
     </g>
     <g id="line2d_22">
      <g>
       <use style="stroke:#000000;stroke-width:0.8;" x="59.928578" xlink:href="#m0cdde34126" y="253.05908"/>
      </g>
     </g>
     <g id="text_12">
      <!-- $800$ -->
      <g transform="translate(29.516617 258.593874)scale(0.16 -0.16)">
       <use transform="scale(0.996264)" xlink:href="#CMR17-56"/>
       <use transform="translate(45.690477 0)scale(0.996264)" xlink:href="#CMR17-48"/>
       <use transform="translate(91.380954 0)scale(0.996264)" xlink:href="#CMR17-48"/>
      </g>
     </g>
    </g>
    <g id="ytick_6">
     <g id="line2d_23">
      <path clip-path="url(#p243c1a337e)" d="M 59.928578 197.367613 
L 712.230578 197.367613 
" style="fill:none;stroke:#b0b0b0;stroke-linecap:square;stroke-width:0.8;"/>
     </g>
     <g id="line2d_24">
      <g>
       <use style="stroke:#000000;stroke-width:0.8;" x="59.928578" xlink:href="#m0cdde34126" y="197.367613"/>
      </g>
     </g>
     <g id="text_13">
      <!-- $1000$ -->
      <g transform="translate(21.71263 202.902407)scale(0.16 -0.16)">
       <use transform="scale(0.996264)" xlink:href="#CMR17-49"/>
       <use transform="translate(45.690477 0)scale(0.996264)" xlink:href="#CMR17-48"/>
       <use transform="translate(91.380954 0)scale(0.996264)" xlink:href="#CMR17-48"/>
       <use transform="translate(137.071431 0)scale(0.996264)" xlink:href="#CMR17-48"/>
      </g>
     </g>
    </g>
    <g id="ytick_7">
     <g id="line2d_25">
      <path clip-path="url(#p243c1a337e)" d="M 59.928578 141.676146 
L 712.230578 141.676146 
" style="fill:none;stroke:#b0b0b0;stroke-linecap:square;stroke-width:0.8;"/>
     </g>
     <g id="line2d_26">
      <g>
       <use style="stroke:#000000;stroke-width:0.8;" x="59.928578" xlink:href="#m0cdde34126" y="141.676146"/>
      </g>
     </g>
     <g id="text_14">
      <!-- $1200$ -->
      <g transform="translate(21.71263 147.21094)scale(0.16 -0.16)">
       <use transform="scale(0.996264)" xlink:href="#CMR17-49"/>
       <use transform="translate(45.690477 0)scale(0.996264)" xlink:href="#CMR17-50"/>
       <use transform="translate(91.380954 0)scale(0.996264)" xlink:href="#CMR17-48"/>
       <use transform="translate(137.071431 0)scale(0.996264)" xlink:href="#CMR17-48"/>
      </g>
     </g>
    </g>
    <g id="ytick_8">
     <g id="line2d_27">
      <path clip-path="url(#p243c1a337e)" d="M 59.928578 85.984679 
L 712.230578 85.984679 
" style="fill:none;stroke:#b0b0b0;stroke-linecap:square;stroke-width:0.8;"/>
     </g>
     <g id="line2d_28">
      <g>
       <use style="stroke:#000000;stroke-width:0.8;" x="59.928578" xlink:href="#m0cdde34126" y="85.984679"/>
      </g>
     </g>
     <g id="text_15">
      <!-- $1400$ -->
      <g transform="translate(21.71263 91.519473)scale(0.16 -0.16)">
       <use transform="scale(0.996264)" xlink:href="#CMR17-49"/>
       <use transform="translate(45.690477 0)scale(0.996264)" xlink:href="#CMR17-52"/>
       <use transform="translate(91.380954 0)scale(0.996264)" xlink:href="#CMR17-48"/>
       <use transform="translate(137.071431 0)scale(0.996264)" xlink:href="#CMR17-48"/>
      </g>
     </g>
    </g>
    <g id="text_16">
     <!-- $Normal\ stress\ \sigma_{11}$ -->
     <defs>
      <path d="M 74 57.53125 
C 75.09375 61.8125 76.703125 64.796875 84.296875 65.09375 
C 84.59375 65.09375 85.796875 65.1875 85.796875 66.890625 
C 85.796875 68 84.90625 68 84.5 68 
C 82.5 68 77.40625 67.796875 75.40625 67.796875 
L 70.59375 67.796875 
C 69.203125 67.796875 67.40625 68 66 68 
C 65.40625 68 64.203125 68 64.203125 66.09375 
C 64.203125 65.09375 65 65.09375 65.703125 65.09375 
C 71.703125 64.890625 72.09375 62.609375 72.09375 60.8125 
C 72.09375 59.921875 72 59.625 71.703125 58.21875 
L 60.40625 13.34375 
L 39 66.296875 
C 38.296875 67.890625 38.203125 68 36 68 
L 23.796875 68 
C 21.796875 68 20.90625 68 20.90625 66.09375 
C 20.90625 65.09375 21.59375 65.09375 23.5 65.09375 
C 24 65.09375 29.90625 65.09375 29.90625 64.203125 
C 29.90625 64 29.703125 63.203125 29.59375 62.90625 
L 16.296875 10.15625 
C 15.09375 5.28125 12.703125 3.1875 6.09375 2.890625 
C 5.59375 2.890625 4.59375 2.796875 4.59375 1 
C 4.59375 0 5.59375 0 5.90625 0 
C 7.90625 0 13 0.1875 15 0.1875 
L 19.796875 0.1875 
C 21.203125 0.1875 22.90625 0 24.296875 0 
C 25 0 26.09375 0 26.09375 1.890625 
C 26.09375 2.796875 25.09375 2.890625 24.703125 2.890625 
C 21.40625 2.984375 18.203125 3.59375 18.203125 7.171875 
C 18.203125 7.96875 18.40625 8.859375 18.59375 9.65625 
L 32.09375 62.90625 
C 32.703125 61.90625 32.703125 61.703125 33.09375 60.8125 
L 56.90625 1.796875 
C 57.40625 0.59375 57.59375 0 58.5 0 
C 59.5 0 59.59375 0.296875 60 2 
z
" id="CMMI12-78"/>
      <path d="M 50.796875 37.59375 
C 52.09375 37.59375 55.40625 37.59375 55.40625 40.796875 
C 55.40625 43 53.5 43 51.703125 43 
L 29.59375 43 
C 14.59375 43 3.796875 26.328125 3.796875 14.5625 
C 3.796875 6.078125 9.296875 -1 18.296875 -1 
C 30.09375 -1 43 11.65625 43 26.625 
C 43 30.515625 42.09375 34.296875 39.703125 37.59375 
z
M 18.40625 1 
C 13.296875 1 9.59375 4.875 9.59375 11.765625 
C 9.59375 17.75 13.203125 37.59375 27.90625 37.59375 
C 32.203125 37.59375 37 35.5 37 27.8125 
C 37 24.328125 35.40625 15.953125 31.90625 10.171875 
C 28.296875 4.28125 22.90625 1 18.40625 1 
z
" id="CMMI12-27"/>
     </defs>
     <g transform="translate(13.836997 347.522789)rotate(-90)scale(0.2 -0.2)">
      <use transform="translate(0 14.943915)scale(0.996264)" xlink:href="#CMMI12-78"/>
      <use transform="translate(88.521773 14.943915)scale(0.996264)" xlink:href="#CMMI12-111"/>
      <use transform="translate(135.417082 14.943915)scale(0.996264)" xlink:href="#CMMI12-114"/>
      <use transform="translate(182.087694 14.943915)scale(0.996264)" xlink:href="#CMMI12-109"/>
      <use transform="translate(267.414919 14.943915)scale(0.996264)" xlink:href="#CMMI12-97"/>
      <use transform="translate(318.622776 14.943915)scale(0.996264)" xlink:href="#CMMI12-108"/>
      <use transform="translate(381.100293 14.943915)scale(0.996264)" xlink:href="#CMMI12-115"/>
      <use transform="translate(427.05034 14.943915)scale(0.996264)" xlink:href="#CMMI12-116"/>
      <use transform="translate(462.276671 14.943915)scale(0.996264)" xlink:href="#CMMI12-114"/>
      <use transform="translate(508.947283 14.943915)scale(0.996264)" xlink:href="#CMMI12-101"/>
      <use transform="translate(554.159284 14.943915)scale(0.996264)" xlink:href="#CMMI12-115"/>
      <use transform="translate(600.109331 14.943915)scale(0.996264)" xlink:href="#CMMI12-115"/>
      <use transform="translate(677.288492 14.943915)scale(0.996264)" xlink:href="#CMMI12-27"/>
      <use transform="translate(732.733952 0)scale(0.697382)" xlink:href="#CMR17-49"/>
      <use transform="translate(764.717134 0)scale(0.697382)" xlink:href="#CMR17-49"/>
     </g>
    </g>
   </g>
   <g id="patch_3">
    <path d="M 59.928578 496.665349 
L 59.928578 38.176549 
" style="fill:none;stroke:#000000;stroke-linecap:square;stroke-linejoin:miter;stroke-width:0.8;"/>
   </g>
   <g id="patch_4">
    <path d="M 712.230578 496.665349 
L 712.230578 38.176549 
" style="fill:none;stroke:#000000;stroke-linecap:square;stroke-linejoin:miter;stroke-width:0.8;"/>
   </g>
   <g id="patch_5">
    <path d="M 59.928578 496.665349 
L 712.230578 496.665349 
" style="fill:none;stroke:#000000;stroke-linecap:square;stroke-linejoin:miter;stroke-width:0.8;"/>
   </g>
   <g id="patch_6">
    <path d="M 59.928578 38.176549 
L 712.230578 38.176549 
" style="fill:none;stroke:#000000;stroke-linecap:square;stroke-linejoin:miter;stroke-width:0.8;"/>
   </g>
   <g id="text_17">
    <!-- $One\ Element\ Tensile\ Test$ -->
    <defs>
     <path d="M 72.59375 43.5625 
C 72.59375 59.953125 61.796875 70 47.796875 70 
C 26.40625 70 4.796875 47.140625 4.796875 24.21875 
C 4.796875 8.625 15.203125 -2 29.703125 -2 
C 50.703125 -2 72.59375 19.75 72.59375 43.5625 
z
M 30.296875 0.296875 
C 22.09375 0.296875 13.40625 6.25 13.40625 21.734375 
C 13.40625 30.765625 16.703125 45.546875 24.90625 55.484375 
C 32.203125 64.21875 40.59375 67.796875 47.296875 67.796875 
C 56.09375 67.796875 64.59375 61.4375 64.59375 47.140625 
C 64.59375 38.3125 60.796875 24.515625 54.09375 15.078125 
C 46.796875 4.953125 37.703125 0.296875 30.296875 0.296875 
z
" id="CMMI12-79"/>
     <path d="M 69.5 23.265625 
C 69.59375 23.5625 69.90625 24.265625 69.90625 24.65625 
C 69.90625 25.171875 69.5 25.671875 68.90625 25.671875 
C 68.5 25.671875 68.296875 25.5625 68 25.265625 
C 67.796875 25.171875 67.796875 24.96875 66.90625 22.953125 
C 61 8.90625 56.703125 2.890625 40.703125 2.890625 
L 26.09375 2.890625 
C 24.703125 2.890625 24.5 2.890625 23.90625 3 
C 22.796875 3.09375 22.703125 3.296875 22.703125 4.09375 
C 22.703125 4.796875 22.90625 5.40625 23.09375 6.296875 
L 30 34 
L 39.90625 34 
C 47.703125 34 48.296875 32.28125 48.296875 29.28125 
C 48.296875 28.28125 48.296875 27.375 47.59375 24.359375 
C 47.40625 23.96875 47.296875 23.5625 47.296875 23.265625 
C 47.296875 22.5625 47.796875 22.25 48.40625 22.25 
C 49.296875 22.25 49.40625 22.953125 49.796875 24.359375 
L 55.5 47.4375 
C 55.5 47.9375 55.09375 48.421875 54.5 48.421875 
C 53.59375 48.421875 53.5 48.03125 53.09375 46.65625 
C 51.09375 39.0625 49.09375 36.890625 40.203125 36.890625 
L 30.703125 36.890625 
L 36.90625 61.140625 
C 37.796875 64.59375 38 64.890625 42.09375 64.890625 
L 56.40625 64.890625 
C 68.703125 64.890625 71.203125 61.640625 71.203125 54.140625 
C 71.203125 54.046875 71.203125 51.28125 70.796875 48.03125 
C 70.703125 47.640625 70.59375 47.046875 70.59375 46.84375 
C 70.59375 46.0625 71.09375 45.765625 71.703125 45.765625 
C 72.40625 45.765625 72.796875 46.15625 73 47.9375 
L 75.09375 65.1875 
C 75.09375 65.484375 75.296875 66.484375 75.296875 66.6875 
C 75.296875 67.796875 74.40625 67.796875 72.59375 67.796875 
L 23.796875 67.796875 
C 21.90625 67.796875 20.90625 67.796875 20.90625 65.984375 
C 20.90625 64.890625 21.59375 64.890625 23.296875 64.890625 
C 29.5 64.890625 29.5 64.203125 29.5 63.109375 
C 29.5 62.625 29.40625 62.234375 29.09375 61.140625 
L 15.59375 7.40625 
C 14.703125 3.890625 14.5 2.890625 7.5 2.890625 
C 5.59375 2.890625 4.59375 2.890625 4.59375 1.09375 
C 4.59375 0 5.203125 0 7.203125 0 
L 57.40625 0 
C 59.59375 0 59.703125 0.09375 60.40625 1.6875 
z
" id="CMMI12-69"/>
     <path d="M 41.703125 60.71875 
C 42.296875 63.09375 42.5 64 44 64.390625 
C 44.796875 64.59375 48.09375 64.59375 50.203125 64.59375 
C 60.203125 64.59375 64.90625 64.203125 64.90625 56.4375 
C 64.90625 54.9375 64.5 51.15625 63.90625 47.46875 
L 63.796875 46.28125 
C 63.796875 45.890625 64.203125 45.28125 64.796875 45.28125 
C 65.796875 45.28125 65.796875 45.78125 66.09375 47.375 
L 69 64.984375 
C 69.203125 65.890625 69.203125 66.09375 69.203125 66.390625 
C 69.203125 67.484375 68.59375 67.484375 66.59375 67.484375 
L 11.90625 67.484375 
C 9.59375 67.484375 9.5 67.390625 8.90625 65.59375 
L 2.796875 47.671875 
C 2.703125 47.46875 2.40625 46.375 2.40625 46.28125 
C 2.40625 45.78125 2.796875 45.28125 3.40625 45.28125 
C 4.203125 45.28125 4.40625 45.6875 4.796875 46.984375 
C 9 59.015625 11.09375 64.59375 24.40625 64.59375 
L 31.09375 64.59375 
C 33.5 64.59375 34.5 64.59375 34.5 63.5 
C 34.5 63.203125 34.5 63 34 61.203125 
L 20.59375 7.765625 
C 19.59375 3.890625 19.40625 2.890625 8.796875 2.890625 
C 6.296875 2.890625 5.59375 2.890625 5.59375 1 
C 5.59375 0 6.703125 0 7.203125 0 
C 9.703125 0 12.296875 0.1875 14.796875 0.1875 
L 30.40625 0.1875 
C 32.90625 0.1875 35.59375 0 38.09375 0 
C 39.203125 0 40.203125 0 40.203125 1.890625 
C 40.203125 2.890625 39.5 2.890625 36.90625 2.890625 
C 27.90625 2.890625 27.90625 3.78125 27.90625 5.28125 
C 27.90625 5.375 27.90625 6.078125 28.296875 7.671875 
z
" id="CMMI12-84"/>
    </defs>
    <g transform="translate(268.093172 13.836997)scale(0.2 -0.2)">
     <use transform="scale(0.996264)" xlink:href="#CMMI12-79"/>
     <use transform="translate(77.260399 0)scale(0.996264)" xlink:href="#CMMI12-110"/>
     <use transform="translate(135.490446 0)scale(0.996264)" xlink:href="#CMMI12-101"/>
     <use transform="translate(211.93156 0)scale(0.996264)" xlink:href="#CMMI12-69"/>
     <use transform="translate(289.983196 0)scale(0.996264)" xlink:href="#CMMI12-108"/>
     <use transform="translate(321.2316 0)scale(0.996264)" xlink:href="#CMMI12-101"/>
     <use transform="translate(366.443601 0)scale(0.996264)" xlink:href="#CMMI12-109"/>
     <use transform="translate(451.770825 0)scale(0.996264)" xlink:href="#CMMI12-101"/>
     <use transform="translate(496.982826 0)scale(0.996264)" xlink:href="#CMMI12-110"/>
     <use transform="translate(555.212874 0)scale(0.996264)" xlink:href="#CMMI12-116"/>
     <use transform="translate(621.668317 0)scale(0.996264)" xlink:href="#CMMI12-84"/>
     <use transform="translate(692.391949 0)scale(0.996264)" xlink:href="#CMMI12-101"/>
     <use transform="translate(737.60395 0)scale(0.996264)" xlink:href="#CMMI12-110"/>
     <use transform="translate(795.833997 0)scale(0.996264)" xlink:href="#CMMI12-115"/>
     <use transform="translate(841.784045 0)scale(0.996264)" xlink:href="#CMMI12-105"/>
     <use transform="translate(875.062647 0)scale(0.996264)" xlink:href="#CMMI12-108"/>
     <use transform="translate(906.31105 0)scale(0.996264)" xlink:href="#CMMI12-101"/>
     <use transform="translate(982.752164 0)scale(0.996264)" xlink:href="#CMMI12-84"/>
     <use transform="translate(1053.475796 0)scale(0.996264)" xlink:href="#CMMI12-101"/>
     <use transform="translate(1098.687797 0)scale(0.996264)" xlink:href="#CMMI12-115"/>
     <use transform="translate(1144.637845 0)scale(0.996264)" xlink:href="#CMMI12-116"/>
    </g>
   </g>
   <g id="legend_1">
    <g id="patch_7">
     <path d="M 560.898791 490.665349 
L 703.030578 490.665349 
Q 706.230578 490.665349 706.230578 487.465349 
L 706.230578 444.466396 
Q 706.230578 441.266396 703.030578 441.266396 
L 560.898791 441.266396 
Q 557.698791 441.266396 557.698791 444.466396 
L 557.698791 487.465349 
Q 557.698791 490.665349 560.898791 490.665349 
z
" style="fill:#4c4c4c;opacity:0.5;stroke:#4c4c4c;stroke-linejoin:miter;"/>
    </g>
    <g id="patch_8">
     <path d="M 558.898791 488.665349 
L 701.030578 488.665349 
Q 704.230578 488.665349 704.230578 485.465349 
L 704.230578 442.466396 
Q 704.230578 439.266396 701.030578 439.266396 
L 558.898791 439.266396 
Q 555.698791 439.266396 555.698791 442.466396 
L 555.698791 485.465349 
Q 555.698791 488.665349 558.898791 488.665349 
z
" style="fill:#ffffff;stroke:#cccccc;stroke-linejoin:miter;"/>
    </g>
    <g id="line2d_29">
     <path d="M 562.098791 451.266396 
L 594.098791 451.266396 
" style="fill:none;stroke:#ff0000;stroke-linecap:square;stroke-width:2;"/>
    </g>
    <g id="line2d_30">
     <defs>
      <path d="M 0 5 
C 1.326016 5 2.597899 4.473168 3.535534 3.535534 
C 4.473168 2.597899 5 1.326016 5 0 
C 5 -1.326016 4.473168 -2.597899 3.535534 -3.535534 
C 2.597899 -4.473168 1.326016 -5 0 -5 
C -1.326016 -5 -2.597899 -4.473168 -3.535534 -3.535534 
C -4.473168 -2.597899 -5 -1.326016 -5 0 
C -5 1.326016 -4.473168 2.597899 -3.535534 3.535534 
C -2.597899 4.473168 -1.326016 5 0 5 
z
" id="mf952e0a9ab" style="stroke:#ff0000;"/>
     </defs>
     <g>
      <use style="fill:#ff0000;stroke:#ff0000;" x="578.098791" xlink:href="#mf952e0a9ab" y="451.266396"/>
     </g>
    </g>
    <g id="text_18">
     <!-- $DynELA\ \sigma_{11}$ -->
     <defs>
      <path d="M 15.703125 7.375 
C 14.796875 3.890625 14.59375 2.890625 7.59375 2.890625 
C 5.703125 2.890625 4.703125 2.890625 4.703125 1.09375 
C 4.703125 0 5.296875 0 7.296875 0 
L 39 0 
C 59.203125 0 78.90625 20.8125 78.90625 43 
C 78.90625 57.328125 70.296875 68 56 68 
L 23.90625 68 
C 22 68 21.09375 68 21.09375 66.09375 
C 21.09375 65.09375 22 65.09375 23.5 65.09375 
C 29.59375 65.09375 29.59375 64.296875 29.59375 63.203125 
C 29.59375 63 29.59375 62.40625 29.203125 60.90625 
z
M 36.796875 61.203125 
C 37.703125 64.890625 38.09375 65.09375 42 65.09375 
L 53 65.09375 
C 62.40625 65.09375 71 60.015625 71 46.28125 
C 71 41.3125 69 23.984375 59.296875 13.046875 
C 56.5 9.765625 48.90625 2.890625 37.40625 2.890625 
L 26 2.890625 
C 24.59375 2.890625 24.40625 2.890625 23.796875 2.984375 
C 22.703125 3.09375 22.59375 3.296875 22.59375 4.09375 
C 22.59375 4.78125 22.796875 5.375 23 6.28125 
z
" id="CMMI12-68"/>
      <path d="M 26.296875 -10.515625 
C 23.59375 -14.390625 19.703125 -18 14.796875 -18 
C 13.59375 -18 8.796875 -17.796875 7.296875 -12.90625 
C 7.59375 -13.015625 8.09375 -13.015625 8.296875 -13.015625 
C 11.296875 -13.015625 13.296875 -10.40625 13.296875 -8.109375 
C 13.296875 -5.8125 11.40625 -5 9.90625 -5 
C 8.296875 -5 4.796875 -6.203125 4.796875 -11.109375 
C 4.796875 -16.40625 9.09375 -20 14.796875 -20 
C 24.796875 -20 34.90625 -10.515625 37.703125 -0.109375 
L 47.5 38.796875 
C 47.59375 39.296875 47.796875 39.890625 47.796875 40.484375 
C 47.796875 41.984375 46.59375 43 45.09375 43 
C 44.203125 43 42.09375 42.59375 41.296875 39.59375 
L 33.90625 10.265625 
C 33.40625 8.46875 33.40625 8.28125 32.59375 7.171875 
C 30.59375 4.390625 27.296875 1 22.5 1 
C 16.90625 1 16.40625 6.484375 16.40625 9.171875 
C 16.40625 14.859375 19.09375 22.546875 21.796875 29.71875 
C 22.90625 32.609375 23.5 34.015625 23.5 36.015625 
C 23.5 40.203125 20.5 44 15.59375 44 
C 6.40625 44 2.703125 29.53125 2.703125 28.71875 
C 2.703125 28.328125 3.09375 27.828125 3.796875 27.828125 
C 4.703125 27.828125 4.796875 28.234375 5.203125 29.625 
C 7.59375 38 11.40625 41.984375 15.296875 41.984375 
C 16.203125 41.984375 17.90625 41.984375 17.90625 38.703125 
C 17.90625 36.109375 16.796875 33.21875 15.296875 29.421875 
C 10.40625 16.359375 10.40625 13.0625 10.40625 10.671875 
C 10.40625 1.1875 17.203125 -1 22.203125 -1 
C 25.09375 -1 28.703125 -0.109375 32.203125 3.59375 
L 32.296875 3.484375 
C 30.796875 -2.203125 29.796875 -5.609375 26.296875 -10.515625 
z
" id="CMMI12-121"/>
      <path d="M 36.703125 60.3125 
C 37.59375 64.09375 37.90625 65.09375 46.703125 65.09375 
C 49.40625 65.09375 50.09375 65.09375 50.09375 66.984375 
C 50.09375 68 49 68 48.59375 68 
C 46.59375 68 44.296875 67.796875 42.296875 67.796875 
L 28.90625 67.796875 
C 27 67.796875 24.796875 68 22.90625 68 
C 22.09375 68 21 68 21 66.09375 
C 21 65.09375 21.90625 65.09375 23.40625 65.09375 
C 29.5 65.09375 29.5 64.296875 29.5 63.203125 
C 29.5 63 29.5 62.40625 29.09375 60.90625 
L 15.59375 7.375 
C 14.703125 3.890625 14.5 2.890625 7.5 2.890625 
C 5.59375 2.890625 4.59375 2.890625 4.59375 1.09375 
C 4.59375 0 5.203125 0 7.203125 0 
L 52 0 
C 54.203125 0 54.296875 0.09375 55 1.890625 
L 62.703125 23.09375 
C 62.90625 23.59375 63.09375 24.1875 63.09375 24.484375 
C 63.09375 25.078125 62.59375 25.484375 62.09375 25.484375 
C 62 25.484375 61.5 25.484375 61.296875 25.078125 
C 61.09375 24.984375 61.09375 24.78125 60.296875 22.890625 
C 57.09375 14.140625 52.59375 2.890625 35.703125 2.890625 
L 26.09375 2.890625 
C 24.703125 2.890625 24.5 2.890625 23.90625 2.984375 
C 22.796875 3.09375 22.703125 3.296875 22.703125 4.09375 
C 22.703125 4.78125 22.90625 5.375 23.09375 6.28125 
z
" id="CMMI12-76"/>
      <path d="M 17 11.25 
C 13.5 5.234375 10.09375 3.203125 5.296875 2.890625 
C 4.203125 2.796875 3.40625 2.796875 3.40625 1 
C 3.40625 0.390625 3.90625 0 4.59375 0 
C 6.40625 0 10.90625 0.1875 12.703125 0.1875 
C 15.59375 0.1875 18.796875 0 21.59375 0 
C 22.203125 0 23.40625 0 23.40625 1.890625 
C 23.40625 2.796875 22.59375 2.890625 22 2.890625 
C 19.703125 3.09375 17.796875 3.90625 17.796875 6.359375 
C 17.796875 7.78125 18.40625 8.90625 19.703125 11.15625 
L 27.296875 24 
L 52.796875 24 
C 52.90625 23.078125 52.90625 22.265625 53 21.34375 
C 53.296875 18.6875 54.5 8.09375 54.5 6.15625 
C 54.5 3.09375 49.40625 2.890625 47.796875 2.890625 
C 46.703125 2.890625 45.59375 2.890625 45.59375 1.09375 
C 45.59375 0 46.5 0 47.09375 0 
C 48.796875 0 50.796875 0.1875 52.5 0.1875 
L 58.203125 0.1875 
C 64.296875 0.1875 68.703125 0 68.796875 0 
C 69.5 0 70.59375 0 70.59375 1.890625 
C 70.59375 2.890625 69.703125 2.890625 68.203125 2.890625 
C 62.703125 2.890625 62.59375 3.8125 62.296875 6.875 
L 56.203125 68.796875 
C 56 70.796875 55.59375 71 54.5 71 
C 53.5 71 52.90625 70.796875 52 69.296875 
z
M 29 26.890625 
L 49.09375 59.859375 
L 52.5 26.890625 
z
" id="CMMI12-65"/>
     </defs>
     <g transform="translate(606.898791 456.866396)scale(0.16 -0.16)">
      <use transform="translate(0 14.943915)scale(0.996264)" xlink:href="#CMMI12-68"/>
      <use transform="translate(83.703948 14.943915)scale(0.996264)" xlink:href="#CMMI12-121"/>
      <use transform="translate(134.842728 14.943915)scale(0.996264)" xlink:href="#CMMI12-110"/>
      <use transform="translate(193.072776 14.943915)scale(0.996264)" xlink:href="#CMMI12-69"/>
      <use transform="translate(271.124412 14.943915)scale(0.996264)" xlink:href="#CMMI12-76"/>
      <use transform="translate(337.495287 14.943915)scale(0.996264)" xlink:href="#CMMI12-65"/>
      <use transform="translate(441.852285 14.943915)scale(0.996264)" xlink:href="#CMMI12-27"/>
      <use transform="translate(497.297746 0)scale(0.697382)" xlink:href="#CMR17-49"/>
      <use transform="translate(529.280928 0)scale(0.697382)" xlink:href="#CMR17-49"/>
     </g>
    </g>
    <g id="line2d_31">
     <path d="M 562.098791 473.565873 
L 594.098791 473.565873 
" style="fill:none;stroke:#0000ff;stroke-linecap:square;stroke-width:2;"/>
    </g>
    <g id="line2d_32">
     <defs>
      <path d="M -5 5 
L 5 5 
L 5 -5 
L -5 -5 
z
" id="mb1ba98f64e" style="stroke:#0000ff;stroke-linejoin:miter;"/>
     </defs>
     <g>
      <use style="fill:#0000ff;stroke:#0000ff;stroke-linejoin:miter;" x="578.098791" xlink:href="#mb1ba98f64e" y="473.565873"/>
     </g>
    </g>
    <g id="text_19">
     <!-- $Abaqus\ \sigma_{11}$ -->
     <defs>
      <path d="M 23.09375 66.484375 
C 23.203125 66.890625 23.40625 67.484375 23.40625 67.984375 
C 23.40625 69 22.40625 69 22.203125 69 
C 22.09375 69 18.5 68.6875 16.703125 68.484375 
C 15 68.390625 13.5 68.1875 11.703125 68.09375 
C 9.296875 67.890625 8.59375 67.796875 8.59375 65.984375 
C 8.59375 64.984375 9.59375 64.984375 10.59375 64.984375 
C 15.703125 64.984375 15.703125 64.109375 15.703125 63.125 
C 15.703125 62.421875 14.90625 59.5625 14.5 57.796875 
L 12.09375 48.328125 
C 11.09375 44.390625 5.40625 21.75 5 19.953125 
C 4.5 17.453125 4.5 15.75 4.5 14.453125 
C 4.5 4.28125 10.203125 -1 16.703125 -1 
C 28.296875 -1 40.296875 13.859375 40.296875 28.328125 
C 40.296875 37.5 35.09375 44 27.59375 44 
C 22.40625 44 17.703125 39.703125 15.796875 37.703125 
z
M 16.796875 1 
C 13.59375 1 10.09375 3.390625 10.09375 11.171875 
C 10.09375 14.453125 10.40625 16.359375 12.203125 23.34375 
C 12.5 24.640625 14.09375 31.015625 14.5 32.3125 
C 14.703125 33.109375 20.59375 41.984375 27.40625 41.984375 
C 31.796875 41.984375 33.796875 37.609375 33.796875 32.421875 
C 33.796875 27.625 31 16.359375 28.5 11.171875 
C 26 5.78125 21.40625 1 16.796875 1 
z
" id="CMMI12-98"/>
      <path d="M 44.09375 42.984375 
C 44.09375 43.484375 43.703125 43.890625 43.203125 43.890625 
C 42.40625 43.890625 38.5 40.296875 36.59375 36.8125 
C 34.796875 41.296875 31.703125 44 27.40625 44 
C 16.09375 44 3.90625 29.421875 3.90625 14.65625 
C 3.90625 4.78125 9.703125 -1 16.5 -1 
C 21.796875 -1 26.203125 2.984375 28.296875 5.28125 
L 28.40625 5.1875 
L 24.59375 -9.578125 
L 23.703125 -13.09375 
C 22.796875 -16.015625 21.296875 -16.015625 16.59375 -16.109375 
C 15.5 -16.109375 14.5 -16.109375 14.5 -18 
C 14.5 -18.703125 15.09375 -19 15.796875 -19 
C 17.203125 -19 19 -18.8125 20.40625 -18.8125 
L 30.59375 -18.8125 
C 32.09375 -18.8125 33.796875 -19 35.296875 -19 
C 35.90625 -19 37.09375 -19 37.09375 -17.109375 
C 37.09375 -16.109375 36.296875 -16.109375 34.796875 -16.109375 
C 30.09375 -16.109375 29.796875 -15.421875 29.796875 -14.640625 
C 29.796875 -14.15625 29.90625 -14.0625 30.203125 -12.796875 
z
M 30 11.859375 
C 29.5 10.171875 29.5 9.96875 28.09375 8.078125 
C 25.90625 5.28125 21.5 1 16.796875 1 
C 12.703125 1 10.40625 4.6875 10.40625 10.5625 
C 10.40625 16.0625 13.5 27.234375 15.40625 31.421875 
C 18.796875 38.40625 23.5 41.984375 27.40625 41.984375 
C 34 41.984375 35.296875 33.8125 35.296875 33.015625 
C 35.296875 32.921875 35 31.625 34.90625 31.421875 
z
" id="CMMI12-113"/>
      <path d="M 34.09375 5.78125 
C 35.40625 0.1875 40.203125 -1 42.59375 -1 
C 45.796875 -1 48.203125 1.09375 49.796875 4.484375 
C 51.5 8.078125 52.796875 13.953125 52.796875 14.265625 
C 52.796875 14.75 52.40625 15.15625 51.796875 15.15625 
C 50.90625 15.15625 50.796875 14.65625 50.40625 13.15625 
C 48.59375 6.28125 46.796875 1 42.796875 1 
C 39.796875 1 39.796875 4.28125 39.796875 5.578125 
C 39.796875 7.875 40.09375 8.875 41.09375 13.0625 
C 41.796875 15.75 42.5 18.453125 43.09375 21.234375 
L 47.203125 37.5 
C 47.90625 40 47.90625 40.1875 47.90625 40.484375 
C 47.90625 41.984375 46.703125 43 45.203125 43 
C 42.296875 43 41.59375 40.484375 41 38 
C 40 34.109375 34.59375 12.65625 33.90625 9.171875 
C 33.796875 9.171875 29.90625 1 22.59375 1 
C 17.40625 1 16.40625 5.484375 16.40625 9.171875 
C 16.40625 14.859375 19.203125 22.84375 21.796875 29.53125 
C 23 32.71875 23.5 34.015625 23.5 36.015625 
C 23.5 40.296875 20.40625 44 15.59375 44 
C 6.40625 44 2.703125 29.53125 2.703125 28.71875 
C 2.703125 28.328125 3.09375 27.828125 3.796875 27.828125 
C 4.703125 27.828125 4.796875 28.234375 5.203125 29.625 
C 7.59375 38.203125 11.5 41.984375 15.296875 41.984375 
C 16.296875 41.984375 17.90625 41.890625 17.90625 38.703125 
C 17.90625 36.109375 16.796875 33.21875 15.296875 29.421875 
C 10.90625 17.546875 10.40625 13.765625 10.40625 10.765625 
C 10.40625 0.59375 18.09375 -1 22.203125 -1 
C 28.59375 -1 32.09375 3.390625 34.09375 5.78125 
z
" id="CMMI12-117"/>
     </defs>
     <g transform="translate(606.898791 479.165873)scale(0.16 -0.16)">
      <use transform="translate(0 14.943915)scale(0.996264)" xlink:href="#CMMI12-65"/>
      <use transform="translate(73.127885 14.943915)scale(0.996264)" xlink:href="#CMMI12-98"/>
      <use transform="translate(114.603759 14.943915)scale(0.996264)" xlink:href="#CMMI12-97"/>
      <use transform="translate(165.811617 14.943915)scale(0.996264)" xlink:href="#CMMI12-113"/>
      <use transform="translate(212.637941 14.943915)scale(0.996264)" xlink:href="#CMMI12-117"/>
      <use transform="translate(268.158271 14.943915)scale(0.996264)" xlink:href="#CMMI12-115"/>
      <use transform="translate(345.337431 14.943915)scale(0.996264)" xlink:href="#CMMI12-27"/>
      <use transform="translate(400.782892 0)scale(0.697382)" xlink:href="#CMR17-49"/>
      <use transform="translate(432.766074 0)scale(0.697382)" xlink:href="#CMR17-49"/>
     </g>
    </g>
   </g>
   <g id="line2d_33">
    <path clip-path="url(#p243c1a337e)" d="M 89.578669 475.824949 
L 95.570573 123.244289 
L 101.455377 104.060339 
L 107.397778 94.983725 
L 113.315144 88.940364 
L 119.287396 84.38049 
L 125.232751 80.790967 
L 131.150736 77.863357 
L 137.040949 75.41846 
L 142.982069 73.316229 
L 148.894007 71.512171 
L 154.854756 69.929771 
L 160.785089 68.551115 
L 166.684846 67.343095 
L 172.630946 66.266826 
L 178.545477 65.318025 
L 184.504597 64.469362 
L 190.431291 63.719445 
L 196.325581 63.056205 
L 202.262485 62.462546 
L 208.240838 61.932484 
L 214.111283 61.471629 
L 220.096298 61.056934 
L 225.97373 60.699005 
L 231.963563 60.380098 
L 237.846227 60.108201 
L 243.767219 59.872505 
L 249.725532 59.670698 
L 255.649037 59.502577 
L 261.608757 59.363654 
L 267.533422 59.25342 
L 273.423376 59.169427 
L 279.348428 59.108889 
L 285.307693 59.070547 
L 291.23164 59.053381 
L 297.188916 59.055794 
L 303.110792 59.076461 
L 308.997695 59.113954 
L 314.984146 59.168272 
L 320.868149 59.236628 
L 326.783881 59.319431 
L 332.73054 59.416001 
L 338.641965 59.524467 
L 344.583626 59.645307 
L 350.554861 59.777975 
L 356.490613 59.920399 
L 362.391378 60.071796 
L 368.321138 60.233221 
L 374.279284 60.4043 
L 380.202278 60.582721 
L 386.090672 60.767838 
L 392.06906 60.963288 
L 397.950578 61.162546 
L 403.920903 61.371525 
L 409.856323 61.585602 
L 415.757337 61.804337 
L 421.684721 62.0297 
L 427.637953 62.261385 
L 433.556832 62.496775 
L 439.501144 62.738012 
L 445.411409 62.982376 
L 451.346691 63.232042 
L 457.248257 63.484326 
L 463.17451 63.741505 
L 469.124952 64.003409 
L 475.0435 64.267352 
L 480.997339 64.536156 
L 486.930661 64.807101 
L 492.843493 65.080017 
L 498.792527 65.357387 
L 504.720878 65.636422 
L 510.628685 65.916919 
L 516.571975 66.201427 
L 522.494528 66.487158 
L 528.452039 66.776629 
L 534.333226 67.064332 
L 540.304379 67.358289 
L 546.199456 67.650241 
L 552.128801 67.94549 
L 558.091946 68.243969 
L 564.033938 68.542821 
L 569.955055 68.841979 
L 575.855295 69.141307 
L 581.788727 69.44349 
L 587.701228 69.745707 
L 593.646424 70.05061 
L 599.570578 70.355411 
L 605.526929 70.662727 
L 611.462129 70.969771 
L 617.376397 71.276475 
L 623.322366 71.585525 
L 629.247293 71.894098 
L 635.151344 72.202128 
L 641.086599 72.512333 
L 647.000923 72.821927 
L 652.946063 73.133526 
L 658.870162 73.444411 
L 664.824691 73.757233 
L 670.758178 74.069206 
L 676.670735 74.380363 
L 682.580474 74.691554 
" style="fill:none;stroke:#0000ff;stroke-linecap:square;stroke-width:2;"/>
    <g clip-path="url(#p243c1a337e)">
     <use style="fill:#0000ff;stroke:#0000ff;stroke-linejoin:miter;" x="89.578669" xlink:href="#mb1ba98f64e" y="475.824949"/>
     <use style="fill:#0000ff;stroke:#0000ff;stroke-linejoin:miter;" x="131.150736" xlink:href="#mb1ba98f64e" y="77.863357"/>
     <use style="fill:#0000ff;stroke:#0000ff;stroke-linejoin:miter;" x="172.630946" xlink:href="#mb1ba98f64e" y="66.266826"/>
     <use style="fill:#0000ff;stroke:#0000ff;stroke-linejoin:miter;" x="214.111283" xlink:href="#mb1ba98f64e" y="61.471629"/>
     <use style="fill:#0000ff;stroke:#0000ff;stroke-linejoin:miter;" x="255.649037" xlink:href="#mb1ba98f64e" y="59.502577"/>
     <use style="fill:#0000ff;stroke:#0000ff;stroke-linejoin:miter;" x="297.188916" xlink:href="#mb1ba98f64e" y="59.055794"/>
     <use style="fill:#0000ff;stroke:#0000ff;stroke-linejoin:miter;" x="338.641965" xlink:href="#mb1ba98f64e" y="59.524467"/>
     <use style="fill:#0000ff;stroke:#0000ff;stroke-linejoin:miter;" x="380.202278" xlink:href="#mb1ba98f64e" y="60.582721"/>
     <use style="fill:#0000ff;stroke:#0000ff;stroke-linejoin:miter;" x="421.684721" xlink:href="#mb1ba98f64e" y="62.0297"/>
     <use style="fill:#0000ff;stroke:#0000ff;stroke-linejoin:miter;" x="463.17451" xlink:href="#mb1ba98f64e" y="63.741505"/>
     <use style="fill:#0000ff;stroke:#0000ff;stroke-linejoin:miter;" x="504.720878" xlink:href="#mb1ba98f64e" y="65.636422"/>
     <use style="fill:#0000ff;stroke:#0000ff;stroke-linejoin:miter;" x="546.199456" xlink:href="#mb1ba98f64e" y="67.650241"/>
     <use style="fill:#0000ff;stroke:#0000ff;stroke-linejoin:miter;" x="587.701228" xlink:href="#mb1ba98f64e" y="69.745707"/>
     <use style="fill:#0000ff;stroke:#0000ff;stroke-linejoin:miter;" x="629.247293" xlink:href="#mb1ba98f64e" y="71.894098"/>
     <use style="fill:#0000ff;stroke:#0000ff;stroke-linejoin:miter;" x="670.758178" xlink:href="#mb1ba98f64e" y="74.069206"/>
    </g>
   </g>
   <g id="line2d_34">
    <path clip-path="url(#p243c1a337e)" d="M 89.578669 475.824949 
L 95.510693 123.537853 
L 101.47514 103.877762 
L 107.381934 94.865379 
L 113.318035 88.798406 
L 119.28252 84.242427 
L 125.190545 80.671713 
L 131.126887 77.732038 
L 137.090743 75.258251 
L 142.999655 73.17074 
L 148.936058 71.36255 
L 154.81898 69.803356 
L 160.808868 68.413436 
L 166.745266 67.202063 
L 172.629576 66.140918 
L 178.540589 65.196112 
L 184.477604 64.354085 
L 190.439965 63.603447 
L 196.351552 62.942473 
L 202.288479 62.353341 
L 208.250098 61.829229 
L 214.162214 61.369746 
L 220.099034 60.963059 
L 225.987542 60.609029 
L 231.90073 60.298604 
L 237.838013 60.028612 
L 243.798802 59.7961 
L 249.712424 59.600595 
L 255.649564 59.436862 
L 261.609665 59.302785 
L 267.523696 59.197556 
L 273.460694 59.117834 
L 279.352671 59.06256 
L 285.334553 59.029062 
L 291.204957 59.016949 
L 297.164257 59.024216 
L 303.079521 59.049695 
L 309.016727 59.092411 
L 314.975393 59.151471 
L 320.890989 59.225123 
L 326.828046 59.313227 
L 332.722947 59.41389 
L 338.702012 59.528642 
L 344.576644 59.653029 
L 350.534557 59.790308 
L 356.451185 59.937111 
L 362.388379 60.094272 
L 368.345717 60.261375 
L 374.262612 60.436107 
L 380.199651 60.619777 
L 386.097066 60.809991 
L 392.014607 61.008225 
L 397.951896 61.214144 
L 403.908528 61.427415 
L 409.826307 61.645558 
L 415.763435 61.870385 
L 421.662457 62.099332 
L 427.637543 62.336606 
L 433.574523 62.577416 
L 439.47412 62.821428 
L 445.392682 63.070731 
L 451.329869 63.325101 
L 457.285327 63.584317 
L 463.204084 63.845733 
L 469.141124 64.111604 
L 475.042126 64.379257 
L 480.961399 64.650976 
L 486.898616 64.926565 
L 492.853446 65.205886 
L 498.772891 65.486292 
L 504.709954 65.770124 
L 510.612255 66.054707 
L 516.583944 66.344971 
L 522.520864 66.635709 
L 528.423622 66.926808 
L 534.343684 67.220692 
L 540.280759 67.517249 
L 546.234556 67.81634 
L 552.154766 68.115347 
L 558.091699 68.416694 
L 563.995607 68.71779 
L 569.916226 69.02103 
L 575.853295 69.326358 
L 581.806541 69.633664 
L 587.727297 69.940357 
L 593.664223 70.248915 
L 599.569187 70.556694 
L 605.490328 70.866199 
L 611.427379 71.17732 
L 617.380086 71.489972 
L 623.301339 71.801649 
L 629.238254 72.114746 
L 635.144197 72.426786 
L 641.111947 72.742556 
L 647.002822 73.054735 
L 652.955024 73.370533 
L 658.876728 73.685079 
L 664.813613 74.000738 
L 670.720475 74.315061 
L 676.687259 74.63278 
L 682.580487 76.183704 
" style="fill:none;stroke:#ff0000;stroke-linecap:square;stroke-width:2;"/>
    <g clip-path="url(#p243c1a337e)">
     <use style="fill:#ff0000;stroke:#ff0000;" x="89.578669" xlink:href="#mf952e0a9ab" y="475.824949"/>
     <use style="fill:#ff0000;stroke:#ff0000;" x="131.126887" xlink:href="#mf952e0a9ab" y="77.732038"/>
     <use style="fill:#ff0000;stroke:#ff0000;" x="172.629576" xlink:href="#mf952e0a9ab" y="66.140918"/>
     <use style="fill:#ff0000;stroke:#ff0000;" x="214.162214" xlink:href="#mf952e0a9ab" y="61.369746"/>
     <use style="fill:#ff0000;stroke:#ff0000;" x="255.649564" xlink:href="#mf952e0a9ab" y="59.436862"/>
     <use style="fill:#ff0000;stroke:#ff0000;" x="297.164257" xlink:href="#mf952e0a9ab" y="59.024216"/>
     <use style="fill:#ff0000;stroke:#ff0000;" x="338.702012" xlink:href="#mf952e0a9ab" y="59.528642"/>
     <use style="fill:#ff0000;stroke:#ff0000;" x="380.199651" xlink:href="#mf952e0a9ab" y="60.619777"/>
     <use style="fill:#ff0000;stroke:#ff0000;" x="421.662457" xlink:href="#mf952e0a9ab" y="62.099332"/>
     <use style="fill:#ff0000;stroke:#ff0000;" x="463.204084" xlink:href="#mf952e0a9ab" y="63.845733"/>
     <use style="fill:#ff0000;stroke:#ff0000;" x="504.709954" xlink:href="#mf952e0a9ab" y="65.770124"/>
     <use style="fill:#ff0000;stroke:#ff0000;" x="546.234556" xlink:href="#mf952e0a9ab" y="67.81634"/>
     <use style="fill:#ff0000;stroke:#ff0000;" x="587.727297" xlink:href="#mf952e0a9ab" y="69.940357"/>
     <use style="fill:#ff0000;stroke:#ff0000;" x="629.238254" xlink:href="#mf952e0a9ab" y="72.114746"/>
     <use style="fill:#ff0000;stroke:#ff0000;" x="670.720475" xlink:href="#mf952e0a9ab" y="74.315061"/>
    </g>
   </g>
  </g>
 </g>
 <defs>
  <clipPath id="p243c1a337e">
   <rect height="458.4888" width="652.302" x="59.928578" y="38.176549"/>
  </clipPath>
 </defs>
</svg>
