<?xml version="1.0" encoding="utf-8" standalone="no"?>
<!DOCTYPE svg PUBLIC "-//W3C//DTD SVG 1.1//EN"
  "http://www.w3.org/Graphics/SVG/1.1/DTD/svg11.dtd">
<!-- Created with matplotlib (https://matplotlib.org/) -->
<svg height="541.725079pt" version="1.1" viewBox="0 0 699.536801 541.725079" width="699.536801pt" xmlns="http://www.w3.org/2000/svg" xmlns:xlink="http://www.w3.org/1999/xlink">
 <defs>
  <style type="text/css">
*{stroke-linecap:butt;stroke-linejoin:round;}
  </style>
 </defs>
 <g id="figure_1">
  <g id="patch_1">
   <path d="M 0 541.725079 
L 699.536801 541.725079 
L 699.536801 -0 
L 0 -0 
z
" style="fill:#ffffff;"/>
  </g>
  <g id="axes_1">
   <g id="patch_2">
    <path d="M 47.234801 496.665349 
L 699.536801 496.665349 
L 699.536801 38.176549 
L 47.234801 38.176549 
z
" style="fill:#ffffff;"/>
   </g>
   <g id="matplotlib.axis_1">
    <g id="xtick_1">
     <g id="line2d_1">
      <path clip-path="url(#pae56813a50)" d="M 76.884892 496.665349 
L 76.884892 38.176549 
" style="fill:none;stroke:#b0b0b0;stroke-linecap:square;stroke-width:0.8;"/>
     </g>
     <g id="line2d_2">
      <defs>
       <path d="M 0 0 
L 0 3.5 
" id="mbea1a19d84" style="stroke:#000000;stroke-width:0.8;"/>
      </defs>
      <g>
       <use style="stroke:#000000;stroke-width:0.8;" x="76.884892" xlink:href="#mbea1a19d84" y="496.665349"/>
      </g>
     </g>
     <g id="text_1">
      <!-- $0$ -->
      <defs>
       <path d="M 42 31.84375 
C 42 37.96875 41.90625 48.421875 37.703125 56.453125 
C 34 63.484375 28.09375 66 22.90625 66 
C 18.09375 66 12 63.78125 8.203125 56.5625 
C 4.203125 49.015625 3.796875 39.671875 3.796875 31.84375 
C 3.796875 26.109375 3.90625 17.375 7 9.734375 
C 11.296875 -0.609375 19 -2 22.90625 -2 
C 27.5 -2 34.5 -0.109375 38.59375 9.4375 
C 41.59375 16.375 42 24.5 42 31.84375 
z
M 22.90625 -0.40625 
C 16.5 -0.40625 12.703125 5.125 11.296875 12.75 
C 10.203125 18.6875 10.203125 27.328125 10.203125 32.953125 
C 10.203125 40.6875 10.203125 47.109375 11.5 53.234375 
C 13.40625 61.78125 19 64.390625 22.90625 64.390625 
C 27 64.390625 32.296875 61.671875 34.203125 53.4375 
C 35.5 47.71875 35.59375 40.984375 35.59375 32.953125 
C 35.59375 26.421875 35.59375 18.375 34.40625 12.453125 
C 32.296875 1.5 26.40625 -0.40625 22.90625 -0.40625 
z
" id="CMR17-48"/>
      </defs>
      <g transform="translate(72.982899 514.734937)scale(0.16 -0.16)">
       <use transform="scale(0.996264)" xlink:href="#CMR17-48"/>
      </g>
     </g>
    </g>
    <g id="xtick_2">
     <g id="line2d_3">
      <path clip-path="url(#pae56813a50)" d="M 151.010119 496.665349 
L 151.010119 38.176549 
" style="fill:none;stroke:#b0b0b0;stroke-linecap:square;stroke-width:0.8;"/>
     </g>
     <g id="line2d_4">
      <g>
       <use style="stroke:#000000;stroke-width:0.8;" x="151.010119" xlink:href="#mbea1a19d84" y="496.665349"/>
      </g>
     </g>
     <g id="text_2">
      <!-- $1$ -->
      <defs>
       <path d="M 26.59375 63.796875 
C 26.59375 65.890625 26.5 66 25.09375 66 
C 21.203125 61.359375 15.296875 59.890625 9.703125 59.6875 
C 9.40625 59.6875 8.90625 59.6875 8.796875 59.5 
C 8.703125 59.296875 8.703125 59.09375 8.703125 57 
C 11.796875 57 17 57.59375 21 59.984375 
L 21 7.296875 
C 21 3.796875 20.796875 2.59375 12.203125 2.59375 
L 9.203125 2.59375 
L 9.203125 0 
C 14 0.09375 19 0.1875 23.796875 0.1875 
C 28.59375 0.1875 33.59375 0.09375 38.40625 0 
L 38.40625 2.59375 
L 35.40625 2.59375 
C 26.796875 2.59375 26.59375 3.6875 26.59375 7.296875 
z
" id="CMR17-49"/>
      </defs>
      <g transform="translate(147.108126 514.734937)scale(0.16 -0.16)">
       <use transform="scale(0.996264)" xlink:href="#CMR17-49"/>
      </g>
     </g>
    </g>
    <g id="xtick_3">
     <g id="line2d_5">
      <path clip-path="url(#pae56813a50)" d="M 225.135347 496.665349 
L 225.135347 38.176549 
" style="fill:none;stroke:#b0b0b0;stroke-linecap:square;stroke-width:0.8;"/>
     </g>
     <g id="line2d_6">
      <g>
       <use style="stroke:#000000;stroke-width:0.8;" x="225.135347" xlink:href="#mbea1a19d84" y="496.665349"/>
      </g>
     </g>
     <g id="text_3">
      <!-- $2$ -->
      <defs>
       <path d="M 41.703125 15.46875 
L 39.90625 15.46875 
C 38.90625 8.390625 38.09375 7.1875 37.703125 6.59375 
C 37.203125 5.796875 30 5.796875 28.59375 5.796875 
L 9.40625 5.796875 
C 13 9.6875 20 16.765625 28.5 24.9375 
C 34.59375 30.71875 41.703125 37.5 41.703125 47.390625 
C 41.703125 59.1875 32.296875 66 21.796875 66 
C 10.796875 66 4.09375 56.296875 4.09375 47.296875 
C 4.09375 43.390625 7 42.890625 8.203125 42.890625 
C 9.203125 42.890625 12.203125 43.484375 12.203125 46.984375 
C 12.203125 50.09375 9.59375 51 8.203125 51 
C 7.59375 51 7 50.890625 6.59375 50.6875 
C 8.5 59.1875 14.296875 63.390625 20.40625 63.390625 
C 29.09375 63.390625 34.796875 56.5 34.796875 47.390625 
C 34.796875 38.703125 29.703125 31.21875 24 24.734375 
L 4.09375 2.296875 
L 4.09375 0 
L 39.296875 0 
z
" id="CMR17-50"/>
      </defs>
      <g transform="translate(221.233353 514.734937)scale(0.16 -0.16)">
       <use transform="scale(0.996264)" xlink:href="#CMR17-50"/>
      </g>
     </g>
    </g>
    <g id="xtick_4">
     <g id="line2d_7">
      <path clip-path="url(#pae56813a50)" d="M 299.260574 496.665349 
L 299.260574 38.176549 
" style="fill:none;stroke:#b0b0b0;stroke-linecap:square;stroke-width:0.8;"/>
     </g>
     <g id="line2d_8">
      <g>
       <use style="stroke:#000000;stroke-width:0.8;" x="299.260574" xlink:href="#mbea1a19d84" y="496.665349"/>
      </g>
     </g>
     <g id="text_4">
      <!-- $3$ -->
      <defs>
       <path d="M 22.09375 34 
C 31 34 34.90625 26.140625 34.90625 17.09375 
C 34.90625 5.03125 28.5 0.390625 22.703125 0.390625 
C 17.40625 0.390625 8.796875 3.015625 6.09375 10.796875 
C 6.59375 10.59375 7.09375 10.59375 7.59375 10.59375 
C 10 10.59375 11.796875 12.1875 11.796875 14.796875 
C 11.796875 17.6875 9.59375 19 7.59375 19 
C 5.90625 19 3.296875 18.1875 3.296875 14.484375 
C 3.296875 5.234375 12.296875 -2 22.90625 -2 
C 34 -2 42.5 6.75 42.5 16.984375 
C 42.5 26.84375 34.5 34 25 35.09375 
C 32.59375 36.671875 39.90625 43.375 39.90625 52.390625 
C 39.90625 60.25 32 66 23 66 
C 13.90625 66 5.90625 60.34375 5.90625 52.296875 
C 5.90625 48.796875 8.5 48.1875 9.796875 48.1875 
C 11.90625 48.1875 13.703125 49.484375 13.703125 52.09375 
C 13.703125 54.6875 11.90625 56 9.796875 56 
C 9.40625 56 8.90625 56 8.5 55.796875 
C 11.40625 62.484375 19.296875 63.6875 22.796875 63.6875 
C 26.296875 63.6875 32.90625 61.96875 32.90625 52.296875 
C 32.90625 49.484375 32.5 44.546875 29.09375 40.21875 
C 26.09375 36.390625 22.703125 36.1875 19.40625 35.890625 
C 18.90625 35.890625 16.59375 35.6875 16.203125 35.6875 
C 15.5 35.59375 15.09375 35.5 15.09375 34.796875 
C 15.09375 34.09375 15.203125 34 17.203125 34 
z
" id="CMR17-51"/>
      </defs>
      <g transform="translate(295.35858 514.734937)scale(0.16 -0.16)">
       <use transform="scale(0.996264)" xlink:href="#CMR17-51"/>
      </g>
     </g>
    </g>
    <g id="xtick_5">
     <g id="line2d_9">
      <path clip-path="url(#pae56813a50)" d="M 373.385801 496.665349 
L 373.385801 38.176549 
" style="fill:none;stroke:#b0b0b0;stroke-linecap:square;stroke-width:0.8;"/>
     </g>
     <g id="line2d_10">
      <g>
       <use style="stroke:#000000;stroke-width:0.8;" x="373.385801" xlink:href="#mbea1a19d84" y="496.665349"/>
      </g>
     </g>
     <g id="text_5">
      <!-- $4$ -->
      <defs>
       <path d="M 33.59375 64.796875 
C 33.59375 66.890625 33.5 67 31.703125 67 
L 2 19.59375 
L 2 17 
L 27.796875 17 
L 27.796875 7.1875 
C 27.796875 3.59375 27.59375 2.59375 20.59375 2.59375 
L 18.703125 2.59375 
L 18.703125 0 
C 21.90625 0.1875 27.296875 0.1875 30.703125 0.1875 
C 34.09375 0.1875 39.5 0.1875 42.703125 0 
L 42.703125 2.59375 
L 40.796875 2.59375 
C 33.796875 2.59375 33.59375 3.59375 33.59375 7.1875 
L 33.59375 17 
L 43.796875 17 
L 43.796875 19.59375 
L 33.59375 19.59375 
z
M 28.09375 58.171875 
L 28.09375 19.59375 
L 4 19.59375 
z
" id="CMR17-52"/>
      </defs>
      <g transform="translate(369.483808 514.734937)scale(0.16 -0.16)">
       <use transform="scale(0.996264)" xlink:href="#CMR17-52"/>
      </g>
     </g>
    </g>
    <g id="xtick_6">
     <g id="line2d_11">
      <path clip-path="url(#pae56813a50)" d="M 447.511029 496.665349 
L 447.511029 38.176549 
" style="fill:none;stroke:#b0b0b0;stroke-linecap:square;stroke-width:0.8;"/>
     </g>
     <g id="line2d_12">
      <g>
       <use style="stroke:#000000;stroke-width:0.8;" x="447.511029" xlink:href="#mbea1a19d84" y="496.665349"/>
      </g>
     </g>
     <g id="text_6">
      <!-- $5$ -->
      <defs>
       <path d="M 11.40625 58.59375 
C 12.40625 58.1875 16.5 56.890625 20.703125 56.890625 
C 30 56.890625 35.09375 61.890625 38 64.6875 
C 38 65.484375 38 66 37.40625 66 
C 37.296875 66 37.09375 66 36.296875 65.59375 
C 32.796875 64.09375 28.703125 63 23.703125 63 
C 20.703125 63 16.203125 63.359375 11.296875 65.484375 
C 10.203125 66 10 66 9.90625 66 
C 9.40625 66 9.296875 65.890625 9.296875 63.90625 
L 9.296875 34.859375 
C 9.296875 33.015625 9.296875 32.5 10.296875 32.5 
C 10.796875 32.5 11 32.703125 11.5 33.421875 
C 14.703125 38.046875 19.09375 40 24.09375 40 
C 27.59375 40 35.09375 37.734375 35.09375 20.203125 
C 35.09375 16.984375 35.09375 11.1875 32.09375 6.59375 
C 29.59375 2.484375 25.703125 0.390625 21.40625 0.390625 
C 14.796875 0.390625 8.09375 4.984375 6.296875 12.6875 
C 6.703125 12.59375 7.5 12.390625 7.90625 12.390625 
C 9.203125 12.390625 11.703125 13.09375 11.703125 16.1875 
C 11.703125 18.890625 9.796875 20 7.90625 20 
C 5.59375 20 4.09375 18.59375 4.09375 15.796875 
C 4.09375 7.09375 11 -2 21.59375 -2 
C 31.90625 -2 41.703125 6.890625 41.703125 19.796875 
C 41.703125 32.09375 33.90625 41.59375 24.203125 41.59375 
C 19.09375 41.59375 14.796875 39.6875 11.40625 36 
z
" id="CMR17-53"/>
      </defs>
      <g transform="translate(443.609035 514.734937)scale(0.16 -0.16)">
       <use transform="scale(0.996264)" xlink:href="#CMR17-53"/>
      </g>
     </g>
    </g>
    <g id="xtick_7">
     <g id="line2d_13">
      <path clip-path="url(#pae56813a50)" d="M 521.636256 496.665349 
L 521.636256 38.176549 
" style="fill:none;stroke:#b0b0b0;stroke-linecap:square;stroke-width:0.8;"/>
     </g>
     <g id="line2d_14">
      <g>
       <use style="stroke:#000000;stroke-width:0.8;" x="521.636256" xlink:href="#mbea1a19d84" y="496.665349"/>
      </g>
     </g>
     <g id="text_7">
      <!-- $6$ -->
      <defs>
       <path d="M 10.59375 34.34375 
C 10.59375 58 21.796875 63.6875 28.296875 63.6875 
C 30.40625 63.6875 35.5 63.265625 37.5 59.09375 
C 35.90625 59.09375 32.90625 59.09375 32.90625 55.59375 
C 32.90625 52.890625 35.09375 52 36.5 52 
C 37.40625 52 40.09375 52.390625 40.09375 55.796875 
C 40.09375 62.296875 35.09375 66 28.203125 66 
C 16.296875 66 3.796875 53.296875 3.796875 31.421875 
C 3.796875 4.015625 15.09375 -2 23.09375 -2 
C 32.796875 -2 42 6.734375 42 20.234375 
C 42 32.828125 33.90625 42 23.703125 42 
C 17.59375 42 13.09375 37.96875 10.59375 30.921875 
z
M 23.09375 0.390625 
C 10.796875 0.390625 10.796875 18.9375 10.796875 22.65625 
C 10.796875 29.90625 14.203125 40.390625 23.5 40.390625 
C 25.203125 40.390625 30.09375 40.390625 33.40625 33.4375 
C 35.203125 29.515625 35.203125 25.375 35.203125 20.34375 
C 35.203125 14.90625 35.203125 10.875 33.09375 6.84375 
C 30.90625 2.703125 27.703125 0.390625 23.09375 0.390625 
z
" id="CMR17-54"/>
      </defs>
      <g transform="translate(517.734262 514.734937)scale(0.16 -0.16)">
       <use transform="scale(0.996264)" xlink:href="#CMR17-54"/>
      </g>
     </g>
    </g>
    <g id="xtick_8">
     <g id="line2d_15">
      <path clip-path="url(#pae56813a50)" d="M 595.761483 496.665349 
L 595.761483 38.176549 
" style="fill:none;stroke:#b0b0b0;stroke-linecap:square;stroke-width:0.8;"/>
     </g>
     <g id="line2d_16">
      <g>
       <use style="stroke:#000000;stroke-width:0.8;" x="595.761483" xlink:href="#mbea1a19d84" y="496.665349"/>
      </g>
     </g>
     <g id="text_8">
      <!-- $7$ -->
      <defs>
       <path d="M 45.09375 61.796875 
L 45.09375 64 
L 21.59375 64 
C 9.90625 64 9.703125 65.09375 9.296875 67 
L 7.5 67 
L 4.59375 48.5 
L 6.40625 48.5 
C 6.703125 50.40625 7.40625 55.5 8.59375 57.390625 
C 9.203125 58.1875 16.59375 58.1875 18.296875 58.1875 
L 40.296875 58.1875 
L 29.203125 41.71875 
C 21.796875 30.640625 16.703125 15.671875 16.703125 2.59375 
C 16.703125 1.390625 16.703125 -2 20.296875 -2 
C 23.90625 -2 23.90625 1.390625 23.90625 2.6875 
L 23.90625 7.28125 
C 23.90625 23.65625 26.703125 34.4375 31.296875 41.3125 
z
" id="CMR17-55"/>
      </defs>
      <g transform="translate(591.85949 514.734937)scale(0.16 -0.16)">
       <use transform="scale(0.996264)" xlink:href="#CMR17-55"/>
      </g>
     </g>
    </g>
    <g id="xtick_9">
     <g id="line2d_17">
      <path clip-path="url(#pae56813a50)" d="M 669.88671 496.665349 
L 669.88671 38.176549 
" style="fill:none;stroke:#b0b0b0;stroke-linecap:square;stroke-width:0.8;"/>
     </g>
     <g id="line2d_18">
      <g>
       <use style="stroke:#000000;stroke-width:0.8;" x="669.88671" xlink:href="#mbea1a19d84" y="496.665349"/>
      </g>
     </g>
     <g id="text_9">
      <!-- $8$ -->
      <defs>
       <path d="M 27.203125 35.765625 
C 33.5 38.96875 39.90625 43.796875 39.90625 51.53125 
C 39.90625 60.6875 31.09375 66 23 66 
C 13.90625 66 5.90625 59.375 5.90625 50.234375 
C 5.90625 47.71875 6.5 43.390625 10.40625 39.578125 
C 11.40625 38.578125 15.59375 35.5625 18.296875 33.65625 
C 13.796875 31.34375 3.296875 25.8125 3.296875 14.765625 
C 3.296875 4.40625 13.09375 -2 22.796875 -2 
C 33.5 -2 42.5 5.71875 42.5 15.96875 
C 42.5 25.109375 36.40625 29.328125 32.40625 32.046875 
z
M 14.09375 44.609375 
C 13.296875 45.109375 9.296875 48.21875 9.296875 52.9375 
C 9.296875 59.078125 15.59375 63.6875 22.796875 63.6875 
C 30.703125 63.6875 36.5 58.0625 36.5 51.53125 
C 36.5 42.1875 26.09375 36.859375 25.59375 36.859375 
C 25.5 36.859375 25.40625 36.859375 24.59375 37.46875 
z
M 32.5 24 
C 34 22.90625 38.796875 19.578125 38.796875 13.453125 
C 38.796875 6.015625 31.40625 0.390625 23 0.390625 
C 13.90625 0.390625 7 6.921875 7 14.859375 
C 7 22.796875 13.09375 29.4375 20 32.546875 
z
" id="CMR17-56"/>
      </defs>
      <g transform="translate(665.984717 514.734937)scale(0.16 -0.16)">
       <use transform="scale(0.996264)" xlink:href="#CMR17-56"/>
      </g>
     </g>
    </g>
    <g id="text_10">
     <!-- $Time\ (s)$ -->
     <defs>
      <path d="M 41.703125 60.71875 
C 42.296875 63.09375 42.5 64 44 64.390625 
C 44.796875 64.59375 48.09375 64.59375 50.203125 64.59375 
C 60.203125 64.59375 64.90625 64.203125 64.90625 56.4375 
C 64.90625 54.9375 64.5 51.15625 63.90625 47.46875 
L 63.796875 46.28125 
C 63.796875 45.890625 64.203125 45.28125 64.796875 45.28125 
C 65.796875 45.28125 65.796875 45.78125 66.09375 47.375 
L 69 64.984375 
C 69.203125 65.890625 69.203125 66.09375 69.203125 66.390625 
C 69.203125 67.484375 68.59375 67.484375 66.59375 67.484375 
L 11.90625 67.484375 
C 9.59375 67.484375 9.5 67.390625 8.90625 65.59375 
L 2.796875 47.671875 
C 2.703125 47.46875 2.40625 46.375 2.40625 46.28125 
C 2.40625 45.78125 2.796875 45.28125 3.40625 45.28125 
C 4.203125 45.28125 4.40625 45.6875 4.796875 46.984375 
C 9 59.015625 11.09375 64.59375 24.40625 64.59375 
L 31.09375 64.59375 
C 33.5 64.59375 34.5 64.59375 34.5 63.5 
C 34.5 63.203125 34.5 63 34 61.203125 
L 20.59375 7.765625 
C 19.59375 3.890625 19.40625 2.890625 8.796875 2.890625 
C 6.296875 2.890625 5.59375 2.890625 5.59375 1 
C 5.59375 0 6.703125 0 7.203125 0 
C 9.703125 0 12.296875 0.1875 14.796875 0.1875 
L 30.40625 0.1875 
C 32.90625 0.1875 35.59375 0 38.09375 0 
C 39.203125 0 40.203125 0 40.203125 1.890625 
C 40.203125 2.890625 39.5 2.890625 36.90625 2.890625 
C 27.90625 2.890625 27.90625 3.78125 27.90625 5.28125 
C 27.90625 5.375 27.90625 6.078125 28.296875 7.671875 
z
" id="CMMI12-84"/>
      <path d="M 28.296875 14.265625 
C 28.296875 14.765625 27.90625 15.15625 27.296875 15.15625 
C 26.40625 15.15625 26.296875 14.859375 25.796875 13.15625 
C 23.203125 4.078125 19.09375 1 15.796875 1 
C 14.59375 1 13.203125 1.296875 13.203125 4.28125 
C 13.203125 6.984375 14.40625 9.96875 15.5 12.96875 
L 22.5 31.515625 
C 22.796875 32.3125 23.5 34.109375 23.5 36.015625 
C 23.5 40.203125 20.5 44 15.59375 44 
C 6.40625 44 2.703125 29.53125 2.703125 28.71875 
C 2.703125 28.328125 3.09375 27.828125 3.796875 27.828125 
C 4.703125 27.828125 4.796875 28.234375 5.203125 29.625 
C 7.59375 38 11.40625 41.984375 15.296875 41.984375 
C 16.203125 41.984375 17.90625 41.890625 17.90625 38.703125 
C 17.90625 36.109375 16.59375 32.8125 15.796875 30.625 
L 8.796875 12.0625 
C 8.203125 10.46875 7.59375 8.875 7.59375 7.078125 
C 7.59375 2.59375 10.703125 -1 15.5 -1 
C 24.703125 -1 28.296875 13.5625 28.296875 14.265625 
z
M 27.5 62.6875 
C 27.5 64.1875 26.296875 66 24.09375 66 
C 21.796875 66 19.203125 63.796875 19.203125 61.1875 
C 19.203125 58.6875 21.296875 57.890625 22.5 57.890625 
C 25.203125 57.890625 27.5 60.484375 27.5 62.6875 
z
" id="CMMI12-105"/>
      <path d="M 20.59375 29.21875 
C 20.796875 29.828125 23.296875 34.8125 27 38 
C 29.59375 40.390625 33 41.984375 36.90625 41.984375 
C 40.90625 41.984375 42.296875 39 42.296875 35.015625 
C 42.296875 34.40625 42.296875 32.421875 41.09375 27.734375 
L 38.59375 17.453125 
C 37.796875 14.453125 35.90625 7.078125 35.703125 5.984375 
C 35.296875 4.484375 34.703125 1.890625 34.703125 1.484375 
C 34.703125 0.09375 35.796875 -1 37.296875 -1 
C 40.296875 -1 40.796875 1.296875 41.703125 4.890625 
L 47.703125 28.71875 
C 47.90625 29.53125 53.09375 41.984375 64.09375 41.984375 
C 68.09375 41.984375 69.5 39 69.5 35.015625 
C 69.5 29.421875 65.59375 18.546875 63.40625 12.5625 
C 62.5 10.171875 62 8.875 62 7.078125 
C 62 2.59375 65.09375 -1 69.90625 -1 
C 79.203125 -1 82.703125 13.65625 82.703125 14.265625 
C 82.703125 14.765625 82.296875 15.15625 81.703125 15.15625 
C 80.796875 15.15625 80.703125 14.859375 80.203125 13.15625 
C 77.90625 5.1875 74.203125 1 70.203125 1 
C 69.203125 1 67.59375 1.09375 67.59375 4.28125 
C 67.59375 6.875 68.796875 10.078125 69.203125 11.171875 
C 71 15.953125 75.5 27.734375 75.5 33.515625 
C 75.5 39.5 72 44 64.40625 44 
C 57.703125 44 52.296875 40.203125 48.296875 34.3125 
C 48 39.703125 44.703125 44 37.203125 44 
C 28.296875 44 23.59375 37.703125 21.796875 35.203125 
C 21.5 40.890625 17.40625 44 13 44 
C 10.09375 44 7.796875 42.59375 5.90625 38.796875 
C 4.09375 35.203125 2.703125 29.125 2.703125 28.71875 
C 2.703125 28.328125 3.09375 27.828125 3.796875 27.828125 
C 4.59375 27.828125 4.703125 27.921875 5.296875 30.21875 
C 6.796875 36.109375 8.703125 41.984375 12.703125 41.984375 
C 15 41.984375 15.796875 40.390625 15.796875 37.40625 
C 15.796875 35.203125 14.796875 31.3125 14.09375 28.234375 
L 11.296875 17.453125 
C 10.90625 15.5625 9.796875 11.0625 9.296875 9.265625 
C 8.59375 6.671875 7.5 1.984375 7.5 1.484375 
C 7.5 0.09375 8.59375 -1 10.09375 -1 
C 11.296875 -1 12.703125 -0.40625 13.5 1.09375 
C 13.703125 1.59375 14.59375 5.078125 15.09375 7.078125 
L 17.296875 16.0625 
z
" id="CMMI12-109"/>
      <path d="M 17.90625 23 
C 20.59375 23 27.40625 23.1875 32.203125 25 
C 39.796875 27.90625 40.5 33.75 40.5 35.546875 
C 40.5 39.984375 36.703125 44 30.09375 44 
C 19.59375 44 4.5 34.453125 4.5 16.65625 
C 4.5 6.25 10.5 -1 19.59375 -1 
C 33.203125 -1 41.796875 9.515625 41.796875 10.796875 
C 41.796875 11.390625 41.203125 11.890625 40.796875 11.890625 
C 40.5 11.890625 40.40625 11.796875 39.5 10.90625 
C 33.09375 2.484375 23.59375 1 19.796875 1 
C 14.09375 1 11.09375 5.453125 11.09375 12.78125 
C 11.09375 14.171875 11.09375 16.65625 12.59375 23 
z
M 13.09375 25 
C 17.40625 40.484375 26.90625 41.984375 30.09375 41.984375 
C 34.5 41.984375 37.5 39.375 37.5 35.546875 
C 37.5 25 21.5 25 17.296875 25 
z
" id="CMMI12-101"/>
      <path d="M 30.59375 -24.40625 
C 30.59375 -24.3125 30.59375 -24.109375 30.296875 -23.8125 
C 25.703125 -19.109375 13.40625 -6.296875 13.40625 24.9375 
C 13.40625 56.171875 25.5 68.875 30.40625 73.890625 
C 30.40625 73.984375 30.59375 74.1875 30.59375 74.484375 
C 30.59375 74.796875 30.296875 75 29.90625 75 
C 28.796875 75 20.296875 67.578125 15.40625 56.5625 
C 10.40625 45.453125 9 34.65625 9 25.046875 
C 9 17.828125 9.703125 5.625 15.703125 -7.296875 
C 20.5 -17.703125 28.703125 -25 29.90625 -25 
C 30.40625 -25 30.59375 -24.8125 30.59375 -24.40625 
z
" id="CMR17-40"/>
      <path d="M 22.796875 20.15625 
C 24.5 19.859375 27.203125 19.265625 27.796875 19.171875 
C 29.09375 18.765625 33.59375 17.171875 33.59375 12.390625 
C 33.59375 9.296875 30.796875 1 19.203125 1 
C 17.09375 1 9.59375 1.296875 7.59375 6.984375 
C 11.59375 6.46875 13.59375 9.59375 13.59375 11.796875 
C 13.59375 13.890625 12.203125 15 10.203125 15 
C 8 15 5.09375 13.296875 5.09375 8.796875 
C 5.09375 2.75 11.09375 -1 19.09375 -1 
C 34.296875 -1 38.796875 10.390625 38.796875 15.59375 
C 38.796875 17.078125 38.796875 19.859375 35.59375 23.046875 
C 33.09375 25.421875 30.703125 25.921875 25.296875 27.015625 
C 22.59375 27.609375 18.296875 28.5 18.296875 32.984375 
C 18.296875 34.984375 20.09375 41.984375 29.59375 41.984375 
C 33.796875 41.984375 37.90625 40.453125 38.90625 37 
C 34.5 37 34.296875 33.1875 34.296875 33.09375 
C 34.296875 30.984375 36.203125 30.390625 37.09375 30.390625 
C 38.5 30.390625 41.296875 31.484375 41.296875 35.6875 
C 41.296875 39.78125 37.5 44 29.703125 44 
C 16.59375 44 13.09375 33.890625 13.09375 29.796875 
C 13.09375 22.25 20.5 20.65625 22.796875 20.15625 
z
" id="CMMI12-115"/>
      <path d="M 26.296875 24.9375 
C 26.296875 32.140625 25.59375 44.359375 19.59375 57.265625 
C 14.796875 67.6875 6.59375 75 5.40625 75 
C 5.09375 75 4.703125 74.890625 4.703125 74.390625 
C 4.703125 74.1875 4.796875 74.09375 4.90625 73.890625 
C 9.703125 68.875 21.90625 56.171875 21.90625 25.046875 
C 21.90625 -6.1875 9.796875 -18.90625 4.90625 -23.90625 
C 4.796875 -24.109375 4.703125 -24.203125 4.703125 -24.40625 
C 4.703125 -24.90625 5.09375 -25 5.40625 -25 
C 6.5 -25 15 -17.609375 19.90625 -6.59375 
C 24.90625 4.515625 26.296875 15.328125 26.296875 24.9375 
z
" id="CMR17-41"/>
     </defs>
     <g transform="translate(335.15759 536.760435)scale(0.2 -0.2)">
      <use transform="scale(0.996264)" xlink:href="#CMMI12-84"/>
      <use transform="translate(70.723632 0)scale(0.996264)" xlink:href="#CMMI12-105"/>
      <use transform="translate(104.002234 0)scale(0.996264)" xlink:href="#CMMI12-109"/>
      <use transform="translate(189.329459 0)scale(0.996264)" xlink:href="#CMMI12-101"/>
      <use transform="translate(265.770572 0)scale(0.996264)" xlink:href="#CMR17-40"/>
      <use transform="translate(301.05134 0)scale(0.996264)" xlink:href="#CMMI12-115"/>
      <use transform="translate(347.001388 0)scale(0.996264)" xlink:href="#CMR17-41"/>
     </g>
    </g>
    <g id="text_11">
     <!-- $\times10^{-5}$ -->
     <defs>
      <path d="M 38.90625 27.734375 
L 18.90625 47.59375 
C 17.703125 48.796875 17.5 49 16.703125 49 
C 15.703125 49 14.703125 48.09375 14.703125 47 
C 14.703125 46.296875 14.90625 46.09375 16 45 
L 36 24.9375 
L 16 4.890625 
C 14.90625 3.796875 14.703125 3.59375 14.703125 2.890625 
C 14.703125 1.796875 15.703125 0.890625 16.703125 0.890625 
C 17.5 0.890625 17.703125 1.09375 18.90625 2.296875 
L 38.796875 22.15625 
L 59.5 1.484375 
C 59.703125 1.390625 60.40625 0.890625 61 0.890625 
C 62.203125 0.890625 63 1.796875 63 2.890625 
C 63 3.09375 63 3.484375 62.703125 3.984375 
C 62.59375 4.1875 46.703125 19.859375 41.703125 24.9375 
L 60 43.203125 
C 60.5 43.796875 62 45.09375 62.5 45.703125 
C 62.59375 45.890625 63 46.296875 63 47 
C 63 48.09375 62.203125 49 61 49 
C 60.203125 49 59.796875 48.59375 58.703125 47.5 
z
" id="CMSY10-2"/>
      <path d="M 65.90625 23 
C 67.59375 23 69.40625 23 69.40625 25 
C 69.40625 27 67.59375 27 65.90625 27 
L 11.796875 27 
C 10.09375 27 8.296875 27 8.296875 25 
C 8.296875 23 10.09375 23 11.796875 23 
z
" id="CMSY10-0"/>
     </defs>
     <g transform="translate(657.273216 532.038659)scale(0.16 -0.16)">
      <use transform="scale(0.996264)" xlink:href="#CMSY10-2"/>
      <use transform="translate(77.487468 0)scale(0.996264)" xlink:href="#CMR17-49"/>
      <use transform="translate(123.177945 0)scale(0.996264)" xlink:href="#CMR17-48"/>
      <use transform="translate(168.868422 36.153639)scale(0.697382)" xlink:href="#CMSY10-0"/>
      <use transform="translate(223.109415 36.153639)scale(0.697382)" xlink:href="#CMR17-53"/>
     </g>
    </g>
   </g>
   <g id="matplotlib.axis_2">
    <g id="ytick_1">
     <g id="line2d_19">
      <path clip-path="url(#pae56813a50)" d="M 47.234801 430.443514 
L 699.536801 430.443514 
" style="fill:none;stroke:#b0b0b0;stroke-linecap:square;stroke-width:0.8;"/>
     </g>
     <g id="line2d_20">
      <defs>
       <path d="M 0 0 
L -3.5 0 
" id="m7fd0c3867e" style="stroke:#000000;stroke-width:0.8;"/>
      </defs>
      <g>
       <use style="stroke:#000000;stroke-width:0.8;" x="47.234801" xlink:href="#m7fd0c3867e" y="430.443514"/>
      </g>
     </g>
     <g id="text_12">
      <!-- $27$ -->
      <g transform="translate(24.626827 435.978308)scale(0.16 -0.16)">
       <use transform="scale(0.996264)" xlink:href="#CMR17-50"/>
       <use transform="translate(45.690477 0)scale(0.996264)" xlink:href="#CMR17-55"/>
      </g>
     </g>
    </g>
    <g id="ytick_2">
     <g id="line2d_21">
      <path clip-path="url(#pae56813a50)" d="M 47.234801 361.660836 
L 699.536801 361.660836 
" style="fill:none;stroke:#b0b0b0;stroke-linecap:square;stroke-width:0.8;"/>
     </g>
     <g id="line2d_22">
      <g>
       <use style="stroke:#000000;stroke-width:0.8;" x="47.234801" xlink:href="#m7fd0c3867e" y="361.660836"/>
      </g>
     </g>
     <g id="text_13">
      <!-- $28$ -->
      <g transform="translate(24.626827 367.19563)scale(0.16 -0.16)">
       <use transform="scale(0.996264)" xlink:href="#CMR17-50"/>
       <use transform="translate(45.690477 0)scale(0.996264)" xlink:href="#CMR17-56"/>
      </g>
     </g>
    </g>
    <g id="ytick_3">
     <g id="line2d_23">
      <path clip-path="url(#pae56813a50)" d="M 47.234801 292.878158 
L 699.536801 292.878158 
" style="fill:none;stroke:#b0b0b0;stroke-linecap:square;stroke-width:0.8;"/>
     </g>
     <g id="line2d_24">
      <g>
       <use style="stroke:#000000;stroke-width:0.8;" x="47.234801" xlink:href="#m7fd0c3867e" y="292.878158"/>
      </g>
     </g>
     <g id="text_14">
      <!-- $29$ -->
      <defs>
       <path d="M 35.203125 29.234375 
C 35.203125 7 26.09375 0.390625 18.59375 0.390625 
C 16.296875 0.390625 10.703125 0.671875 8.40625 4.390625 
C 11 4 12.90625 5.390625 12.90625 7.890625 
C 12.90625 10.59375 10.703125 11.5 9.296875 11.5 
C 8.40625 11.5 5.703125 11.09375 5.703125 7.6875 
C 5.703125 1.0625 11.59375 -2 18.796875 -2 
C 30.296875 -2 42 10.390625 42 32.65625 
C 42 60.265625 30.796875 66 23.203125 66 
C 13.296875 66 3.796875 57.25 3.796875 43.75 
C 3.796875 31.25 11.90625 22 22.09375 22 
C 30.5 22 34.203125 29.84375 35.203125 33.15625 
z
M 22.296875 23.59375 
C 19.59375 23.59375 15.796875 24.09375 12.703125 30.140625 
C 10.59375 34.078125 10.59375 38.703125 10.59375 43.640625 
C 10.59375 49.59375 10.59375 53.71875 13.40625 58.15625 
C 14.796875 60.265625 17.40625 63.6875 23.203125 63.6875 
C 35 63.6875 35 45.453125 35 41.421875 
C 35 34.265625 31.796875 23.59375 22.296875 23.59375 
z
" id="CMR17-57"/>
      </defs>
      <g transform="translate(24.626827 298.412952)scale(0.16 -0.16)">
       <use transform="scale(0.996264)" xlink:href="#CMR17-50"/>
       <use transform="translate(45.690477 0)scale(0.996264)" xlink:href="#CMR17-57"/>
      </g>
     </g>
    </g>
    <g id="ytick_4">
     <g id="line2d_25">
      <path clip-path="url(#pae56813a50)" d="M 47.234801 224.09548 
L 699.536801 224.09548 
" style="fill:none;stroke:#b0b0b0;stroke-linecap:square;stroke-width:0.8;"/>
     </g>
     <g id="line2d_26">
      <g>
       <use style="stroke:#000000;stroke-width:0.8;" x="47.234801" xlink:href="#m7fd0c3867e" y="224.09548"/>
      </g>
     </g>
     <g id="text_15">
      <!-- $30$ -->
      <g transform="translate(24.626827 229.630274)scale(0.16 -0.16)">
       <use transform="scale(0.996264)" xlink:href="#CMR17-51"/>
       <use transform="translate(45.690477 0)scale(0.996264)" xlink:href="#CMR17-48"/>
      </g>
     </g>
    </g>
    <g id="ytick_5">
     <g id="line2d_27">
      <path clip-path="url(#pae56813a50)" d="M 47.234801 155.312803 
L 699.536801 155.312803 
" style="fill:none;stroke:#b0b0b0;stroke-linecap:square;stroke-width:0.8;"/>
     </g>
     <g id="line2d_28">
      <g>
       <use style="stroke:#000000;stroke-width:0.8;" x="47.234801" xlink:href="#m7fd0c3867e" y="155.312803"/>
      </g>
     </g>
     <g id="text_16">
      <!-- $31$ -->
      <g transform="translate(24.626827 160.847597)scale(0.16 -0.16)">
       <use transform="scale(0.996264)" xlink:href="#CMR17-51"/>
       <use transform="translate(45.690477 0)scale(0.996264)" xlink:href="#CMR17-49"/>
      </g>
     </g>
    </g>
    <g id="ytick_6">
     <g id="line2d_29">
      <path clip-path="url(#pae56813a50)" d="M 47.234801 86.530125 
L 699.536801 86.530125 
" style="fill:none;stroke:#b0b0b0;stroke-linecap:square;stroke-width:0.8;"/>
     </g>
     <g id="line2d_30">
      <g>
       <use style="stroke:#000000;stroke-width:0.8;" x="47.234801" xlink:href="#m7fd0c3867e" y="86.530125"/>
      </g>
     </g>
     <g id="text_17">
      <!-- $32$ -->
      <g transform="translate(24.626827 92.064919)scale(0.16 -0.16)">
       <use transform="scale(0.996264)" xlink:href="#CMR17-51"/>
       <use transform="translate(45.690477 0)scale(0.996264)" xlink:href="#CMR17-50"/>
      </g>
     </g>
    </g>
    <g id="text_18">
     <!-- $Height\ H_f\ (mm)$ -->
     <defs>
      <path d="M 74.796875 60.71875 
C 75.703125 64.09375 75.90625 65.09375 83 65.09375 
C 84.796875 65.09375 85.796875 65.09375 85.796875 66.890625 
C 85.796875 68 84.90625 68 84.296875 68 
C 82.5 68 80.40625 67.796875 78.5 67.796875 
L 66.703125 67.796875 
C 64.796875 67.796875 62.703125 68 60.796875 68 
C 60.09375 68 58.90625 68 58.90625 66.09375 
C 58.90625 65.09375 59.59375 65.09375 61.5 65.09375 
C 67.5 65.09375 67.5 64.296875 67.5 63.203125 
C 67.5 63 67.5 62.40625 67.09375 60.921875 
L 61 36.890625 
L 30.796875 36.890625 
L 36.796875 60.71875 
C 37.703125 64.09375 37.90625 65.09375 45 65.09375 
C 46.796875 65.09375 47.796875 65.09375 47.796875 66.890625 
C 47.796875 68 46.90625 68 46.296875 68 
C 44.5 68 42.40625 67.796875 40.5 67.796875 
L 28.703125 67.796875 
C 26.796875 67.796875 24.703125 68 22.796875 68 
C 22.09375 68 20.90625 68 20.90625 66.09375 
C 20.90625 65.09375 21.59375 65.09375 23.5 65.09375 
C 29.5 65.09375 29.5 64.296875 29.5 63.203125 
C 29.5 63 29.5 62.40625 29.09375 60.921875 
L 15.59375 7.375 
C 14.703125 3.890625 14.5 2.890625 7.59375 2.890625 
C 5.296875 2.890625 4.59375 2.890625 4.59375 1 
C 4.59375 0 5.703125 0 6 0 
C 7.796875 0 9.90625 0.1875 11.796875 0.1875 
L 23.59375 0.1875 
C 25.5 0.1875 27.59375 0 29.5 0 
C 30.296875 0 31.40625 0 31.40625 1.890625 
C 31.40625 2.890625 30.5 2.890625 29 2.890625 
C 22.90625 2.890625 22.90625 3.6875 22.90625 4.6875 
C 22.90625 4.78125 22.90625 5.484375 23.09375 6.28125 
L 30 34 
L 60.296875 34 
C 58.59375 27.421875 53.5 6.578125 53.296875 5.984375 
C 52.203125 2.984375 50.59375 2.984375 44.703125 2.890625 
C 43.5 2.890625 42.59375 2.890625 42.59375 1 
C 42.59375 0 43.703125 0 44 0 
C 45.796875 0 47.90625 0.1875 49.796875 0.1875 
L 61.59375 0.1875 
C 63.5 0.1875 65.59375 0 67.5 0 
C 68.296875 0 69.40625 0 69.40625 1.890625 
C 69.40625 2.890625 68.5 2.890625 67 2.890625 
C 60.90625 2.890625 60.90625 3.6875 60.90625 4.6875 
C 60.90625 4.78125 60.90625 5.484375 61.09375 6.28125 
z
" id="CMMI12-72"/>
      <path d="M 33.796875 12.671875 
C 33.40625 11.0625 33.203125 10.671875 31.90625 9.171875 
C 27.796875 3.890625 23.59375 2 20.5 2 
C 17.203125 2 14.09375 4.578125 14.09375 11.46875 
C 14.09375 16.75 17.09375 27.921875 19.296875 32.421875 
C 22.203125 38 26.703125 41.984375 30.90625 41.984375 
C 37.5 41.984375 38.796875 33.8125 38.796875 33.21875 
L 38.5 31.8125 
z
M 40 37.40625 
C 38.703125 40.296875 35.90625 44 30.90625 44 
C 20 44 7.59375 30.328125 7.59375 15.453125 
C 7.59375 5.078125 13.90625 0 20.296875 0 
C 25.59375 0 30.296875 4.1875 32.09375 6.1875 
L 29.90625 -2.75 
C 28.5 -8.125 27.90625 -10.578125 24.296875 -14 
C 20.203125 -18 16.40625 -18 14.203125 -18 
C 11.203125 -18 8.703125 -17.8125 6.203125 -17.03125 
C 9.40625 -16.15625 10.203125 -13.40625 10.203125 -12.328125 
C 10.203125 -10.765625 9 -9.203125 6.796875 -9.203125 
C 4.40625 -9.203125 1.796875 -11.15625 1.796875 -14.390625 
C 1.796875 -18.40625 5.90625 -20 14.40625 -20 
C 27.296875 -20 34 -11.84375 35.296875 -6.5625 
L 46.40625 37.90625 
C 46.703125 39.09375 46.703125 39.296875 46.703125 39.5 
C 46.703125 40.890625 45.59375 42 44.09375 42 
C 41.703125 42 40.296875 40 40 37.3125 
z
" id="CMMI12-103"/>
      <path d="M 28.09375 66.484375 
C 28.203125 66.890625 28.40625 67.484375 28.40625 67.984375 
C 28.40625 69 27.40625 69 27.203125 69 
C 27.09375 69 22.203125 68.59375 21.703125 68.484375 
C 20 68.390625 18.5 68.1875 16.703125 68.09375 
C 14.203125 67.890625 13.5 67.796875 13.5 65.984375 
C 13.5 64.984375 14.296875 64.984375 15.703125 64.984375 
C 20.59375 64.984375 20.703125 64.109375 20.703125 63.125 
C 20.703125 62.53125 20.5 61.734375 20.40625 61.4375 
L 5.90625 3.890625 
C 5.5 2.390625 5.5 2.1875 5.5 1.59375 
C 5.5 -0.609375 7.203125 -1 8.203125 -1 
C 9.90625 -1 11.203125 0.296875 11.703125 1.390625 
L 16.203125 19.453125 
C 16.703125 21.640625 17.296875 23.734375 17.796875 25.9375 
C 18.90625 30.125 18.90625 30.21875 20.796875 33.109375 
C 22.703125 36.015625 27.203125 41.984375 34.90625 41.984375 
C 38.90625 41.984375 40.296875 39 40.296875 35.015625 
C 40.296875 29.421875 36.40625 18.546875 34.203125 12.5625 
C 33.296875 10.171875 32.796875 8.875 32.796875 7.078125 
C 32.796875 2.59375 35.90625 -1 40.703125 -1 
C 50 -1 53.5 13.65625 53.5 14.265625 
C 53.5 14.765625 53.09375 15.15625 52.5 15.15625 
C 51.59375 15.15625 51.5 14.859375 51 13.15625 
C 48.703125 5.1875 45 1 41 1 
C 40 1 38.40625 1.09375 38.40625 4.28125 
C 38.40625 6.875 39.59375 10.078125 40 11.171875 
C 41.796875 15.953125 46.296875 27.734375 46.296875 33.515625 
C 46.296875 39.5 42.796875 44 35.203125 44 
C 29.5 44 24.5 41.296875 20.40625 36.109375 
z
" id="CMMI12-104"/>
      <path d="M 20.09375 40.09375 
L 29.296875 40.09375 
C 31.203125 40.09375 32.203125 40.09375 32.203125 41.890625 
C 32.203125 43 31.59375 43 29.59375 43 
L 20.796875 43 
L 24.5 57.25 
C 24.90625 58.625 24.90625 58.8125 24.90625 59.5 
C 24.90625 61.09375 23.59375 62 22.296875 62 
C 21.5 62 19.203125 61.6875 18.40625 58.53125 
L 14.5 43 
L 5.09375 43 
C 3.09375 43 2.203125 43 2.203125 41.09375 
C 2.203125 40.09375 2.90625 40.09375 4.796875 40.09375 
L 13.703125 40.09375 
L 7.09375 13.765625 
C 6.296875 10.265625 6 9.265625 6 7.96875 
C 6 3.28125 9.296875 -1 14.90625 -1 
C 25 -1 30.40625 13.5625 30.40625 14.265625 
C 30.40625 14.859375 30 15.15625 29.40625 15.15625 
C 29.203125 15.15625 28.796875 15.15625 28.59375 14.75 
C 28.5 14.65625 28.40625 14.5625 27.703125 12.96875 
C 25.59375 7.96875 21 1 15.203125 1 
C 12.203125 1 12 3.484375 12 5.6875 
C 12 5.78125 12 7.671875 12.296875 8.875 
z
" id="CMMI12-116"/>
      <path d="M 44.59375 40.09375 
C 46.59375 40.09375 47.40625 40.09375 47.40625 41.984375 
C 47.40625 43 46.59375 43 44.796875 43 
L 36.703125 43 
C 38.59375 53.09375 40 60.09375 40.796875 63.296875 
C 41.40625 65.6875 43.5 67.984375 46.09375 67.984375 
C 48.203125 67.984375 50.296875 67.09375 51.296875 66.1875 
C 47.40625 65.796875 46.203125 62.890625 46.203125 61.1875 
C 46.203125 59.1875 47.703125 58 49.59375 58 
C 51.59375 58 54.59375 59.6875 54.59375 63.5 
C 54.59375 67.6875 50.40625 70 46 70 
C 41.703125 70 37.5 66.796875 35.5 62.890625 
C 33.703125 59.390625 32.703125 55.828125 30.40625 43 
L 23.703125 43 
C 21.796875 43 20.796875 43 20.796875 41.1875 
C 20.796875 40.09375 21.40625 40.09375 23.40625 40.09375 
L 29.796875 40.09375 
C 28 30.890625 23.90625 8.515625 21.59375 -2.0625 
C 19.90625 -10.703125 18.40625 -18 13.40625 -18 
C 13.09375 -18 10.203125 -18 8.40625 -16.109375 
C 13.5 -15.703125 13.5 -11.3125 13.5 -11.203125 
C 13.5 -9.203125 12 -8 10.09375 -8 
C 8.09375 -8 5.09375 -9.703125 5.09375 -13.515625 
C 5.09375 -17.8125 9.5 -20 13.40625 -20 
C 23.59375 -20 27.796875 -1.765625 28.90625 3.171875 
C 30.703125 10.796875 35.59375 37.125 36.09375 40.09375 
z
" id="CMMI12-102"/>
     </defs>
     <g transform="translate(16.751194 341.098188)rotate(-90)scale(0.2 -0.2)">
      <use transform="translate(0 14.943915)scale(0.996264)" xlink:href="#CMMI12-72"/>
      <use transform="translate(88.521773 14.943915)scale(0.996264)" xlink:href="#CMMI12-101"/>
      <use transform="translate(133.733774 14.943915)scale(0.996264)" xlink:href="#CMMI12-105"/>
      <use transform="translate(167.012375 14.943915)scale(0.996264)" xlink:href="#CMMI12-103"/>
      <use transform="translate(217.297865 14.943915)scale(0.996264)" xlink:href="#CMMI12-104"/>
      <use transform="translate(273.452489 14.943915)scale(0.996264)" xlink:href="#CMMI12-116"/>
      <use transform="translate(339.907932 14.943915)scale(0.996264)" xlink:href="#CMMI12-72"/>
      <use transform="translate(420.732768 0)scale(0.697382)" xlink:href="#CMMI12-102"/>
      <use transform="translate(493.564037 14.943915)scale(0.996264)" xlink:href="#CMR17-40"/>
      <use transform="translate(528.844804 14.943915)scale(0.996264)" xlink:href="#CMMI12-109"/>
      <use transform="translate(614.172029 14.943915)scale(0.996264)" xlink:href="#CMMI12-109"/>
      <use transform="translate(699.499253 14.943915)scale(0.996264)" xlink:href="#CMR17-41"/>
     </g>
    </g>
   </g>
   <g id="patch_3">
    <path d="M 47.234801 496.665349 
L 47.234801 38.176549 
" style="fill:none;stroke:#000000;stroke-linecap:square;stroke-linejoin:miter;stroke-width:0.8;"/>
   </g>
   <g id="patch_4">
    <path d="M 699.536801 496.665349 
L 699.536801 38.176549 
" style="fill:none;stroke:#000000;stroke-linecap:square;stroke-linejoin:miter;stroke-width:0.8;"/>
   </g>
   <g id="patch_5">
    <path d="M 47.234801 496.665349 
L 699.536801 496.665349 
" style="fill:none;stroke:#000000;stroke-linecap:square;stroke-linejoin:miter;stroke-width:0.8;"/>
   </g>
   <g id="patch_6">
    <path d="M 47.234801 38.176549 
L 699.536801 38.176549 
" style="fill:none;stroke:#000000;stroke-linecap:square;stroke-linejoin:miter;stroke-width:0.8;"/>
   </g>
   <g id="text_19">
    <!-- $Taylor\ 3D\ Benchmark\ Test$ -->
    <defs>
     <path d="M 30.09375 11.859375 
C 29.59375 10.171875 29.59375 9.96875 28.203125 8.078125 
C 26 5.28125 21.59375 1 16.90625 1 
C 12.796875 1 10.5 4.6875 10.5 10.5625 
C 10.5 16.0625 13.59375 27.234375 15.5 31.421875 
C 18.90625 38.40625 23.59375 41.984375 27.5 41.984375 
C 34.09375 41.984375 35.40625 33.8125 35.40625 33.015625 
C 35.40625 32.921875 35.09375 31.625 35 31.421875 
z
M 36.5 37.40625 
C 35.40625 40 32.703125 44 27.5 44 
C 16.203125 44 4 29.421875 4 14.65625 
C 4 4.78125 9.796875 -1 16.59375 -1 
C 22.09375 -1 26.796875 3.28125 29.59375 6.578125 
C 30.59375 0.6875 35.296875 -1 38.296875 -1 
C 41.296875 -1 43.703125 0.796875 45.5 4.375 
C 47.09375 7.75 48.5 13.828125 48.5 14.21875 
C 48.5 14.71875 48.09375 15.125 47.5 15.125 
C 46.59375 15.125 46.5 14.625 46.09375 13.125 
C 44.59375 7.265625 42.703125 1 38.59375 1 
C 35.703125 1 35.5 3.578125 35.5 5.5625 
C 35.5 7.859375 35.796875 8.953125 36.703125 12.828125 
C 37.40625 15.3125 37.90625 17.5 38.703125 20.390625 
C 42.40625 35.3125 43.296875 38.890625 43.296875 39.5 
C 43.296875 40.890625 42.203125 42 40.703125 42 
C 37.5 42 36.703125 38.5 36.5 37.3125 
z
" id="CMMI12-97"/>
     <path d="M 26.296875 -10.515625 
C 23.59375 -14.390625 19.703125 -18 14.796875 -18 
C 13.59375 -18 8.796875 -17.796875 7.296875 -12.90625 
C 7.59375 -13.015625 8.09375 -13.015625 8.296875 -13.015625 
C 11.296875 -13.015625 13.296875 -10.40625 13.296875 -8.109375 
C 13.296875 -5.8125 11.40625 -5 9.90625 -5 
C 8.296875 -5 4.796875 -6.203125 4.796875 -11.109375 
C 4.796875 -16.40625 9.09375 -20 14.796875 -20 
C 24.796875 -20 34.90625 -10.515625 37.703125 -0.109375 
L 47.5 38.796875 
C 47.59375 39.296875 47.796875 39.890625 47.796875 40.484375 
C 47.796875 41.984375 46.59375 43 45.09375 43 
C 44.203125 43 42.09375 42.59375 41.296875 39.59375 
L 33.90625 10.265625 
C 33.40625 8.46875 33.40625 8.28125 32.59375 7.171875 
C 30.59375 4.390625 27.296875 1 22.5 1 
C 16.90625 1 16.40625 6.484375 16.40625 9.171875 
C 16.40625 14.859375 19.09375 22.546875 21.796875 29.71875 
C 22.90625 32.609375 23.5 34.015625 23.5 36.015625 
C 23.5 40.203125 20.5 44 15.59375 44 
C 6.40625 44 2.703125 29.53125 2.703125 28.71875 
C 2.703125 28.328125 3.09375 27.828125 3.796875 27.828125 
C 4.703125 27.828125 4.796875 28.234375 5.203125 29.625 
C 7.59375 38 11.40625 41.984375 15.296875 41.984375 
C 16.203125 41.984375 17.90625 41.984375 17.90625 38.703125 
C 17.90625 36.109375 16.796875 33.21875 15.296875 29.421875 
C 10.40625 16.359375 10.40625 13.0625 10.40625 10.671875 
C 10.40625 1.1875 17.203125 -1 22.203125 -1 
C 25.09375 -1 28.703125 -0.109375 32.203125 3.59375 
L 32.296875 3.484375 
C 30.796875 -2.203125 29.796875 -5.609375 26.296875 -10.515625 
z
" id="CMMI12-121"/>
     <path d="M 25.40625 66.484375 
C 25.5 66.890625 25.703125 67.484375 25.703125 67.984375 
C 25.703125 69 24.703125 69 24.5 69 
C 24.40625 69 20.796875 68.6875 19 68.484375 
C 17.296875 68.390625 15.796875 68.1875 14 68.09375 
C 11.59375 67.890625 10.90625 67.796875 10.90625 65.984375 
C 10.90625 64.984375 11.90625 64.984375 12.90625 64.984375 
C 18 64.984375 18 64.09375 18 63.109375 
C 18 62.703125 18 62.515625 17.5 60.71875 
L 5.09375 11.421875 
C 4.796875 10.328125 4.59375 9.53125 4.59375 7.953125 
C 4.59375 2.984375 8.296875 -1 13.40625 -1 
C 16.703125 -1 18.90625 1.1875 20.5 4.265625 
C 22.203125 7.546875 23.59375 13.8125 23.59375 14.203125 
C 23.59375 14.703125 23.203125 15.109375 22.59375 15.109375 
C 21.703125 15.109375 21.59375 14.609375 21.203125 13.109375 
C 19.40625 6.265625 17.59375 1 13.59375 1 
C 10.59375 1 10.59375 4.171875 10.59375 5.5625 
C 10.59375 5.96875 10.59375 8.046875 11.296875 10.828125 
z
" id="CMMI12-108"/>
     <path d="M 45.59375 27.421875 
C 45.59375 36.90625 39.40625 44 30.296875 44 
C 17.09375 44 4.09375 29.625 4.09375 15.5625 
C 4.09375 6.078125 10.296875 -1 19.40625 -1 
C 32.703125 -1 45.59375 13.359375 45.59375 27.421875 
z
M 19.5 1 
C 14.5 1 10.796875 4.984375 10.796875 11.96875 
C 10.796875 16.5625 13.203125 26.734375 16 31.71875 
C 20.5 39.40625 26.09375 41.984375 30.203125 41.984375 
C 35.09375 41.984375 38.90625 38 38.90625 31.015625 
C 38.90625 27.03125 36.796875 16.359375 33 10.265625 
C 28.90625 3.59375 23.40625 1 19.5 1 
z
" id="CMMI12-111"/>
     <path d="M 38.90625 41.140625 
C 35.796875 40.59375 34.203125 38.390625 34.203125 36.1875 
C 34.203125 33.796875 36.09375 32.984375 37.5 32.984375 
C 40.296875 32.984375 42.59375 35.390625 42.59375 38.390625 
C 42.59375 41.421875 39.5 44 34.5 44 
C 30.5 44 25.90625 42.1875 21.703125 36.484375 
C 21 41.5625 17 44 13 44 
C 9.09375 44 7.09375 41.28125 5.90625 39.1875 
C 4.203125 35.59375 2.703125 29.5625 2.703125 29.0625 
C 2.703125 28.65625 3.09375 28.140625 3.796875 28.140625 
C 4.59375 28.140625 4.703125 28.25 5.296875 30.578125 
C 6.796875 36.59375 8.703125 41.984375 12.703125 41.984375 
C 15.09375 41.984375 15.796875 40.6875 15.796875 37.796875 
C 15.796875 35.59375 14.796875 31.6875 14.09375 28.546875 
L 11.296875 17.65625 
C 10.90625 15.734375 9.796875 11.1875 9.296875 9.375 
C 8.59375 6.75 7.5 2 7.5 1.5 
C 7.5 0.09375 8.59375 -1 10.09375 -1 
C 11.203125 -1 13.09375 -0.3125 13.703125 1.703125 
C 14 2.5 17.703125 17.75 18.296875 20.078125 
C 18.796875 22.296875 19.40625 24.40625 19.90625 26.640625 
C 20.296875 28.046875 20.703125 29.65625 21 30.96875 
C 21.296875 31.875 24 36.796875 26.5 38.984375 
C 27.703125 40.09375 30.296875 41.984375 34.40625 41.984375 
C 36 41.984375 37.59375 41.78125 38.90625 41.140625 
z
" id="CMMI12-114"/>
     <path d="M 15.703125 7.375 
C 14.796875 3.890625 14.59375 2.890625 7.59375 2.890625 
C 5.703125 2.890625 4.703125 2.890625 4.703125 1.09375 
C 4.703125 0 5.296875 0 7.296875 0 
L 39 0 
C 59.203125 0 78.90625 20.8125 78.90625 43 
C 78.90625 57.328125 70.296875 68 56 68 
L 23.90625 68 
C 22 68 21.09375 68 21.09375 66.09375 
C 21.09375 65.09375 22 65.09375 23.5 65.09375 
C 29.59375 65.09375 29.59375 64.296875 29.59375 63.203125 
C 29.59375 63 29.59375 62.40625 29.203125 60.90625 
z
M 36.796875 61.203125 
C 37.703125 64.890625 38.09375 65.09375 42 65.09375 
L 53 65.09375 
C 62.40625 65.09375 71 60.015625 71 46.28125 
C 71 41.3125 69 23.984375 59.296875 13.046875 
C 56.5 9.765625 48.90625 2.890625 37.40625 2.890625 
L 26 2.890625 
C 24.59375 2.890625 24.40625 2.890625 23.796875 2.984375 
C 22.703125 3.09375 22.59375 3.296875 22.59375 4.09375 
C 22.59375 4.78125 22.796875 5.375 23 6.28125 
z
" id="CMMI12-68"/>
     <path d="M 36.59375 61.171875 
C 37.5 64.890625 37.90625 65.09375 41.796875 65.09375 
L 54.796875 65.09375 
C 66.09375 65.09375 66.09375 55.421875 66.09375 54.515625 
C 66.09375 46.359375 58 36 44.796875 36 
L 30.40625 36 
z
M 53.5 35.1875 
C 64.40625 37.203125 74.296875 44.859375 74.296875 54.109375 
C 74.296875 61.96875 67.40625 68 56.09375 68 
L 24 68 
C 22.09375 68 21.203125 68 21.203125 66.09375 
C 21.203125 65.09375 22.09375 65.09375 23.59375 65.09375 
C 29.703125 65.09375 29.703125 64.28125 29.703125 63.171875 
C 29.703125 62.984375 29.703125 62.375 29.296875 60.859375 
L 15.796875 7.328125 
C 14.90625 3.875 14.703125 2.890625 7.703125 2.890625 
C 5.796875 2.890625 4.796875 2.890625 4.796875 1.09375 
C 4.796875 0 5.40625 0 7.40625 0 
L 41.703125 0 
C 57 0 68.796875 11.453125 68.796875 21.390625 
C 68.796875 29.46875 61.59375 34.390625 53.5 35.1875 
z
M 39.296875 2.890625 
L 25.796875 2.890625 
C 24.40625 2.890625 24.203125 2.890625 23.59375 2.984375 
C 22.5 3.09375 22.40625 3.28125 22.40625 4.078125 
C 22.40625 4.765625 22.59375 5.359375 22.796875 6.234375 
L 29.796875 34 
L 48.59375 34 
C 60.40625 34 60.40625 23.171875 60.40625 22.375 
C 60.40625 12.9375 51.703125 2.890625 39.296875 2.890625 
z
" id="CMMI12-66"/>
     <path d="M 20.59375 29.21875 
C 20.796875 29.828125 23.296875 34.8125 27 38 
C 29.59375 40.390625 33 41.984375 36.90625 41.984375 
C 40.90625 41.984375 42.296875 39 42.296875 35.015625 
C 42.296875 29.328125 38.203125 17.953125 36.203125 12.5625 
C 35.296875 10.171875 34.796875 8.875 34.796875 7.078125 
C 34.796875 2.59375 37.90625 -1 42.703125 -1 
C 52 -1 55.5 13.65625 55.5 14.265625 
C 55.5 14.765625 55.09375 15.15625 54.5 15.15625 
C 53.59375 15.15625 53.5 14.859375 53 13.15625 
C 50.703125 4.984375 46.90625 1 43 1 
C 42 1 40.40625 1.09375 40.40625 4.28125 
C 40.40625 6.78125 41.5 9.765625 42.09375 11.171875 
C 44.09375 16.65625 48.296875 27.828125 48.296875 33.515625 
C 48.296875 39.5 44.796875 44 37.203125 44 
C 28.296875 44 23.59375 37.703125 21.796875 35.203125 
C 21.5 40.890625 17.40625 44 13 44 
C 9.796875 44 7.59375 42.09375 5.90625 38.703125 
C 4.09375 35.109375 2.703125 29.125 2.703125 28.71875 
C 2.703125 28.328125 3.09375 27.828125 3.796875 27.828125 
C 4.59375 27.828125 4.703125 27.921875 5.296875 30.21875 
C 6.90625 36.3125 8.703125 41.984375 12.703125 41.984375 
C 15 41.984375 15.796875 40.390625 15.796875 37.40625 
C 15.796875 35.203125 14.796875 31.3125 14.09375 28.234375 
L 11.296875 17.453125 
C 10.90625 15.5625 9.796875 11.0625 9.296875 9.265625 
C 8.59375 6.671875 7.5 1.984375 7.5 1.484375 
C 7.5 0.09375 8.59375 -1 10.09375 -1 
C 11.296875 -1 12.703125 -0.40625 13.5 1.09375 
C 13.703125 1.59375 14.59375 5.078125 15.09375 7.078125 
L 17.296875 16.0625 
z
" id="CMMI12-110"/>
     <path d="M 39.09375 38 
C 37.203125 38 36.296875 38 34.90625 36.796875 
C 34.296875 36.296875 33.203125 34.796875 33.203125 33.1875 
C 33.203125 31.1875 34.703125 29.984375 36.59375 29.984375 
C 39 29.984375 41.703125 31.984375 41.703125 35.984375 
C 41.703125 40.484375 37.09375 44 30.203125 44 
C 17.09375 44 4 30.1875 4 15.796875 
C 4 6.96875 9.40625 -1 19.59375 -1 
C 33.203125 -1 41.796875 9.71875 41.796875 11.03125 
C 41.796875 11.640625 41.203125 12.140625 40.796875 12.140625 
C 40.5 12.140625 40.40625 12.046875 39.5 11.125 
C 33.09375 2.515625 23.59375 1 19.796875 1 
C 12.90625 1 10.703125 7.078125 10.703125 12.140625 
C 10.703125 15.6875 12.40625 25.53125 16 32.390625 
C 18.59375 37.09375 24 41.984375 30.296875 41.984375 
C 31.59375 41.984375 37.09375 41.8125 39.09375 38 
z
" id="CMMI12-99"/>
     <path d="M 28.09375 66.484375 
C 28.203125 66.890625 28.40625 67.484375 28.40625 67.984375 
C 28.40625 69 27.40625 69 27.203125 69 
C 27.09375 69 23.5 68.6875 21.703125 68.484375 
C 20 68.390625 18.5 68.1875 16.703125 68.09375 
C 14.296875 67.890625 13.59375 67.796875 13.59375 65.984375 
C 13.59375 64.984375 14.59375 64.984375 15.59375 64.984375 
C 20.703125 64.984375 20.703125 64.109375 20.703125 63.125 
C 20.703125 62.71875 20.703125 62.53125 20.203125 60.75 
L 5.90625 3.90625 
C 5.5 2.390625 5.5 2.203125 5.5 1.59375 
C 5.5 -0.609375 7.203125 -1 8.203125 -1 
C 11 -1 11.59375 1.1875 12.40625 4.296875 
L 17.09375 23.0625 
C 24.296875 22.265625 28.59375 19.25 28.59375 14.4375 
C 28.59375 13.828125 28.59375 13.4375 28.296875 11.921875 
C 27.90625 10.421875 27.90625 9.21875 27.90625 8.71875 
C 27.90625 2.890625 31.703125 -1 36.796875 -1 
C 41.40625 -1 43.796875 3.203125 44.59375 4.609375 
C 46.703125 8.3125 48 13.9375 48 14.328125 
C 48 14.828125 47.59375 15.234375 47 15.234375 
C 46.09375 15.234375 46 14.828125 45.59375 13.234375 
C 44.203125 8.015625 42.09375 1 37 1 
C 35 1 33.703125 2 33.703125 5.8125 
C 33.703125 7.71875 34.09375 9.921875 34.5 11.421875 
C 34.90625 13.234375 34.90625 13.328125 34.90625 14.53125 
C 34.90625 20.453125 29.59375 23.765625 20.40625 24.96875 
C 24 27.171875 27.59375 31.078125 29 32.59375 
C 34.703125 38.984375 38.59375 41.984375 43.203125 41.984375 
C 45.5 41.984375 46.09375 41.484375 46.796875 41 
C 43.09375 40.59375 41.703125 37.984375 41.703125 35.984375 
C 41.703125 33.59375 43.59375 32.796875 45 32.796875 
C 47.703125 32.796875 50.09375 35.09375 50.09375 38.296875 
C 50.09375 41.15625 47.796875 44 43.296875 44 
C 37.796875 44 33.296875 40.296875 26.203125 32.296875 
C 25.203125 31.078125 21.5 27.28125 17.796875 25.875 
z
" id="CMMI12-107"/>
    </defs>
    <g transform="translate(249.777965 13.836997)scale(0.2 -0.2)">
     <use transform="scale(0.996264)" xlink:href="#CMMI12-84"/>
     <use transform="translate(70.723632 0)scale(0.996264)" xlink:href="#CMMI12-97"/>
     <use transform="translate(121.93149 0)scale(0.996264)" xlink:href="#CMMI12-121"/>
     <use transform="translate(173.070271 0)scale(0.996264)" xlink:href="#CMMI12-108"/>
     <use transform="translate(204.318674 0)scale(0.996264)" xlink:href="#CMMI12-111"/>
     <use transform="translate(251.213984 0)scale(0.996264)" xlink:href="#CMMI12-114"/>
     <use transform="translate(329.113709 0)scale(0.996264)" xlink:href="#CMR17-51"/>
     <use transform="translate(374.804186 0)scale(0.996264)" xlink:href="#CMMI12-68"/>
     <use transform="translate(489.737246 0)scale(0.996264)" xlink:href="#CMMI12-66"/>
     <use transform="translate(568.87277 0)scale(0.996264)" xlink:href="#CMMI12-101"/>
     <use transform="translate(614.084771 0)scale(0.996264)" xlink:href="#CMMI12-110"/>
     <use transform="translate(672.314818 0)scale(0.996264)" xlink:href="#CMMI12-99"/>
     <use transform="translate(714.298052 0)scale(0.996264)" xlink:href="#CMMI12-104"/>
     <use transform="translate(770.452676 0)scale(0.996264)" xlink:href="#CMMI12-109"/>
     <use transform="translate(855.7799 0)scale(0.996264)" xlink:href="#CMMI12-97"/>
     <use transform="translate(906.987758 0)scale(0.996264)" xlink:href="#CMMI12-114"/>
     <use transform="translate(953.65837 0)scale(0.996264)" xlink:href="#CMMI12-107"/>
     <use transform="translate(1038.966683 0)scale(0.996264)" xlink:href="#CMMI12-84"/>
     <use transform="translate(1109.690315 0)scale(0.996264)" xlink:href="#CMMI12-101"/>
     <use transform="translate(1154.902316 0)scale(0.996264)" xlink:href="#CMMI12-115"/>
     <use transform="translate(1200.852364 0)scale(0.996264)" xlink:href="#CMMI12-116"/>
    </g>
   </g>
   <g id="legend_1">
    <g id="patch_7">
     <path d="M 549.839601 100.059937 
L 690.336801 100.059937 
Q 693.536801 100.059937 693.536801 96.859937 
L 693.536801 51.376549 
Q 693.536801 48.176549 690.336801 48.176549 
L 549.839601 48.176549 
Q 546.639601 48.176549 546.639601 51.376549 
L 546.639601 96.859937 
Q 546.639601 100.059937 549.839601 100.059937 
z
" style="fill:#4c4c4c;opacity:0.5;stroke:#4c4c4c;stroke-linejoin:miter;"/>
    </g>
    <g id="patch_8">
     <path d="M 547.839601 98.059937 
L 688.336801 98.059937 
Q 691.536801 98.059937 691.536801 94.859937 
L 691.536801 49.376549 
Q 691.536801 46.176549 688.336801 46.176549 
L 547.839601 46.176549 
Q 544.639601 46.176549 544.639601 49.376549 
L 544.639601 94.859937 
Q 544.639601 98.059937 547.839601 98.059937 
z
" style="fill:#ffffff;stroke:#cccccc;stroke-linejoin:miter;"/>
    </g>
    <g id="line2d_31">
     <path d="M 551.039601 59.330216 
L 583.039601 59.330216 
" style="fill:none;stroke:#ff0000;stroke-linecap:square;stroke-width:2;"/>
    </g>
    <g id="line2d_32">
     <defs>
      <path d="M 0 5 
C 1.326016 5 2.597899 4.473168 3.535534 3.535534 
C 4.473168 2.597899 5 1.326016 5 0 
C 5 -1.326016 4.473168 -2.597899 3.535534 -3.535534 
C 2.597899 -4.473168 1.326016 -5 0 -5 
C -1.326016 -5 -2.597899 -4.473168 -3.535534 -3.535534 
C -4.473168 -2.597899 -5 -1.326016 -5 0 
C -5 1.326016 -4.473168 2.597899 -3.535534 3.535534 
C -2.597899 4.473168 -1.326016 5 0 5 
z
" id="m27e8451de9" style="stroke:#ff0000;"/>
     </defs>
     <g>
      <use style="fill:#ff0000;stroke:#ff0000;" x="567.039601" xlink:href="#m27e8451de9" y="59.330216"/>
     </g>
    </g>
    <g id="text_20">
     <!-- $DynELA\ H_f$ -->
     <defs>
      <path d="M 69.5 23.265625 
C 69.59375 23.5625 69.90625 24.265625 69.90625 24.65625 
C 69.90625 25.171875 69.5 25.671875 68.90625 25.671875 
C 68.5 25.671875 68.296875 25.5625 68 25.265625 
C 67.796875 25.171875 67.796875 24.96875 66.90625 22.953125 
C 61 8.90625 56.703125 2.890625 40.703125 2.890625 
L 26.09375 2.890625 
C 24.703125 2.890625 24.5 2.890625 23.90625 3 
C 22.796875 3.09375 22.703125 3.296875 22.703125 4.09375 
C 22.703125 4.796875 22.90625 5.40625 23.09375 6.296875 
L 30 34 
L 39.90625 34 
C 47.703125 34 48.296875 32.28125 48.296875 29.28125 
C 48.296875 28.28125 48.296875 27.375 47.59375 24.359375 
C 47.40625 23.96875 47.296875 23.5625 47.296875 23.265625 
C 47.296875 22.5625 47.796875 22.25 48.40625 22.25 
C 49.296875 22.25 49.40625 22.953125 49.796875 24.359375 
L 55.5 47.4375 
C 55.5 47.9375 55.09375 48.421875 54.5 48.421875 
C 53.59375 48.421875 53.5 48.03125 53.09375 46.65625 
C 51.09375 39.0625 49.09375 36.890625 40.203125 36.890625 
L 30.703125 36.890625 
L 36.90625 61.140625 
C 37.796875 64.59375 38 64.890625 42.09375 64.890625 
L 56.40625 64.890625 
C 68.703125 64.890625 71.203125 61.640625 71.203125 54.140625 
C 71.203125 54.046875 71.203125 51.28125 70.796875 48.03125 
C 70.703125 47.640625 70.59375 47.046875 70.59375 46.84375 
C 70.59375 46.0625 71.09375 45.765625 71.703125 45.765625 
C 72.40625 45.765625 72.796875 46.15625 73 47.9375 
L 75.09375 65.1875 
C 75.09375 65.484375 75.296875 66.484375 75.296875 66.6875 
C 75.296875 67.796875 74.40625 67.796875 72.59375 67.796875 
L 23.796875 67.796875 
C 21.90625 67.796875 20.90625 67.796875 20.90625 65.984375 
C 20.90625 64.890625 21.59375 64.890625 23.296875 64.890625 
C 29.5 64.890625 29.5 64.203125 29.5 63.109375 
C 29.5 62.625 29.40625 62.234375 29.09375 61.140625 
L 15.59375 7.40625 
C 14.703125 3.890625 14.5 2.890625 7.5 2.890625 
C 5.59375 2.890625 4.59375 2.890625 4.59375 1.09375 
C 4.59375 0 5.203125 0 7.203125 0 
L 57.40625 0 
C 59.59375 0 59.703125 0.09375 60.40625 1.6875 
z
" id="CMMI12-69"/>
      <path d="M 36.703125 60.3125 
C 37.59375 64.09375 37.90625 65.09375 46.703125 65.09375 
C 49.40625 65.09375 50.09375 65.09375 50.09375 66.984375 
C 50.09375 68 49 68 48.59375 68 
C 46.59375 68 44.296875 67.796875 42.296875 67.796875 
L 28.90625 67.796875 
C 27 67.796875 24.796875 68 22.90625 68 
C 22.09375 68 21 68 21 66.09375 
C 21 65.09375 21.90625 65.09375 23.40625 65.09375 
C 29.5 65.09375 29.5 64.296875 29.5 63.203125 
C 29.5 63 29.5 62.40625 29.09375 60.90625 
L 15.59375 7.375 
C 14.703125 3.890625 14.5 2.890625 7.5 2.890625 
C 5.59375 2.890625 4.59375 2.890625 4.59375 1.09375 
C 4.59375 0 5.203125 0 7.203125 0 
L 52 0 
C 54.203125 0 54.296875 0.09375 55 1.890625 
L 62.703125 23.09375 
C 62.90625 23.59375 63.09375 24.1875 63.09375 24.484375 
C 63.09375 25.078125 62.59375 25.484375 62.09375 25.484375 
C 62 25.484375 61.5 25.484375 61.296875 25.078125 
C 61.09375 24.984375 61.09375 24.78125 60.296875 22.890625 
C 57.09375 14.140625 52.59375 2.890625 35.703125 2.890625 
L 26.09375 2.890625 
C 24.703125 2.890625 24.5 2.890625 23.90625 2.984375 
C 22.796875 3.09375 22.703125 3.296875 22.703125 4.09375 
C 22.703125 4.78125 22.90625 5.375 23.09375 6.28125 
z
" id="CMMI12-76"/>
      <path d="M 17 11.25 
C 13.5 5.234375 10.09375 3.203125 5.296875 2.890625 
C 4.203125 2.796875 3.40625 2.796875 3.40625 1 
C 3.40625 0.390625 3.90625 0 4.59375 0 
C 6.40625 0 10.90625 0.1875 12.703125 0.1875 
C 15.59375 0.1875 18.796875 0 21.59375 0 
C 22.203125 0 23.40625 0 23.40625 1.890625 
C 23.40625 2.796875 22.59375 2.890625 22 2.890625 
C 19.703125 3.09375 17.796875 3.90625 17.796875 6.359375 
C 17.796875 7.78125 18.40625 8.90625 19.703125 11.15625 
L 27.296875 24 
L 52.796875 24 
C 52.90625 23.078125 52.90625 22.265625 53 21.34375 
C 53.296875 18.6875 54.5 8.09375 54.5 6.15625 
C 54.5 3.09375 49.40625 2.890625 47.796875 2.890625 
C 46.703125 2.890625 45.59375 2.890625 45.59375 1.09375 
C 45.59375 0 46.5 0 47.09375 0 
C 48.796875 0 50.796875 0.1875 52.5 0.1875 
L 58.203125 0.1875 
C 64.296875 0.1875 68.703125 0 68.796875 0 
C 69.5 0 70.59375 0 70.59375 1.890625 
C 70.59375 2.890625 69.703125 2.890625 68.203125 2.890625 
C 62.703125 2.890625 62.59375 3.8125 62.296875 6.875 
L 56.203125 68.796875 
C 56 70.796875 55.59375 71 54.5 71 
C 53.5 71 52.90625 70.796875 52 69.296875 
z
M 29 26.890625 
L 49.09375 59.859375 
L 52.5 26.890625 
z
" id="CMMI12-65"/>
     </defs>
     <g transform="translate(595.839601 64.930216)scale(0.16 -0.16)">
      <use transform="translate(0 14.943915)scale(0.996264)" xlink:href="#CMMI12-68"/>
      <use transform="translate(83.703948 14.943915)scale(0.996264)" xlink:href="#CMMI12-121"/>
      <use transform="translate(134.842728 14.943915)scale(0.996264)" xlink:href="#CMMI12-110"/>
      <use transform="translate(193.072776 14.943915)scale(0.996264)" xlink:href="#CMMI12-69"/>
      <use transform="translate(271.124412 14.943915)scale(0.996264)" xlink:href="#CMMI12-76"/>
      <use transform="translate(337.495287 14.943915)scale(0.996264)" xlink:href="#CMMI12-65"/>
      <use transform="translate(441.852285 14.943915)scale(0.996264)" xlink:href="#CMMI12-72"/>
      <use transform="translate(522.677122 0)scale(0.697382)" xlink:href="#CMMI12-102"/>
     </g>
    </g>
    <g id="line2d_33">
     <path d="M 551.039601 82.960461 
L 583.039601 82.960461 
" style="fill:none;stroke:#0000ff;stroke-linecap:square;stroke-width:2;"/>
    </g>
    <g id="line2d_34">
     <defs>
      <path d="M -5 5 
L 5 5 
L 5 -5 
L -5 -5 
z
" id="m3da954178b" style="stroke:#0000ff;stroke-linejoin:miter;"/>
     </defs>
     <g>
      <use style="fill:#0000ff;stroke:#0000ff;stroke-linejoin:miter;" x="567.039601" xlink:href="#m3da954178b" y="82.960461"/>
     </g>
    </g>
    <g id="text_21">
     <!-- $Abaqus\ H_f$ -->
     <defs>
      <path d="M 23.09375 66.484375 
C 23.203125 66.890625 23.40625 67.484375 23.40625 67.984375 
C 23.40625 69 22.40625 69 22.203125 69 
C 22.09375 69 18.5 68.6875 16.703125 68.484375 
C 15 68.390625 13.5 68.1875 11.703125 68.09375 
C 9.296875 67.890625 8.59375 67.796875 8.59375 65.984375 
C 8.59375 64.984375 9.59375 64.984375 10.59375 64.984375 
C 15.703125 64.984375 15.703125 64.109375 15.703125 63.125 
C 15.703125 62.421875 14.90625 59.5625 14.5 57.796875 
L 12.09375 48.328125 
C 11.09375 44.390625 5.40625 21.75 5 19.953125 
C 4.5 17.453125 4.5 15.75 4.5 14.453125 
C 4.5 4.28125 10.203125 -1 16.703125 -1 
C 28.296875 -1 40.296875 13.859375 40.296875 28.328125 
C 40.296875 37.5 35.09375 44 27.59375 44 
C 22.40625 44 17.703125 39.703125 15.796875 37.703125 
z
M 16.796875 1 
C 13.59375 1 10.09375 3.390625 10.09375 11.171875 
C 10.09375 14.453125 10.40625 16.359375 12.203125 23.34375 
C 12.5 24.640625 14.09375 31.015625 14.5 32.3125 
C 14.703125 33.109375 20.59375 41.984375 27.40625 41.984375 
C 31.796875 41.984375 33.796875 37.609375 33.796875 32.421875 
C 33.796875 27.625 31 16.359375 28.5 11.171875 
C 26 5.78125 21.40625 1 16.796875 1 
z
" id="CMMI12-98"/>
      <path d="M 44.09375 42.984375 
C 44.09375 43.484375 43.703125 43.890625 43.203125 43.890625 
C 42.40625 43.890625 38.5 40.296875 36.59375 36.8125 
C 34.796875 41.296875 31.703125 44 27.40625 44 
C 16.09375 44 3.90625 29.421875 3.90625 14.65625 
C 3.90625 4.78125 9.703125 -1 16.5 -1 
C 21.796875 -1 26.203125 2.984375 28.296875 5.28125 
L 28.40625 5.1875 
L 24.59375 -9.578125 
L 23.703125 -13.09375 
C 22.796875 -16.015625 21.296875 -16.015625 16.59375 -16.109375 
C 15.5 -16.109375 14.5 -16.109375 14.5 -18 
C 14.5 -18.703125 15.09375 -19 15.796875 -19 
C 17.203125 -19 19 -18.8125 20.40625 -18.8125 
L 30.59375 -18.8125 
C 32.09375 -18.8125 33.796875 -19 35.296875 -19 
C 35.90625 -19 37.09375 -19 37.09375 -17.109375 
C 37.09375 -16.109375 36.296875 -16.109375 34.796875 -16.109375 
C 30.09375 -16.109375 29.796875 -15.421875 29.796875 -14.640625 
C 29.796875 -14.15625 29.90625 -14.0625 30.203125 -12.796875 
z
M 30 11.859375 
C 29.5 10.171875 29.5 9.96875 28.09375 8.078125 
C 25.90625 5.28125 21.5 1 16.796875 1 
C 12.703125 1 10.40625 4.6875 10.40625 10.5625 
C 10.40625 16.0625 13.5 27.234375 15.40625 31.421875 
C 18.796875 38.40625 23.5 41.984375 27.40625 41.984375 
C 34 41.984375 35.296875 33.8125 35.296875 33.015625 
C 35.296875 32.921875 35 31.625 34.90625 31.421875 
z
" id="CMMI12-113"/>
      <path d="M 34.09375 5.78125 
C 35.40625 0.1875 40.203125 -1 42.59375 -1 
C 45.796875 -1 48.203125 1.09375 49.796875 4.484375 
C 51.5 8.078125 52.796875 13.953125 52.796875 14.265625 
C 52.796875 14.75 52.40625 15.15625 51.796875 15.15625 
C 50.90625 15.15625 50.796875 14.65625 50.40625 13.15625 
C 48.59375 6.28125 46.796875 1 42.796875 1 
C 39.796875 1 39.796875 4.28125 39.796875 5.578125 
C 39.796875 7.875 40.09375 8.875 41.09375 13.0625 
C 41.796875 15.75 42.5 18.453125 43.09375 21.234375 
L 47.203125 37.5 
C 47.90625 40 47.90625 40.1875 47.90625 40.484375 
C 47.90625 41.984375 46.703125 43 45.203125 43 
C 42.296875 43 41.59375 40.484375 41 38 
C 40 34.109375 34.59375 12.65625 33.90625 9.171875 
C 33.796875 9.171875 29.90625 1 22.59375 1 
C 17.40625 1 16.40625 5.484375 16.40625 9.171875 
C 16.40625 14.859375 19.203125 22.84375 21.796875 29.53125 
C 23 32.71875 23.5 34.015625 23.5 36.015625 
C 23.5 40.296875 20.40625 44 15.59375 44 
C 6.40625 44 2.703125 29.53125 2.703125 28.71875 
C 2.703125 28.328125 3.09375 27.828125 3.796875 27.828125 
C 4.703125 27.828125 4.796875 28.234375 5.203125 29.625 
C 7.59375 38.203125 11.5 41.984375 15.296875 41.984375 
C 16.296875 41.984375 17.90625 41.890625 17.90625 38.703125 
C 17.90625 36.109375 16.796875 33.21875 15.296875 29.421875 
C 10.90625 17.546875 10.40625 13.765625 10.40625 10.765625 
C 10.40625 0.59375 18.09375 -1 22.203125 -1 
C 28.59375 -1 32.09375 3.390625 34.09375 5.78125 
z
" id="CMMI12-117"/>
     </defs>
     <g transform="translate(595.839601 88.560461)scale(0.16 -0.16)">
      <use transform="translate(0 14.943915)scale(0.996264)" xlink:href="#CMMI12-65"/>
      <use transform="translate(73.127885 14.943915)scale(0.996264)" xlink:href="#CMMI12-98"/>
      <use transform="translate(114.603759 14.943915)scale(0.996264)" xlink:href="#CMMI12-97"/>
      <use transform="translate(165.811617 14.943915)scale(0.996264)" xlink:href="#CMMI12-113"/>
      <use transform="translate(212.637941 14.943915)scale(0.996264)" xlink:href="#CMMI12-117"/>
      <use transform="translate(268.158271 14.943915)scale(0.996264)" xlink:href="#CMMI12-115"/>
      <use transform="translate(345.337431 14.943915)scale(0.996264)" xlink:href="#CMMI12-72"/>
      <use transform="translate(426.162267 0)scale(0.697382)" xlink:href="#CMMI12-102"/>
     </g>
    </g>
   </g>
   <g id="line2d_35">
    <path clip-path="url(#pae56813a50)" d="M 76.884892 59.016949 
L 120.726878 175.511732 
L 125.128865 186.62151 
L 135.517603 211.369803 
L 139.215843 220.148159 
L 141.504452 225.52233 
L 146.610908 236.657167 
L 148.900163 242.168303 
L 150.308898 245.013869 
L 152.597742 249.249027 
L 153.993358 252.404339 
L 157.05431 259.972575 
L 158.546237 262.912862 
L 161.459844 268.280212 
L 162.884186 271.334636 
L 166.586633 280.100004 
L 168.090257 282.921431 
L 170.304343 286.811552 
L 171.897739 290.181233 
L 174.733809 296.496055 
L 177.77041 302.483289 
L 182.966058 312.388589 
L 186.688973 319.763184 
L 191.038598 327.85947 
L 202.198793 347.533367 
L 217.767609 372.617775 
L 225.920988 385.036068 
L 236.34939 399.820025 
L 241.537158 406.714324 
L 250.425875 417.791829 
L 255.563606 423.631734 
L 262.983722 431.615325 
L 267.417152 436.049371 
L 272.595764 440.984704 
L 276.33285 444.337854 
L 282.991443 449.937808 
L 286.661355 452.759759 
L 291.158629 455.983947 
L 294.831803 458.424391 
L 300.003242 461.561336 
L 305.998147 464.695264 
L 309.668624 466.443798 
L 314.838122 468.516115 
L 319.334263 470.119551 
L 323.756327 471.406287 
L 328.92933 472.566554 
L 333.428222 473.318812 
L 337.10315 473.688513 
L 341.528827 473.898421 
L 344.529455 473.869296 
L 348.206135 473.65296 
L 352.634428 473.082534 
L 357.138956 472.250774 
L 360.818738 471.343052 
L 364.499517 470.243003 
L 370.436295 468.252681 
L 376.37852 466.352881 
L 380.820513 465.146697 
L 394.919299 461.906504 
L 399.405462 461.293703 
L 403.055931 460.761193 
L 406.053565 460.499201 
L 410.459854 460.355414 
L 414.927437 460.431637 
L 418.649503 460.658338 
L 421.60968 461.058213 
L 425.32708 461.741857 
L 431.242527 463.085269 
L 435.717958 464.313362 
L 456.459966 470.500796 
L 460.162696 471.372833 
L 463.861355 472.013709 
L 469.066637 472.616407 
L 473.520359 472.988863 
L 479.439879 473.265548 
L 483.134168 473.234193 
L 486.829348 473.000539 
L 489.771107 472.63871 
L 495.732317 471.597304 
L 500.188359 470.62989 
L 505.328786 469.236756 
L 510.549601 467.582549 
L 517.210837 465.454737 
L 522.434914 464.006896 
L 530.547142 461.972362 
L 534.266645 461.307479 
L 538.747254 460.773131 
L 543.152194 460.524128 
L 547.633234 460.466272 
L 551.359155 460.636297 
L 557.225793 461.14703 
L 563.147497 461.942713 
L 567.622119 462.765552 
L 571.337739 463.668026 
L 576.491596 465.232628 
L 594.339171 470.511423 
L 601.743066 472.26468 
L 605.442345 472.841796 
L 609.13925 473.157052 
L 614.343372 473.32734 
L 618.024907 473.303856 
L 621.76059 473.07545 
L 626.20776 472.564455 
L 630.657896 471.785565 
L 640.998239 469.631514 
L 646.212231 468.264619 
L 652.114897 466.501391 
L 660.2957 463.938676 
L 666.207588 462.415924 
L 669.886695 461.606466 
L 669.886695 461.606466 
" style="fill:none;stroke:#0000ff;stroke-linecap:square;stroke-width:2;"/>
    <g clip-path="url(#pae56813a50)">
     <use style="fill:#0000ff;stroke:#0000ff;stroke-linejoin:miter;" x="76.884892" xlink:href="#m3da954178b" y="59.016949"/>
     <use style="fill:#0000ff;stroke:#0000ff;stroke-linejoin:miter;" x="116.324692" xlink:href="#m3da954178b" y="164.028448"/>
     <use style="fill:#0000ff;stroke:#0000ff;stroke-linejoin:miter;" x="155.537163" xlink:href="#m3da954178b" y="256.350349"/>
     <use style="fill:#0000ff;stroke:#0000ff;stroke-linejoin:miter;" x="194.775697" xlink:href="#m3da954178b" y="334.454519"/>
     <use style="fill:#0000ff;stroke:#0000ff;stroke-linejoin:miter;" x="234.116974" xlink:href="#m3da954178b" y="396.735163"/>
     <use style="fill:#0000ff;stroke:#0000ff;stroke-linejoin:miter;" x="273.343063" xlink:href="#m3da954178b" y="441.685665"/>
     <use style="fill:#0000ff;stroke:#0000ff;stroke-linejoin:miter;" x="312.665261" xlink:href="#m3da954178b" y="467.697999"/>
     <use style="fill:#0000ff;stroke:#0000ff;stroke-linejoin:miter;" x="351.958834" xlink:href="#m3da954178b" y="473.183946"/>
     <use style="fill:#0000ff;stroke:#0000ff;stroke-linejoin:miter;" x="391.233719" xlink:href="#m3da954178b" y="462.572831"/>
     <use style="fill:#0000ff;stroke:#0000ff;stroke-linejoin:miter;" x="430.484065" xlink:href="#m3da954178b" y="462.896483"/>
     <use style="fill:#0000ff;stroke:#0000ff;stroke-linejoin:miter;" x="469.821027" xlink:href="#m3da954178b" y="472.697222"/>
     <use style="fill:#0000ff;stroke:#0000ff;stroke-linejoin:miter;" x="509.035966" xlink:href="#m3da954178b" y="468.076489"/>
     <use style="fill:#0000ff;stroke:#0000ff;stroke-linejoin:miter;" x="548.392883" xlink:href="#m3da954178b" y="460.484508"/>
     <use style="fill:#0000ff;stroke:#0000ff;stroke-linejoin:miter;" x="587.613053" xlink:href="#m3da954178b" y="468.661083"/>
     <use style="fill:#0000ff;stroke:#0000ff;stroke-linejoin:miter;" x="626.961908" xlink:href="#m3da954178b" y="472.451236"/>
     <use style="fill:#0000ff;stroke:#0000ff;stroke-linejoin:miter;" x="666.207588" xlink:href="#m3da954178b" y="462.415924"/>
    </g>
   </g>
   <g id="line2d_36">
    <path clip-path="url(#pae56813a50)" d="M 76.884892 59.017054 
L 119.678339 172.79055 
L 124.381875 184.826555 
L 140.973717 224.815841 
L 145.810539 235.173825 
L 148.189219 241.084595 
L 150.502074 246.046303 
L 152.892114 250.30739 
L 157.602617 261.820303 
L 162.313794 270.509963 
L 167.036957 281.725597 
L 169.488241 285.914875 
L 171.766021 290.275903 
L 174.212398 295.963268 
L 176.602284 300.890652 
L 181.336603 309.655354 
L 188.436391 323.761856 
L 193.199997 332.410246 
L 202.614175 349.130076 
L 207.363697 357.006931 
L 214.534713 368.608643 
L 223.96402 383.182661 
L 228.765711 390.20207 
L 235.815747 400.267865 
L 240.577944 406.683913 
L 250.085609 418.706231 
L 257.216271 426.818323 
L 259.578834 429.469345 
L 266.709288 436.817123 
L 271.399733 441.328854 
L 276.15772 445.686993 
L 283.265284 451.710017 
L 288.033315 455.343531 
L 292.806068 458.734998 
L 299.857779 463.162814 
L 306.979167 466.880518 
L 309.399282 468.077337 
L 316.519032 470.901347 
L 321.218742 472.470418 
L 323.640309 473.158657 
L 330.693428 474.705098 
L 333.115863 475.134715 
L 337.819806 475.597691 
L 342.595724 475.824949 
L 347.300971 475.707674 
L 352.079824 475.142969 
L 356.78817 474.338624 
L 361.56984 473.184382 
L 366.282151 471.738914 
L 378.145308 467.859571 
L 382.940439 466.626779 
L 392.412383 464.30103 
L 394.785465 463.850572 
L 399.537567 463.23201 
L 404.226425 462.565437 
L 408.99178 462.300417 
L 413.762976 462.272216 
L 418.458617 462.488744 
L 423.221422 463.129936 
L 430.359407 464.624721 
L 435.118944 465.882481 
L 454.050979 471.638835 
L 458.794608 472.884008 
L 463.532663 473.823304 
L 470.702818 474.669881 
L 477.798211 475.10218 
L 482.526971 475.143106 
L 487.25676 474.905599 
L 489.622356 474.634527 
L 496.794342 473.371402 
L 501.531812 472.293577 
L 506.274625 470.994892 
L 520.519144 466.533647 
L 529.955078 464.080169 
L 534.71643 463.184275 
L 539.480592 462.599828 
L 544.17303 462.38103 
L 548.937726 462.356681 
L 553.705698 462.667304 
L 558.474144 463.145344 
L 565.54572 464.173507 
L 570.303967 465.178835 
L 575.060687 466.567419 
L 591.673632 471.630031 
L 601.155057 473.983705 
L 605.892311 474.781584 
L 610.625489 475.118413 
L 617.722305 475.256047 
L 622.446676 474.94343 
L 627.24601 474.392549 
L 631.976979 473.501195 
L 643.814103 470.909532 
L 650.929295 468.909676 
L 660.431274 465.896788 
L 667.563359 464.072121 
L 669.88671 463.561616 
L 669.88671 463.561616 
" style="fill:none;stroke:#ff0000;stroke-linecap:square;stroke-width:2;"/>
    <g clip-path="url(#pae56813a50)">
     <use style="fill:#ff0000;stroke:#ff0000;" x="76.884892" xlink:href="#m27e8451de9" y="59.017054"/>
     <use style="fill:#ff0000;stroke:#ff0000;" x="117.308383" xlink:href="#m27e8451de9" y="166.621363"/>
     <use style="fill:#ff0000;stroke:#ff0000;" x="157.602617" xlink:href="#m27e8451de9" y="261.820303"/>
     <use style="fill:#ff0000;stroke:#ff0000;" x="197.892836" xlink:href="#m27e8451de9" y="340.861986"/>
     <use style="fill:#ff0000;stroke:#ff0000;" x="238.204714" xlink:href="#m27e8451de9" y="403.516265"/>
     <use style="fill:#ff0000;stroke:#ff0000;" x="278.573402" xlink:href="#m27e8451de9" y="447.776267"/>
     <use style="fill:#ff0000;stroke:#ff0000;" x="318.868787" xlink:href="#m27e8451de9" y="471.744416"/>
     <use style="fill:#ff0000;stroke:#ff0000;" x="359.214385" xlink:href="#m27e8451de9" y="473.790907"/>
     <use style="fill:#ff0000;stroke:#ff0000;" x="399.537567" xlink:href="#m27e8451de9" y="463.23201"/>
     <use style="fill:#ff0000;stroke:#ff0000;" x="439.804688" xlink:href="#m27e8451de9" y="467.30477"/>
     <use style="fill:#ff0000;stroke:#ff0000;" x="480.162383" xlink:href="#m27e8451de9" y="475.169725"/>
     <use style="fill:#ff0000;stroke:#ff0000;" x="520.519144" xlink:href="#m27e8451de9" y="466.533647"/>
     <use style="fill:#ff0000;stroke:#ff0000;" x="560.784916" xlink:href="#m27e8451de9" y="463.456585"/>
     <use style="fill:#ff0000;stroke:#ff0000;" x="601.155057" xlink:href="#m27e8451de9" y="473.983705"/>
     <use style="fill:#ff0000;stroke:#ff0000;" x="641.445068" xlink:href="#m27e8451de9" y="471.500307"/>
    </g>
   </g>
  </g>
 </g>
 <defs>
  <clipPath id="pae56813a50">
   <rect height="458.4888" width="652.302" x="47.234801" y="38.176549"/>
  </clipPath>
 </defs>
</svg>
