<?xml version="1.0" encoding="UTF-8" standalone="no"?>
<svg
   xmlns:dc="http://purl.org/dc/elements/1.1/"
   xmlns:cc="http://creativecommons.org/ns#"
   xmlns:rdf="http://www.w3.org/1999/02/22-rdf-syntax-ns#"
   xmlns:svg="http://www.w3.org/2000/svg"
   xmlns="http://www.w3.org/2000/svg"
   xmlns:xlink="http://www.w3.org/1999/xlink"
   xmlns:sodipodi="http://sodipodi.sourceforge.net/DTD/sodipodi-0.dtd"
   xmlns:inkscape="http://www.inkscape.org/namespaces/inkscape"
   width="407.84857"
   height="311.70886"
   id="svg2"
   sodipodi:version="0.32"
   inkscape:version="0.91 r13725"
   sodipodi:docname="DomaineReference.svg"
   inkscape:output_extension="org.inkscape.output.svg.inkscape"
   version="1.0"
   sodipodi:modified="true">
  <sodipodi:namedview
     inkscape:window-height="998"
     inkscape:window-width="1679"
     inkscape:pageshadow="2"
     inkscape:pageopacity="0.0"
     guidetolerance="10.0"
     gridtolerance="10.0"
     objecttolerance="10.0"
     borderopacity="1.0"
     bordercolor="#666666"
     pagecolor="#ffffff"
     id="base"
     inkscape:zoom="1.6704906"
     inkscape:cx="133.09678"
     inkscape:cy="193.04596"
     inkscape:window-x="10"
     inkscape:window-y="34"
     inkscape:current-layer="svg2"
     showgrid="false"
     inkscape:window-maximized="0"
     fit-margin-top="0"
     fit-margin-left="0"
     fit-margin-right="0"
     fit-margin-bottom="0" />
  <metadata
     id="metadata97">
    <rdf:RDF>
      <cc:Work
         rdf:about="">
        <dc:format>image/svg+xml</dc:format>
        <dc:type
           rdf:resource="http://purl.org/dc/dcmitype/StillImage" />
        <dc:title></dc:title>
      </cc:Work>
    </rdf:RDF>
  </metadata>
  <defs
     id="defs4">
    <marker
       style="overflow:visible"
       orient="auto"
       id="Arrow1Lend"
       refY="0"
       inkscape:stockid="Arrow1Lend"
       refX="0">
      <path
         style="fill-rule:evenodd;stroke:#000000;stroke-width:1pt;marker-start:none"
         id="path3358"
         d="M 0,0 5,-5 -12.5,0 5,5 0,0 z"
         transform="matrix(-0.8,0,0,-0.8,-10,0)"
         inkscape:connector-curvature="0" />
    </marker>
    <marker
       viewBox="0 0 10 10"
       markerUnits="strokeWidth"
       markerHeight="3"
       orient="auto"
       id="ArrowEnd"
       markerWidth="4"
       refY="5"
       refX="0">
      <path
         d="M 0,0 10,5 0,10 0,0 z"
         id="path7"
         inkscape:connector-curvature="0" />
    </marker>
    <marker
       viewBox="0 0 10 10"
       markerUnits="strokeWidth"
       markerHeight="3"
       orient="auto"
       id="ArrowStart"
       markerWidth="4"
       refY="5"
       refX="10">
      <path
         d="M 10,0 0,5 10,10 10,0 z"
         id="path10"
         inkscape:connector-curvature="0" />
    </marker>
    <marker
       id="marker3534"
       markerUnits="strokeWidth"
       markerHeight="3"
       orient="auto"
       viewBox="0 0 10 10"
       markerWidth="4"
       refY="5"
       refX="10">
      <path
         id="path3518"
         d="M 10,0 0,5 10,10 10,0 z"
         inkscape:connector-curvature="0" />
    </marker>
    <marker
       id="marker3531"
       markerUnits="strokeWidth"
       markerHeight="3"
       orient="auto"
       viewBox="0 0 10 10"
       markerWidth="4"
       refY="5"
       refX="0">
      <path
         id="path3515"
         d="M 0,0 10,5 0,10 0,0 z"
         inkscape:connector-curvature="0" />
    </marker>
    <marker
       id="marker3707"
       markerUnits="strokeWidth"
       markerHeight="3"
       orient="auto"
       viewBox="0 0 10 10"
       markerWidth="4"
       refY="5"
       refX="10">
      <path
         id="path3693"
         d="M 10,0 0,5 10,10 10,0 z"
         inkscape:connector-curvature="0" />
    </marker>
    <marker
       id="marker3704"
       markerUnits="strokeWidth"
       markerHeight="3"
       orient="auto"
       viewBox="0 0 10 10"
       markerWidth="4"
       refY="5"
       refX="0">
      <path
         id="path3690"
         d="M 0,0 10,5 0,10 0,0 z"
         inkscape:connector-curvature="0" />
    </marker>
    <marker
       id="marker3893"
       markerUnits="strokeWidth"
       markerHeight="3"
       orient="auto"
       viewBox="0 0 10 10"
       markerWidth="4"
       refY="5"
       refX="10">
      <path
         id="path3879"
         d="M 10,0 0,5 10,10 10,0 z"
         inkscape:connector-curvature="0" />
    </marker>
    <marker
       id="marker3890"
       markerUnits="strokeWidth"
       markerHeight="3"
       orient="auto"
       viewBox="0 0 10 10"
       markerWidth="4"
       refY="5"
       refX="0">
      <path
         id="path3876"
         d="M 0,0 10,5 0,10 0,0 z"
         inkscape:connector-curvature="0" />
    </marker>
    <marker
       id="marker4095"
       markerUnits="strokeWidth"
       markerHeight="3"
       orient="auto"
       viewBox="0 0 10 10"
       markerWidth="4"
       refY="5"
       refX="10">
      <path
         id="path4083"
         d="M 10,0 0,5 10,10 10,0 z"
         inkscape:connector-curvature="0" />
    </marker>
    <marker
       id="marker4092"
       markerUnits="strokeWidth"
       markerHeight="3"
       orient="auto"
       viewBox="0 0 10 10"
       markerWidth="4"
       refY="5"
       refX="0">
      <path
         id="path4080"
         d="M 0,0 10,5 0,10 0,0 z"
         inkscape:connector-curvature="0" />
    </marker>
    <marker
       id="marker5264"
       markerUnits="strokeWidth"
       viewBox="0 0 10 10"
       orient="auto"
       markerWidth="4"
       markerHeight="3"
       refY="5"
       refX="0">
      <path
         d="M 0,0 10,5 0,10 0,0 z"
         id="path5250"
         inkscape:connector-curvature="0" />
    </marker>
    <marker
       id="marker5267"
       markerUnits="strokeWidth"
       viewBox="0 0 10 10"
       orient="auto"
       markerWidth="4"
       markerHeight="3"
       refY="5"
       refX="10">
      <path
         d="M 10,0 0,5 10,10 10,0 z"
         id="path5253"
         inkscape:connector-curvature="0" />
    </marker>
    <marker
       viewBox="0 0 10 10"
       markerUnits="strokeWidth"
       markerHeight="3"
       orient="auto"
       id="marker5048"
       markerWidth="4"
       refY="5"
       refX="0">
      <path
         d="M 0,0 10,5 0,10 0,0 z"
         id="path5034"
         inkscape:connector-curvature="0" />
    </marker>
    <marker
       viewBox="0 0 10 10"
       markerUnits="strokeWidth"
       markerHeight="3"
       orient="auto"
       id="marker5051"
       markerWidth="4"
       refY="5"
       refX="10">
      <path
         d="M 10,0 0,5 10,10 10,0 z"
         id="path5037"
         inkscape:connector-curvature="0" />
    </marker>
    <marker
       viewBox="0 0 10 10"
       markerUnits="strokeWidth"
       markerHeight="3"
       orient="auto"
       id="marker4852"
       markerWidth="4"
       refY="5"
       refX="0">
      <path
         d="M 0,0 10,5 0,10 0,0 z"
         id="path4838"
         inkscape:connector-curvature="0" />
    </marker>
    <marker
       viewBox="0 0 10 10"
       markerUnits="strokeWidth"
       markerHeight="3"
       orient="auto"
       id="marker4855"
       markerWidth="4"
       refY="5"
       refX="10">
      <path
         d="M 10,0 0,5 10,10 10,0 z"
         id="path4841"
         inkscape:connector-curvature="0" />
    </marker>
    <marker
       viewBox="0 0 10 10"
       markerUnits="strokeWidth"
       markerHeight="3"
       orient="auto"
       id="marker4510"
       markerWidth="4"
       refY="5"
       refX="0">
      <path
         d="M 0,0 10,5 0,10 0,0 z"
         id="path4492"
         inkscape:connector-curvature="0" />
    </marker>
    <marker
       viewBox="0 0 10 10"
       markerUnits="strokeWidth"
       markerHeight="3"
       orient="auto"
       id="marker4513"
       markerWidth="4"
       refY="5"
       refX="10">
      <path
         d="M 10,0 0,5 10,10 10,0 z"
         id="path4495"
         inkscape:connector-curvature="0" />
    </marker>
    <marker
       viewBox="0 0 10 10"
       markerUnits="strokeWidth"
       markerHeight="3"
       orient="auto"
       id="marker4354"
       markerWidth="4"
       refY="5"
       refX="0">
      <path
         d="M 0,0 10,5 0,10 0,0 z"
         id="path4336"
         inkscape:connector-curvature="0" />
    </marker>
    <marker
       viewBox="0 0 10 10"
       markerUnits="strokeWidth"
       markerHeight="3"
       orient="auto"
       id="marker4357"
       markerWidth="4"
       refY="5"
       refX="10">
      <path
         d="M 10,0 0,5 10,10 10,0 z"
         id="path4339"
         inkscape:connector-curvature="0" />
    </marker>
    <marker
       viewBox="0 0 10 10"
       markerUnits="strokeWidth"
       markerHeight="3"
       orient="auto"
       id="marker2386"
       markerWidth="4"
       refY="5"
       refX="0">
      <path
         d="M 0,0 10,5 0,10 0,0 z"
         id="path4206"
         inkscape:connector-curvature="0" />
    </marker>
    <marker
       viewBox="0 0 10 10"
       markerUnits="strokeWidth"
       markerHeight="3"
       orient="auto"
       id="marker2383"
       markerWidth="4"
       refY="5"
       refX="10">
      <path
         d="M 10,0 0,5 10,10 10,0 z"
         id="path4209"
         inkscape:connector-curvature="0" />
    </marker>
    <marker
       style="overflow:visible"
       orient="auto"
       id="Arrow1Mstart"
       refY="0"
       inkscape:stockid="Arrow1Mstart"
       refX="0">
      <path
         style="fill-rule:evenodd;stroke:#000000;stroke-width:1pt;marker-start:none"
         id="path3223"
         d="M 0,0 5,-5 -12.5,0 5,5 0,0 z"
         transform="matrix(0.4,0,0,0.4,4,0)"
         inkscape:connector-curvature="0" />
    </marker>
    <marker
       style="overflow:visible"
       orient="auto"
       id="Arrow1Mend"
       refY="0"
       inkscape:stockid="Arrow1Mend"
       refX="0">
      <path
         style="fill-rule:evenodd;stroke:#000000;stroke-width:1pt;marker-start:none"
         id="path3220"
         d="M 0,0 5,-5 -12.5,0 5,5 0,0 z"
         transform="matrix(-0.4,0,0,-0.4,-4,0)"
         inkscape:connector-curvature="0" />
    </marker>
    <radialGradient
       inkscape:collect="always"
       xlink:href="#linearGradient3781"
       id="radialGradient3787"
       cx="5046"
       cy="4444"
       fx="5046"
       fy="4444"
       r="1481"
       gradientTransform="matrix(1,0,0,1.3058744,0,-1359.3059)"
       gradientUnits="userSpaceOnUse" />
    <linearGradient
       id="linearGradient3781">
      <stop
         style="stop-color:#fffffb;stop-opacity:1;"
         offset="0"
         id="stop3783" />
      <stop
         style="stop-color:#323232;stop-opacity:1;"
         offset="1"
         id="stop3785" />
    </linearGradient>
    <radialGradient
       r="1481"
       fy="4444"
       fx="5046"
       cy="4444"
       cx="5046"
       gradientTransform="matrix(1,0,0,1.3058744,0,-1359.3059)"
       gradientUnits="userSpaceOnUse"
       id="radialGradient3032"
       xlink:href="#linearGradient3781"
       inkscape:collect="always" />
  </defs>
  <polygon
     transform="matrix(0.07095763,0,0,0.05967894,-116.43824,-149.71321)"
     points="5551,2586 5518,2576 5486,2566 5453,2558 5421,2551 5389,2545 5357,2539 5326,2535 5295,2531 5265,2528 5235,2527 5205,2525 5175,2525 5149,2525 5122,2526 5096,2528 5069,2530 5042,2533 5014,2537 4986,2541 4958,2547 4930,2553 4901,2560 4872,2569 4842,2578 4813,2588 4783,2599 4753,2612 4723,2625 4693,2639 4663,2655 4633,2671 4604,2689 4575,2707 4546,2727 4517,2747 4489,2768 4462,2790 4435,2813 4409,2836 4383,2861 4358,2886 4333,2912 4308,2939 4284,2966 4261,2995 4238,3025 4218,3051 4198,3078 4179,3106 4159,3135 4139,3165 4120,3196 4100,3229 4081,3262 4061,3296 4042,3331 4022,3368 4003,3405 3983,3443 3964,3482 3945,3522 3926,3562 3907,3603 3889,3645 3870,3687 3853,3730 3835,3773 3818,3815 3802,3858 3786,3901 3771,3944 3756,3986 3741,4029 3728,4070 3715,4112 3702,4152 3690,4192 3679,4232 3669,4271 3659,4309 3650,4347 3641,4383 3633,4420 3626,4455 3619,4490 3613,4525 3606,4565 3600,4605 3595,4644 3590,4684 3586,4723 3584,4762 3582,4801 3580,4840 3580,4880 3581,4919 3582,4958 3584,4997 3588,5036 3592,5075 3597,5114 3604,5152 3611,5190 3619,5227 3628,5264 3638,5301 3649,5337 3661,5372 3674,5406 3687,5440 3702,5473 3717,5505 3732,5536 3749,5567 3766,5596 3784,5626 3802,5654 3822,5682 3842,5710 3863,5738 3883,5763 3904,5789 3926,5814 3950,5840 3974,5865 3999,5891 4025,5916 4052,5941 4080,5967 4109,5992 4140,6016 4171,6041 4203,6065 4236,6088 4269,6111 4304,6134 4339,6156 4374,6176 4410,6197 4446,6216 4483,6234 4520,6251 4556,6267 4593,6282 4629,6296 4666,6308 4702,6319 4738,6329 4773,6338 4808,6345 4843,6351 4877,6356 4912,6360 4945,6362 4979,6363 5013,6363 5044,6361 5076,6358 5108,6355 5140,6350 5172,6343 5204,6336 5237,6327 5270,6317 5303,6306 5336,6293 5369,6280 5403,6265 5437,6248 5470,6231 5504,6212 5537,6192 5571,6171 5604,6148 5637,6125 5669,6101 5701,6076 5732,6050 5763,6023 5793,5995 5822,5967 5850,5938 5878,5909 5905,5879 5931,5849 5956,5818 5980,5788 6003,5756 6025,5725 6047,5693 6068,5661 6087,5629 6107,5596 6125,5563 6144,5527 6162,5491 6179,5454 6196,5416 6213,5377 6229,5338 6244,5298 6259,5257 6274,5215 6288,5173 6301,5130 6314,5087 6327,5043 6339,4999 6351,4955 6362,4911 6373,4866 6383,4823 6393,4779 6402,4736 6410,4694 6419,4652 6426,4612 6433,4572 6440,4534 6446,4497 6452,4461 6457,4426 6462,4393 6466,4361 6471,4331 6474,4302 6478,4275 6481,4248 6485,4224 6488,4200 6492,4164 6496,4131 6500,4100 6503,4072 6506,4045 6508,4020 6510,3997 6511,3975 6512,3954 6512,3934 6511,3916 6510,3898 6508,3880 6505,3863 6502,3846 6498,3829 6494,3812 6489,3794 6483,3775 6477,3756 6470,3735 6463,3713 6457,3695 6450,3676 6443,3656 6436,3634 6428,3612 6420,3588 6411,3563 6401,3537 6391,3510 6380,3481 6368,3452 6356,3422 6343,3392 6329,3360 6315,3329 6300,3297 6285,3265 6269,3233 6253,3202 6236,3171 6219,3140 6202,3110 6184,3081 6166,3053 6147,3025 6129,2998 6110,2972 6090,2947 6070,2923 6050,2900 6050,2900 6029,2877 6007,2856 5985,2834 5962,2813 5938,2793 5913,2773 5887,2754 5860,2735 5832,2717 5803,2699 5773,2683 5743,2666 5712,2651 5681,2636 5649,2622 5616,2609 5584,2597 "
     style="fill:url(#radialGradient3032);fill-opacity:1;stroke:#000000;stroke-width:30;stroke-linecap:butt;stroke-linejoin:bevel"
     id="polygon48" />
  <path
     style="fill:none;stroke:#000000;stroke-width:2;stroke-linejoin:bevel;stroke-miterlimit:4;stroke-dasharray:none;marker-end:url(#Arrow1Mend)"
     id="path74"
     d="m 340.72364,122.85141 64.66933,13.85771"
     inkscape:connector-curvature="0" />
  <path
     style="fill:#000000;fill-rule:evenodd;stroke:none"
     id="path92"
     d="m 238.38758,117.2787 -0.69414,-5.89176 c -3.01501,-1.66905 -4.94366,-5.05371 -4.94366,-8.6246 0,-1.9738 0.56717,-4.215658 1.56464,-6.001808 1.37277,-2.46901 3.66543,-3.87987 6.26141,-3.87987 2.59458,0 4.88159,1.41086 6.26,3.87987 0.99183,1.78615 1.56465,4.028008 1.56465,6.001808 0,3.57089 -1.88915,6.95555 -4.83221,8.6246 l -0.67862,5.89176 11.12182,0 0,-5.82545 -0.91,0 c -0.26383,1.70291 -1.10188,2.4422 -2.62279,2.4422 l -5.56021,0 0.11004,-1.44472 c 1.31634,-0.49098 2.11065,-0.8705 3.01502,-1.44331 2.86546,-1.86375 4.60082,-4.95495 4.60082,-8.22815 0,-2.51416 -1.10188,-5.335878 -2.93177,-7.467698 -2.31946,-2.66794 -5.51083,-4.11689 -9.12687,-4.11689 -3.60899,0 -6.806,1.44331 -9.12546,4.11689 -1.82424,2.13182 -2.92754,4.953538 -2.92754,7.467698 0,3.2732 1.76358,6.35875 4.67419,8.22815 0.88179,0.56716 1.68033,0.9481 3.06439,1.44331 l 0.11005,1.44472 -5.56021,0 c -1.52232,0 -2.35896,-0.73365 -2.6242,-2.4422 l -0.9086,0 0,5.82545 11.09925,0 z"
     inkscape:connector-curvature="0" />
  <g
     id="g3520"
     transform="matrix(0.522234,0,0,0.522234,380.8052,104.89296)">
    <path
       style="fill:#000000;fill-rule:evenodd;stroke:none"
       id="path3522"
       d="m 30.15,9.78998 c 0.69,0 1.64,0 1.64,-1 0,-1 -0.95,-1 -1.64,-1 l -27.10996,0 c -0.70007,0 -1.65003,0 -1.65003,1 0,1 0.94996,1 1.65003,1 l 27.10996,0 z"
       inkscape:connector-curvature="0" />
    <path
       style="fill:#000000;fill-rule:evenodd;stroke:none"
       id="path3524"
       d="M 39.9399,9.78998 C 36.2,12.54 34.5601,16.688 34.5601,17.09 c 0,0.45 0.3899,0.598 0.7399,0.598 0.6,0 0.7,-0.297 0.8,-0.496 0.75,-1.688 2.3399,-5.316 7.32,-7.65202 0.6,-0.297 0.7,-0.34799 0.7,-0.69599 0,-0.34701 -0.3001,-0.496 -0.35,-0.496 -2.69,-1.242 -5.5801,-3.078 -7.62,-7.652006 C 35.96,0.25 35.86,0 35.3101,0 c -0.3501,0 -0.75,0.148987 -0.75,0.593994 0,0.394989 1.6399,4.488986 5.3798,7.203006 l -38.29989,0 C 0.890015,7.797 0,7.797 0,8.797 c 0,1 0.890015,1 1.64001,1 L 39.9399,9.78998 z"
       inkscape:connector-curvature="0" />
    <path
       style="fill:#000000;fill-rule:evenodd;stroke:none"
       id="path3526"
       d="m 11.59,34.817 c -0.1501,0.742 -0.45,1.883 -0.45,2.133 0,0.89 0.7,1.34 1.45,1.34 0.5999,0 1.49,-0.395 1.8401,-1.387 0.0499,-0.098 0.6499,-2.43 0.9499,-3.672 0.35,-1.488 0.74,-2.977 1.1,-4.465 0.29,-1.09 0.5899,-2.183 0.8399,-3.324 0.2001,-0.844 0.6001,-2.281 0.6501,-2.481 0.75,-1.535 3.39,-6.058 8.13,-6.058 2.24,0 2.7,1.84 2.7,3.476 0,3.075 -2.4801,9.43 -3.3,11.567 -0.45,1.14 -0.5,1.734 -0.5,2.281 0,2.332 1.75,4.07 4.09,4.07 4.7,0 6.55,-7.226 6.55,-7.625 0,-0.492 -0.4501,-0.492 -0.6,-0.492 -0.5,0 -0.5,0.149 -0.74,0.891 -1,3.359 -2.65,6.129 -5.1,6.129 -0.84,0 -1.19,-0.492 -1.19,-1.637 0,-1.238 0.45,-2.43 0.91,-3.523 0.96,-2.629 3.08,-8.09 3.08,-10.918 0,-3.325 -2.14,-5.313 -5.73,-5.313 -4.49,0 -6.94,3.172 -7.79,4.313 -0.25,-2.774 -2.2901,-4.313 -4.59,-4.313 -2.29,0 -3.24,1.938 -3.73,2.832 -0.80001,1.688 -1.49997,4.617 -1.49997,4.817 0,0.496 0.5,0.496 0.59998,0.496 0.48999,0 0.54004,-0.047 0.84999,-1.141 0.84,-3.523 1.84,-5.906 3.64,-5.906 0.99,0 1.54,0.648 1.54,2.285 0,1.043 -0.15,1.586 -0.8,4.168 l -2.9,11.457 z"
       inkscape:connector-curvature="0" />
  </g>
  <g
     id="g4085"
     transform="matrix(0.633833,0,0,0.633833,118.611,32.054002)">
    <path
       style="fill:#000000;fill-rule:evenodd;stroke:none"
       id="path4087"
       d="M 26.0601,0 0,0 l 0,1.5 1.19995,0 c 3.8501,0 3.95007,0.55099 3.95007,2.35199 l 0,26.19501 c 0,1.797 -0.08996,2.348 -3.95007,2.348 l -1.19995,0 0,1.5 c 1.73999,-0.149 5.63,-0.149 7.57007,-0.149 2.03992,0 6.57993,0 8.37003,0.149 l 0,-1.5 -1.6401,0 c -4.73994,0 -4.73994,-0.649 -4.73994,-2.399 l 0,-26.496 C 9.56006,1.85199 9.65002,1.496 12,1.496 l 5.13,0 c 7.13,0 8.1801,2.961 8.97,9.735 l 1.25,0 L 26.0601,0 z"
       inkscape:connector-curvature="0" />
  </g>
  <g
     inkscape:label="Layer 1"
     id="layer1"
     transform="matrix(0.767327,0,0,0.767327,-26.680359,-216.49004)">
    <g
       transform="translate(-40.5,170.5)"
       id="g5273">
      <path
         style="fill:none;stroke:#000000;stroke-width:1px;stroke-linecap:butt;stroke-linejoin:miter;stroke-opacity:1"
         d="m 460,452.36218 -260,0 0,-230"
         id="path2160"
         inkscape:connector-curvature="0" />
      <path
         style="fill:none;stroke:#000000;stroke-width:3;stroke-linecap:butt;stroke-linejoin:miter;stroke-miterlimit:4;stroke-opacity:1;stroke-dasharray:none;marker-start:url(#Arrow1Mstart);marker-end:url(#Arrow1Mend)"
         d="m 200,387.36218 0,65 -40,25"
         id="path2168"
         inkscape:connector-curvature="0" />
      <path
         style="fill:none;stroke:#000000;stroke-width:3;stroke-linecap:butt;stroke-linejoin:miter;stroke-miterlimit:4;stroke-opacity:1;stroke-dasharray:none;marker-end:url(#Arrow1Mend)"
         d="m 200,452.36218 70,0"
         id="path3238"
         inkscape:connector-curvature="0" />
      <path
         style="fill:none;stroke:#000000;stroke-width:1px;stroke-linecap:butt;stroke-linejoin:miter;stroke-opacity:1"
         d="m 200,452.36218 -105,65"
         id="path4125"
         inkscape:connector-curvature="0" />
      <g
         id="g4211"
         transform="matrix(0.543608,0,0,0.543608,136.016,447.3622)">
        <path
           style="fill:#000000;fill-rule:evenodd;stroke:none"
           id="path4213"
           d="m 30.15,9.78998 c 0.69,0 1.64,0 1.64,-1 0,-1 -0.95,-1 -1.64,-1 l -27.10996,0 c -0.70007,0 -1.65003,0 -1.65003,1 0,1 0.94996,1 1.65003,1 l 27.10996,0 z"
           inkscape:connector-curvature="0" />
        <path
           style="fill:#000000;fill-rule:evenodd;stroke:none"
           id="path4215"
           d="M 39.9399,9.78998 C 36.2,12.54 34.5601,16.688 34.5601,17.09 c 0,0.45 0.3899,0.598 0.7399,0.598 0.6,0 0.7,-0.297 0.8,-0.496 0.75,-1.688 2.3399,-5.316 7.32,-7.65202 0.6,-0.297 0.7,-0.34799 0.7,-0.69599 0,-0.34701 -0.3001,-0.496 -0.35,-0.496 -2.69,-1.242 -5.5801,-3.078 -7.62,-7.652006 C 35.96,0.25 35.86,0 35.3101,0 c -0.3501,0 -0.75,0.148987 -0.75,0.593994 0,0.394989 1.6399,4.488986 5.3798,7.203006 l -38.29989,0 C 0.890015,7.797 0,7.797 0,8.797 c 0,1 0.890015,1 1.64001,1 L 39.9399,9.78998 z"
           inkscape:connector-curvature="0" />
        <path
           style="fill:#000000;fill-rule:evenodd;stroke:none"
           id="path4217"
           d="m 8.73999,26.29 c 1.44011,0 5.13001,-0.094 7.62001,-1.098 3.48,-1.496 3.74,-4.445 3.74,-5.145 0,-2.195 -1.9,-4.25 -5.34,-4.25 -5.53002,0 -13.06005,4.817 -13.06005,13.508 0,5.063 2.94006,8.988 7.82007,8.988 7.10998,0 11.29988,-5.238 11.29988,-5.832 0,-0.293 -0.2999,-0.64 -0.5999,-0.64 -0.24,0 -0.34,0.097 -0.64,0.492 -3.93,4.883 -9.35,4.883 -9.95,4.883 -3.88,0 -4.31994,-4.16 -4.31994,-5.746 0,-0.594 0.04993,-2.129 0.79993,-5.153 l 2.63,-0.007 z M 6.37,25.188 c 1.94995,-7.551 7.11,-8.297 8.42,-8.297 2.35,0 3.7,1.442 3.7,3.129 0,5.164 -8.01,5.164 -10.06996,5.164 L 6.37,25.188 z"
           inkscape:connector-curvature="0" />
        <path
           style="fill:#000000;fill-rule:evenodd;stroke:none"
           id="path4219"
           d="m 32.12,33.688 c 2.72,0 4.67,1.879 4.67,5.602 0,4.308 -2.51,5.597 -4.53,5.597 -1.4,0 -4.47,-0.375 -5.93,-2.398 1.63,-0.067 2.02,-1.227 2.02,-1.965 0,-1.121 -0.84,-1.93 -1.9199,-1.93 -0.9801,0 -1.9501,0.59 -1.9501,2.012 0,3.262 3.61,5.383 7.8301,5.383 4.8399,0 8.1799,-3.246 8.1799,-6.742 0,-2.723 -2.22,-5.45 -6.04,-6.254 3.64,-1.325 4.96,-3.946 4.96,-6.078 0,-2.758 -3.15,-4.821 -7.01,-4.821 -3.85,0 -6.8,1.903 -6.8,4.727 0,1.199 0.76,1.867 1.81,1.867 1.09,0 1.79,-0.801 1.79,-1.781 0,-1.012 -0.72,-1.746 -1.82,-1.817 1.21,-1.597 3.62,-1.996 4.91,-1.996 1.57,0 3.7701,0.77 3.7701,3.817 0,1.468 -0.4902,3.078 -1.4001,4.168 -1.14,1.328 -2.12,1.398 -3.87,1.504 -0.87,0.066 -0.94,0.066 -1.1099,0.101 -0.0701,0 -0.3501,0.07 -0.3501,0.481 0,0.515 0.31,0.515 0.91,0.515 l 1.88,0.008 z"
           inkscape:connector-curvature="0" />
      </g>
      <g
         id="g4341"
         transform="matrix(0.551998,0,0,0.551998,170,367.3622)">
        <path
           style="fill:#000000;fill-rule:evenodd;stroke:none"
           id="path4343"
           d="m 30.15,9.78998 c 0.69,0 1.64,0 1.64,-1 0,-1 -0.95,-1 -1.64,-1 l -27.10996,0 c -0.70007,0 -1.65003,0 -1.65003,1 0,1 0.94996,1 1.65003,1 l 27.10996,0 z"
           inkscape:connector-curvature="0" />
        <path
           style="fill:#000000;fill-rule:evenodd;stroke:none"
           id="path4345"
           d="M 39.9399,9.78998 C 36.2,12.54 34.5601,16.688 34.5601,17.09 c 0,0.45 0.3899,0.598 0.7399,0.598 0.6,0 0.7,-0.297 0.8,-0.496 0.75,-1.688 2.3399,-5.316 7.32,-7.65202 0.6,-0.297 0.7,-0.34799 0.7,-0.69599 0,-0.34701 -0.3001,-0.496 -0.35,-0.496 -2.69,-1.242 -5.5801,-3.078 -7.62,-7.652006 C 35.96,0.25 35.86,0 35.3101,0 c -0.3501,0 -0.75,0.148987 -0.75,0.593994 0,0.394989 1.6399,4.488986 5.3798,7.203006 l -38.29989,0 C 0.890015,7.797 0,7.797 0,8.797 c 0,1 0.890015,1 1.64001,1 L 39.9399,9.78998 z"
           inkscape:connector-curvature="0" />
        <path
           style="fill:#000000;fill-rule:evenodd;stroke:none"
           id="path4347"
           d="m 8.73999,26.29 c 1.44011,0 5.13001,-0.094 7.62001,-1.098 3.48,-1.496 3.74,-4.445 3.74,-5.145 0,-2.195 -1.9,-4.25 -5.34,-4.25 -5.53002,0 -13.06005,4.817 -13.06005,13.508 0,5.063 2.94006,8.988 7.82007,8.988 7.10998,0 11.29988,-5.238 11.29988,-5.832 0,-0.293 -0.2999,-0.64 -0.5999,-0.64 -0.24,0 -0.34,0.097 -0.64,0.492 -3.93,4.883 -9.35,4.883 -9.95,4.883 -3.88,0 -4.31994,-4.16 -4.31994,-5.746 0,-0.594 0.04993,-2.129 0.79993,-5.153 l 2.63,-0.007 z M 6.37,25.188 c 1.94995,-7.551 7.11,-8.297 8.42,-8.297 2.35,0 3.7,1.442 3.7,3.129 0,5.164 -8.01,5.164 -10.06996,5.164 L 6.37,25.188 z"
           inkscape:connector-curvature="0" />
        <path
           style="fill:#000000;fill-rule:evenodd;stroke:none"
           id="path4349"
           d="m 40.2,38.946 -1.18,0 c -0.11,0.758 -0.4501,2.793 -0.91,3.137 -0.27,0.203 -2.96,0.203 -3.44,0.203 l -6.41,0 c 3.65,-3.243 4.87,-4.219 6.97,-5.856 2.57,-2.054 4.98,-4.219 4.98,-7.531 0,-4.219 -3.69,-6.805 -8.16,-6.805 -4.32,0 -7.2399,3.035 -7.2399,6.242 0,1.778 1.5,1.954 1.8499,1.954 0.83,0 1.84,-0.59 1.84,-1.848 0,-0.629 -0.24,-1.848 -2.0601,-1.848 1.0801,-2.441 3.4401,-3.195 5.0801,-3.195 3.47,0 5.28,2.719 5.28,5.543 0,3.031 -2.16,5.437 -3.27,6.691 l -8.38,8.297 c -0.35,0.313 -0.35,0.383 -0.35,1.36 l 14.35,0 1.05,-6.344 z"
           inkscape:connector-curvature="0" />
      </g>
      <g
         id="g4497"
         transform="matrix(0.552096,0,0,0.552096,260.6415,457.3622)">
        <path
           style="fill:#000000;fill-rule:evenodd;stroke:none"
           id="path4499"
           d="m 30.15,9.78998 c 0.69,0 1.64,0 1.64,-1 0,-1 -0.95,-1 -1.64,-1 l -27.10996,0 c -0.70007,0 -1.65003,0 -1.65003,1 0,1 0.94996,1 1.65003,1 l 27.10996,0 z"
           inkscape:connector-curvature="0" />
        <path
           style="fill:#000000;fill-rule:evenodd;stroke:none"
           id="path4501"
           d="M 39.9399,9.78998 C 36.2,12.54 34.5601,16.688 34.5601,17.09 c 0,0.45 0.3899,0.598 0.7399,0.598 0.6,0 0.7,-0.297 0.8,-0.496 0.75,-1.688 2.3399,-5.316 7.32,-7.65202 0.6,-0.297 0.7,-0.34799 0.7,-0.69599 0,-0.34701 -0.3001,-0.496 -0.35,-0.496 -2.69,-1.242 -5.5801,-3.078 -7.62,-7.652006 C 35.96,0.25 35.86,0 35.3101,0 c -0.3501,0 -0.75,0.148987 -0.75,0.593994 0,0.394989 1.6399,4.488986 5.3798,7.203006 l -38.29989,0 C 0.890015,7.797 0,7.797 0,8.797 c 0,1 0.890015,1 1.64001,1 L 39.9399,9.78998 z"
           inkscape:connector-curvature="0" />
        <path
           style="fill:#000000;fill-rule:evenodd;stroke:none"
           id="path4503"
           d="m 8.73999,26.29 c 1.44011,0 5.13001,-0.094 7.62001,-1.098 3.48,-1.496 3.74,-4.445 3.74,-5.145 0,-2.195 -1.9,-4.25 -5.34,-4.25 -5.53002,0 -13.06005,4.817 -13.06005,13.508 0,5.063 2.94006,8.988 7.82007,8.988 7.10998,0 11.29988,-5.238 11.29988,-5.832 0,-0.293 -0.2999,-0.64 -0.5999,-0.64 -0.24,0 -0.34,0.097 -0.64,0.492 -3.93,4.883 -9.35,4.883 -9.95,4.883 -3.88,0 -4.31994,-4.16 -4.31994,-5.746 0,-0.594 0.04993,-2.129 0.79993,-5.153 l 2.63,-0.007 z M 6.37,25.188 c 1.94995,-7.551 7.11,-8.297 8.42,-8.297 2.35,0 3.7,1.442 3.7,3.129 0,5.164 -8.01,5.164 -10.06996,5.164 L 6.37,25.188 z"
           inkscape:connector-curvature="0" />
        <path
           style="fill:#000000;fill-rule:evenodd;stroke:none"
           id="path4505"
           d="m 34.3,23.071 c 0,-0.938 -0.07,-0.977 -1.05,-0.977 -2.23,2.262 -5.42,2.297 -6.85,2.297 l 0,1.297 c 0.85,0 3.1699,0 5.1,-1.043 l 0,17.742 c 0,1.145 0,1.598 -3.52,1.598 l -1.33,0 0,1.297 c 0.62,-0.032 4.9101,-0.137 6.2,-0.137 1.0801,0 5.4699,0.102 6.24,0.137 l 0,-1.297 -1.32,0 c -3.47,0 -3.47,-0.449 -3.47,-1.602 l 0,-19.312 z"
           inkscape:connector-curvature="0" />
      </g>
      <g
         id="g4843"
         transform="matrix(0.67815,0,0,0.67815,430,457.3622)">
        <path
           style="fill:#000000;fill-rule:evenodd;stroke:none"
           id="path4845"
           d="m 15.24,6.96002 c 0.29,-1.289 1.4401,-5.85501 4.93,-5.85501 0.24,0 1.4401,0 2.49,0.59799 -1.38,0.24601 -2.36,1.48001 -2.36,2.668 0,0.789 0.5401,1.72602 1.8901,1.72602 1.0999,0 2.6999,-0.883 2.6999,-2.85102 C 24.89,0.69101 21.9801,0 20.3,0 17.39,0 15.64,2.625 15.04,3.76501 13.79,0.496002 11.0901,0 9.64001,0 4.44006,0 1.59009,6.41 1.59009,7.65201 c 0,0.496 0.5,0.496 0.59997,0.496 0.40003,0 0.54993,-0.09799 0.65003,-0.543 1.68994,-5.26199 4.97998,-6.504 6.66992,-6.504 0.94009,0 2.68009,0.44501 2.68009,3.32401 0,1.535 -0.84,4.86398 -2.68009,11.80898 -0.79993,3.074 -2.53992,5.16 -4.72998,5.16 -0.29993,0 -1.43994,0 -2.48999,-0.598 C 3.51001,20.55 4.6001,19.511 4.6001,18.128 4.6001,16.796 3.5,16.402 2.75,16.402 1.25,16.402 0,17.679 0,19.253 c 0,2.262 2.5,3.243 4.69006,3.243 3.29004,0 5.08997,-3.442 5.23999,-3.739 0.59995,1.821 2.39005,3.739 5.39005,3.739 5.13,0 7.9799,-6.387 7.9799,-7.625 0,-0.493 -0.4399,-0.493 -0.5899,-0.493 -0.4501,0 -0.5501,0.196 -0.65,0.543 -1.6401,5.289 -5.0301,6.477 -6.62,6.477 -1.9401,0 -2.74,-1.586 -2.74,-3.273 0,-1.09 0.2999,-2.184 0.8399,-4.368 l 1.7,-6.79698 z"
           inkscape:connector-curvature="0" />
        <path
           style="fill:#000000;fill-rule:evenodd;stroke:none"
           id="path4847"
           d="M 38.7001,7.28101 C 38.7001,6.34302 38.63,6.30402 37.65,6.30402 35.42,8.56601 32.2301,8.60101 30.8,8.60101 l 0,1.297 c 0.85,0 3.1701,0 5.1,-1.043 l 0,17.74199 c 0,1.145 0,1.598 -3.51,1.598 l -1.34,0 0,1.297 c 0.6301,-0.032 4.9101,-0.137 6.2,-0.137 1.0801,0 5.4801,0.102 6.24,0.137 l 0,-1.297 -1.3099,0 c -3.47,0 -3.47,-0.449 -3.47,-1.602 l -0.01,-19.31199 z"
           inkscape:connector-curvature="0" />
      </g>
      <g
         id="g5039"
         transform="matrix(0.677966,0,0,0.677966,165,222.3622)">
        <path
           style="fill:#000000;fill-rule:evenodd;stroke:none"
           id="path5041"
           d="m 15.24,6.96002 c 0.29,-1.289 1.4401,-5.85501 4.93,-5.85501 0.24,0 1.4401,0 2.49,0.59799 -1.38,0.24601 -2.36,1.48001 -2.36,2.668 0,0.789 0.5401,1.72602 1.8901,1.72602 1.0999,0 2.6999,-0.883 2.6999,-2.85102 C 24.89,0.69101 21.9801,0 20.3,0 17.39,0 15.64,2.625 15.04,3.76501 13.79,0.496002 11.0901,0 9.64001,0 4.44006,0 1.59009,6.41 1.59009,7.65201 c 0,0.496 0.5,0.496 0.59997,0.496 0.40003,0 0.54993,-0.09799 0.65003,-0.543 1.68994,-5.26199 4.97998,-6.504 6.66992,-6.504 0.94009,0 2.68009,0.44501 2.68009,3.32401 0,1.535 -0.84,4.86398 -2.68009,11.80898 -0.79993,3.074 -2.53992,5.16 -4.72998,5.16 -0.29993,0 -1.43994,0 -2.48999,-0.598 C 3.51001,20.55 4.6001,19.511 4.6001,18.128 4.6001,16.796 3.5,16.402 2.75,16.402 1.25,16.402 0,17.679 0,19.253 c 0,2.262 2.5,3.243 4.69006,3.243 3.29004,0 5.08997,-3.442 5.23999,-3.739 0.59995,1.821 2.39005,3.739 5.39005,3.739 5.13,0 7.9799,-6.387 7.9799,-7.625 0,-0.493 -0.4399,-0.493 -0.5899,-0.493 -0.4501,0 -0.5501,0.196 -0.65,0.543 -1.6401,5.289 -5.0301,6.477 -6.62,6.477 -1.9401,0 -2.74,-1.586 -2.74,-3.273 0,-1.09 0.2999,-2.184 0.8399,-4.368 l 1.7,-6.79698 z"
           inkscape:connector-curvature="0" />
        <path
           style="fill:#000000;fill-rule:evenodd;stroke:none"
           id="path5043"
           d="m 44.6001,23.156 -1.1901,0 c -0.0999,0.758 -0.4499,2.793 -0.9,3.137 -0.2799,0.203 -2.96,0.203 -3.4399,0.203 l -6.4101,0 c 3.6501,-3.243 4.87,-4.219 6.96,-5.856 2.5801,-2.054 4.9801,-4.219 4.9801,-7.531 0,-4.21899 -3.6901,-6.80498 -8.15,-6.80498 -4.3201,0 -7.24,3.035 -7.24,6.24198 0,1.778 1.5,1.954 1.8399,1.954 0.84,0 1.85,-0.59 1.85,-1.848 0,-0.629 -0.24,-1.848 -2.0599,-1.848 C 31.91,8.36301 34.28,7.60901 35.91,7.60901 c 3.48,0 5.2901,2.71899 5.2901,5.54299 0,3.031 -2.1601,5.437 -3.27,6.691 L 29.55,28.14 c -0.3499,0.313 -0.3499,0.383 -0.3499,1.36 l 14.3499,0 1.0501,-6.344 z"
           inkscape:connector-curvature="0" />
      </g>
      <g
         id="g5255"
         transform="matrix(0.662274,0,0,0.662274,75.27052,487.3622)">
        <path
           style="fill:#000000;fill-rule:evenodd;stroke:none"
           id="path5257"
           d="m 15.24,6.96002 c 0.29,-1.289 1.4401,-5.85501 4.93,-5.85501 0.24,0 1.4401,0 2.49,0.59799 -1.38,0.24601 -2.36,1.48001 -2.36,2.668 0,0.789 0.5401,1.72602 1.8901,1.72602 1.0999,0 2.6999,-0.883 2.6999,-2.85102 C 24.89,0.69101 21.9801,0 20.3,0 17.39,0 15.64,2.625 15.04,3.76501 13.79,0.496002 11.0901,0 9.64001,0 4.44006,0 1.59009,6.41 1.59009,7.65201 c 0,0.496 0.5,0.496 0.59997,0.496 0.40003,0 0.54993,-0.09799 0.65003,-0.543 1.68994,-5.26199 4.97998,-6.504 6.66992,-6.504 0.94009,0 2.68009,0.44501 2.68009,3.32401 0,1.535 -0.84,4.86398 -2.68009,11.80898 -0.79993,3.074 -2.53992,5.16 -4.72998,5.16 -0.29993,0 -1.43994,0 -2.48999,-0.598 C 3.51001,20.55 4.6001,19.511 4.6001,18.128 4.6001,16.796 3.5,16.402 2.75,16.402 1.25,16.402 0,17.679 0,19.253 c 0,2.262 2.5,3.243 4.69006,3.243 3.29004,0 5.08997,-3.442 5.23999,-3.739 0.59995,1.821 2.39005,3.739 5.39005,3.739 5.13,0 7.9799,-6.387 7.9799,-7.625 0,-0.493 -0.4399,-0.493 -0.5899,-0.493 -0.4501,0 -0.5501,0.196 -0.65,0.543 -1.6401,5.289 -5.0301,6.477 -6.62,6.477 -1.9401,0 -2.74,-1.586 -2.74,-3.273 0,-1.09 0.2999,-2.184 0.8399,-4.368 l 1.7,-6.79698 z"
           inkscape:connector-curvature="0" />
        <path
           style="fill:#000000;fill-rule:evenodd;stroke:none"
           id="path5259"
           d="m 36.52,17.898 c 2.72,0 4.6701,1.879 4.6701,5.602 0,4.308 -2.51,5.597 -4.5301,5.597 -1.4,0 -4.4699,-0.375 -5.9299,-2.398 1.6399,-0.067 2.0199,-1.227 2.0199,-1.965 0,-1.121 -0.84,-1.93 -1.9199,-1.93 -0.98,0 -1.9501,0.59 -1.9501,2.012 0,3.262 3.62,5.383 7.8301,5.383 4.8399,0 8.1799,-3.246 8.1799,-6.742 0,-2.723 -2.22,-5.45 -6.0399,-6.254 3.6499,-1.325 4.97,-3.946 4.97,-6.078 0,-2.758 -3.1601,-4.82098 -7.0201,-4.82098 -3.8499,0 -6.8,1.90298 -6.8,4.72698 0,1.199 0.76,1.867 1.8201,1.867 1.0799,0 1.78,-0.801 1.78,-1.781 0,-1.012 -0.7201,-1.746 -1.8201,-1.81698 1.22,-1.59702 3.63,-1.996 4.9101,-1.996 1.5699,0 3.77,0.76999 3.77,3.81698 0,1.468 -0.48,3.078 -1.39,4.168 -1.1501,1.328 -2.13,1.398 -3.88,1.504 -0.87,0.066 -0.9401,0.066 -1.11,0.101 -0.0701,0 -0.35,0.07 -0.35,0.481 0,0.515 0.3199,0.515 0.9099,0.515 l 1.88,0.008 z"
           inkscape:connector-curvature="0" />
      </g>
    </g>
  </g>
  <path
     style="fill:none;stroke:#000000;stroke-width:1;stroke-linecap:butt;stroke-linejoin:miter;stroke-miterlimit:4;stroke-opacity:1;stroke-dasharray:none;marker-start:url(#Arrow1Mstart);marker-end:none"
     d="M 158.24084,64.061384 138.23436,49.462059"
     id="path3307"
     inkscape:connector-curvature="0" />
</svg>
