<?xml version="1.0" encoding="UTF-8" standalone="no"?>
<!-- Created with Inkscape (http://www.inkscape.org/) -->

<svg
   xmlns:dc="http://purl.org/dc/elements/1.1/"
   xmlns:cc="http://creativecommons.org/ns#"
   xmlns:rdf="http://www.w3.org/1999/02/22-rdf-syntax-ns#"
   xmlns:svg="http://www.w3.org/2000/svg"
   xmlns="http://www.w3.org/2000/svg"
   xmlns:sodipodi="http://sodipodi.sourceforge.net/DTD/sodipodi-0.dtd"
   xmlns:inkscape="http://www.inkscape.org/namespaces/inkscape"
   width="120mm"
   height="79.294502mm"
   id="svg59364"
   sodipodi:version="0.32"
   inkscape:version="0.91 r13725"
   version="1.0"
   sodipodi:docname="VectorField.svg"
   inkscape:output_extension="org.inkscape.output.svg.inkscape"
   sodipodi:modified="true">
  <sodipodi:namedview
     id="base"
     pagecolor="#ffffff"
     bordercolor="#666666"
     borderopacity="1.0"
     gridtolerance="10000"
     guidetolerance="10"
     objecttolerance="10"
     inkscape:pageopacity="0.0"
     inkscape:pageshadow="2"
     inkscape:zoom="0.88105925"
     inkscape:cx="265.52269"
     inkscape:cy="165.60709"
     inkscape:document-units="px"
     inkscape:current-layer="g4211"
     inkscape:window-width="1977"
     inkscape:window-height="1135"
     inkscape:window-x="115"
     inkscape:window-y="59"
     showgrid="false"
     inkscape:window-maximized="0"
     fit-margin-top="0"
     fit-margin-left="0"
     fit-margin-right="0"
     fit-margin-bottom="0"
     units="mm" />
  <defs
     id="defs59366">
    <inkscape:path-effect
       effect="spiro"
       id="path-effect7029"
       is_visible="true" />
    <inkscape:path-effect
       effect="spiro"
       id="path-effect7013"
       is_visible="true" />
    <inkscape:path-effect
       effect="spiro"
       id="path-effect6197"
       is_visible="true" />
    <marker
       refX="0"
       inkscape:stockid="Arrow1Mend"
       refY="0"
       id="Arrow1Mend"
       orient="auto"
       style="overflow:visible">
      <path
         transform="matrix(-0.4,0,0,-0.4,-4,0)"
         d="M 0,0 5,-5 -12.5,0 5,5 0,0 Z"
         id="path20077"
         style="fill-rule:evenodd;stroke:#000000;stroke-width:1pt;marker-start:none"
         inkscape:connector-curvature="0" />
    </marker>
    <marker
       refX="0"
       inkscape:stockid="Arrow1Mstart"
       refY="0"
       id="Arrow1Mstart"
       orient="auto"
       style="overflow:visible">
      <path
         transform="matrix(0.4,0,0,0.4,4,0)"
         d="M 0,0 5,-5 -12.5,0 5,5 0,0 Z"
         id="path3223"
         style="fill-rule:evenodd;stroke:#000000;stroke-width:1pt;marker-start:none"
         inkscape:connector-curvature="0" />
    </marker>
  </defs>
  <metadata
     id="metadata59369">
    <rdf:RDF>
      <cc:Work
         rdf:about="">
        <dc:format>image/svg+xml</dc:format>
        <dc:type
           rdf:resource="http://purl.org/dc/dcmitype/StillImage" />
        <dc:title></dc:title>
      </cc:Work>
    </rdf:RDF>
  </metadata>
  <g
     transform="translate(-210.91185,-414.83505)"
     id="layer1"
     inkscape:groupmode="layer"
     inkscape:label="Layer 1">
    <g
       transform="matrix(0.05895741,0,0,0.05895741,163.3249,-42.089439)"
       id="g23675">
      <path
         id="path5896"
         d="m 5277.0938,8424.1875 -2539,3015.0935 40.4687,34.063 2539,-3015.0628 -40.4687,-34.0937 z"
         style="fill:#ff0000;fill-opacity:1;stroke:none;stroke-width:52.8960762;stroke-opacity:1"
         inkscape:connector-curvature="0" />
      <path
         id="path22778"
         d="m 5161.0397,8603.0817 12.7771,149.0661 157.5842,-351.3701 -319.4274,215.0811 149.0661,-12.7771 z"
         style="fill:#ff0000;fill-opacity:1;fill-rule:evenodd;stroke:#ff0000;stroke-width:21.15843048pt;stroke-opacity:1;marker-start:none"
         inkscape:connector-curvature="0" />
    </g>
    <path
       id="path5329"
       d="m 627.96674,633.57712 -302.23038,0 0,-218.74207"
       style="fill:none;fill-opacity:0.75;fill-rule:evenodd;stroke:#000000;stroke-width:0.95105249px;stroke-linecap:butt;stroke-linejoin:miter;stroke-opacity:1"
       inkscape:connector-curvature="0"
       sodipodi:nodetypes="ccc" />
    <path
       id="path5331"
       d="m 325.73636,571.75872 0,61.8184 -38.04212,23.77631"
       style="fill:none;fill-opacity:0.75;fill-rule:evenodd;stroke:#000000;stroke-width:2.85315776;stroke-linecap:butt;stroke-linejoin:miter;stroke-miterlimit:4;stroke-dasharray:none;stroke-opacity:1;marker-start:url(#Arrow1Mstart);marker-end:url(#Arrow1Mend)"
       inkscape:connector-curvature="0" />
    <path
       id="path5333"
       d="m 325.73636,633.57712 66.57369,0"
       style="fill:none;fill-opacity:0.75;fill-rule:evenodd;stroke:#000000;stroke-width:2.85315776;stroke-linecap:butt;stroke-linejoin:miter;stroke-miterlimit:4;stroke-dasharray:none;stroke-opacity:1;marker-end:url(#Arrow1Mend)"
       inkscape:connector-curvature="0" />
    <path
       id="path4125"
       d="M 325.73636,633.57712 225.87582,695.3955"
       style="fill:none;fill-opacity:0.75;fill-rule:evenodd;stroke:#000000;stroke-width:0.95105249px;stroke-linecap:butt;stroke-linejoin:miter;stroke-opacity:1"
       inkscape:connector-curvature="0" />
    <g
       transform="matrix(0.14281,0,0,0.14281,233.76549,656.0174)"
       id="g4211">
      <path
         d="m 528.4546,-694.4635 c 2.49794,0 5.93712,0 5.93712,-3.62019 0,-3.62021 -3.43918,-3.62021 -5.93712,-3.62021 l -98.14339,0 c -2.5344,0 -5.97344,0 -5.97344,3.62021 0,3.62019 3.43904,3.62019 5.97344,3.62019 l 98.14339,0 z"
         id="path4213"
         style="fill:#000000;fill-rule:evenodd;stroke:none"
         inkscape:connector-curvature="0" />
      <path
         d="m 563.89597,-694.4635 c -13.53918,9.95562 -19.47594,24.97219 -19.47594,26.42751 0,1.62909 1.41152,2.16487 2.67858,2.16487 2.17212,0 2.53415,-1.0752 2.89616,-1.79562 2.71515,-6.11088 8.4709,-19.24495 26.49985,-27.70182 2.17211,-1.07518 2.53413,-1.25979 2.53413,-2.51961 0,-1.25625 -1.08642,-1.79562 -1.26706,-1.79562 -9.73833,-4.49628 -20.20107,-11.14297 -27.5859,-27.70177 -0.68784,-1.61454 -1.04987,-2.5196 -3.04061,-2.5196 -1.26744,0 -2.71515,0.53936 -2.71515,2.15037 0,1.42995 5.93676,16.25102 19.47594,26.0763 l -138.65316,0 c -2.71512,0 -5.93715,0 -5.93715,3.62021 0,3.62019 3.22203,3.62019 5.93715,3.62019 l 138.65316,-0.0254 z"
         id="path4215"
         style="fill:#000000;fill-rule:evenodd;stroke:none"
         inkscape:connector-curvature="0" />
      <path
         d="m 450.94615,-634.73017 c 5.21348,0 18.57164,-0.34031 27.58593,-3.97499 12.59829,-5.41581 13.53954,-16.09177 13.53954,-18.6259 0,-7.94634 -6.87837,-15.38585 -19.33185,-15.38585 -20.01976,0 -47.27995,17.43849 -47.27995,48.90162 0,18.32906 10.64359,32.53833 28.31019,32.53833 25.73953,0 40.90779,-18.96258 40.90779,-21.11298 0,-1.06072 -1.0857,-2.31693 -2.17176,-2.31693 -0.86885,0 -1.23086,0.35117 -2.31692,1.78113 -14.22738,17.67743 -33.84885,17.67743 -36.02097,17.67743 -14.04636,0 -15.63903,-15.06002 -15.63903,-20.80166 0,-2.15038 0.18077,-7.70739 2.8959,-18.65487 l 9.52113,-0.0254 z m -8.57983,-3.98946 c 7.05919,-27.33611 25.73959,-30.03678 30.48205,-30.03678 8.50746,0 13.39473,5.22033 13.39473,11.32759 0,18.6947 -28.99777,18.6947 -36.45523,18.6947 l -7.42155,0.015 z"
         id="path4217"
         style="fill:#000000;fill-rule:evenodd;stroke:none"
         inkscape:connector-curvature="0" />
      <path
         d="m 535.58638,-607.94796 c 9.84695,0 16.90632,6.80235 16.90632,20.28035 0,15.5958 -9.08668,20.26224 -16.39948,20.26224 -5.06828,0 -16.18229,-1.35758 -21.46778,-8.68124 5.90093,-0.24255 7.3128,-4.44198 7.3128,-7.11369 0,-4.05823 -3.04096,-6.98697 -6.95041,-6.98697 -3.54815,0 -7.05975,2.13591 -7.05975,7.28384 0,11.80908 13.06891,19.48752 28.3465,19.48752 17.5214,0 29.61285,-11.75117 29.61285,-24.40737 0,-9.85781 -8.03683,-19.73007 -21.86598,-22.64072 13.17752,-4.79676 17.95617,-14.28529 17.95617,-22.00356 0,-9.98449 -11.40361,-17.45296 -25.37758,-17.45296 -13.93775,0 -24.61734,6.88923 -24.61734,17.11267 0,4.34061 2.75136,6.75891 6.55257,6.75891 3.946,0 6.48015,-2.89978 6.48015,-6.44758 0,-3.66363 -2.60655,-6.32085 -6.58877,-6.57789 4.38044,-5.78145 13.10511,-7.22592 17.77517,-7.22592 5.68371,0 13.64851,2.78755 13.64851,13.8183 0,5.31444 -1.77462,11.14296 -5.06863,15.08898 -4.12703,4.80762 -7.67483,5.06103 -14.01017,5.44477 -3.14958,0.23894 -3.40299,0.23894 -4.01806,0.36564 -0.25377,0 -1.26743,0.25341 -1.26743,1.74132 0,1.8644 1.12226,1.8644 3.29438,1.8644 l 6.80596,0.0289 z"
         id="path4219"
         style="fill:#000000;fill-rule:evenodd;stroke:none"
         inkscape:connector-curvature="0" />
      <path
         d="m 1241.8355,-1052.3032 c -13.5391,9.9556 -19.4759,24.9722 -19.4759,26.4275 0,1.6291 1.4115,2.1648 2.6786,2.1648 2.1721,0 2.5341,-1.0752 2.8962,-1.7956 2.7151,-6.1109 8.4708,-19.2449 26.4998,-27.7018 2.1721,-1.0752 2.5341,-1.2598 2.5341,-2.5196 0,-1.2563 -1.0864,-1.7956 -1.267,-1.7956 -9.7384,-4.4963 -20.2011,-11.143 -27.5859,-27.7018 -0.6879,-1.6146 -1.0499,-2.5196 -3.0406,-2.5196 -1.2675,0 -2.7152,0.5394 -2.7152,2.1504 0,1.4299 5.9368,16.251 19.4759,26.0763 l -138.6531,0 c -2.7151,0 -5.9372,0 -5.9372,3.6202 0,3.6202 3.2221,3.6202 5.9372,3.6202 l 138.6531,-0.025 z"
         id="path4215-3"
         style="fill:#ff0000;fill-rule:evenodd;stroke:none"
         inkscape:connector-curvature="0" />
    </g>
    <g
       transform="matrix(0.52497926,0,0,0.52497926,392.73711,605.64018)"
       id="g4341">
      <path
         d="m 30.15,9.78998 c 0.69,0 1.64,0 1.64,-1 0,-1 -0.95,-1 -1.64,-1 l -27.10996,0 c -0.70007,0 -1.65003,0 -1.65003,1 0,1 0.94996,1 1.65003,1 l 27.10996,0 z"
         id="path4343"
         style="fill:#000000;fill-rule:evenodd;stroke:none"
         inkscape:connector-curvature="0" />
      <path
         d="M 39.9399,9.78998 C 36.2,12.54 34.5601,16.688 34.5601,17.09 c 0,0.45 0.3899,0.598 0.7399,0.598 0.6,0 0.7,-0.297 0.8,-0.496 0.75,-1.688 2.3399,-5.316 7.32,-7.65202 0.6,-0.297 0.7,-0.34799 0.7,-0.69599 0,-0.34701 -0.3001,-0.496 -0.35,-0.496 -2.69,-1.242 -5.5801,-3.078 -7.62,-7.652006 C 35.96,0.25 35.86,0 35.3101,0 c -0.3501,0 -0.75,0.148987 -0.75,0.593994 0,0.394989 1.6399,4.488986 5.3798,7.203006 l -38.29989,0 C 0.890015,7.797 0,7.797 0,8.797 c 0,1 0.890015,1 1.64001,1 L 39.9399,9.78998 Z"
         id="path4345"
         style="fill:#000000;fill-rule:evenodd;stroke:none"
         inkscape:connector-curvature="0" />
      <path
         d="m 8.73999,26.29 c 1.44011,0 5.13001,-0.094 7.62001,-1.098 3.48,-1.496 3.74,-4.445 3.74,-5.145 0,-2.195 -1.9,-4.25 -5.34,-4.25 -5.53002,0 -13.06005,4.817 -13.06005,13.508 0,5.063 2.94006,8.988 7.82007,8.988 7.10998,0 11.29988,-5.238 11.29988,-5.832 0,-0.293 -0.2999,-0.64 -0.5999,-0.64 -0.24,0 -0.34,0.097 -0.64,0.492 -3.93,4.883 -9.35,4.883 -9.95,4.883 -3.88,0 -4.31994,-4.16 -4.31994,-5.746 0,-0.594 0.04993,-2.129 0.79993,-5.153 l 2.63,-0.007 z M 6.37,25.188 c 1.94995,-7.551 7.11,-8.297 8.42,-8.297 2.35,0 3.7,1.442 3.7,3.129 0,5.164 -8.01,5.164 -10.06996,5.164 L 6.37,25.188 Z"
         id="path4347"
         style="fill:#000000;fill-rule:evenodd;stroke:none"
         inkscape:connector-curvature="0" />
      <path
         d="m 40.2,38.946 -1.18,0 c -0.11,0.758 -0.4501,2.793 -0.91,3.137 -0.27,0.203 -2.96,0.203 -3.44,0.203 l -6.41,0 c 3.65,-3.243 4.87,-4.219 6.97,-5.856 2.57,-2.054 4.98,-4.219 4.98,-7.531 0,-4.219 -3.69,-6.805 -8.16,-6.805 -4.32,0 -7.2399,3.035 -7.2399,6.242 0,1.778 1.5,1.954 1.8499,1.954 0.83,0 1.84,-0.59 1.84,-1.848 0,-0.629 -0.24,-1.848 -2.0601,-1.848 1.0801,-2.441 3.4401,-3.195 5.0801,-3.195 3.47,0 5.28,2.719 5.28,5.543 0,3.031 -2.16,5.437 -3.27,6.691 l -8.38,8.297 c -0.35,0.313 -0.35,0.383 -0.35,1.36 l 14.35,0 1.05,-6.344 z"
         id="path4349"
         style="fill:#000000;fill-rule:evenodd;stroke:none"
         inkscape:connector-curvature="0" />
    </g>
    <g
       transform="matrix(0.52507339,0,0,0.52507339,261.16953,630.62782)"
       id="g4497">
      <path
         d="m 30.15,9.78998 c 0.69,0 1.64,0 1.64,-1 0,-1 -0.95,-1 -1.64,-1 l -27.10996,0 c -0.70007,0 -1.65003,0 -1.65003,1 0,1 0.94996,1 1.65003,1 l 27.10996,0 z"
         id="path4499"
         style="fill:#000000;fill-rule:evenodd;stroke:none"
         inkscape:connector-curvature="0" />
      <path
         d="M 39.9399,9.78998 C 36.2,12.54 34.5601,16.688 34.5601,17.09 c 0,0.45 0.3899,0.598 0.7399,0.598 0.6,0 0.7,-0.297 0.8,-0.496 0.75,-1.688 2.3399,-5.316 7.32,-7.65202 0.6,-0.297 0.7,-0.34799 0.7,-0.69599 0,-0.34701 -0.3001,-0.496 -0.35,-0.496 -2.69,-1.242 -5.5801,-3.078 -7.62,-7.652006 C 35.96,0.25 35.86,0 35.3101,0 c -0.3501,0 -0.75,0.148987 -0.75,0.593994 0,0.394989 1.6399,4.488986 5.3798,7.203006 l -38.29989,0 C 0.890015,7.797 0,7.797 0,8.797 c 0,1 0.890015,1 1.64001,1 L 39.9399,9.78998 Z"
         id="path4501"
         style="fill:#000000;fill-rule:evenodd;stroke:none"
         inkscape:connector-curvature="0" />
      <path
         d="m 8.73999,26.29 c 1.44011,0 5.13001,-0.094 7.62001,-1.098 3.48,-1.496 3.74,-4.445 3.74,-5.145 0,-2.195 -1.9,-4.25 -5.34,-4.25 -5.53002,0 -13.06005,4.817 -13.06005,13.508 0,5.063 2.94006,8.988 7.82007,8.988 7.10998,0 11.29988,-5.238 11.29988,-5.832 0,-0.293 -0.2999,-0.64 -0.5999,-0.64 -0.24,0 -0.34,0.097 -0.64,0.492 -3.93,4.883 -9.35,4.883 -9.95,4.883 -3.88,0 -4.31994,-4.16 -4.31994,-5.746 0,-0.594 0.04993,-2.129 0.79993,-5.153 l 2.63,-0.007 z M 6.37,25.188 c 1.94995,-7.551 7.11,-8.297 8.42,-8.297 2.35,0 3.7,1.442 3.7,3.129 0,5.164 -8.01,5.164 -10.06996,5.164 L 6.37,25.188 Z"
         id="path4503"
         style="fill:#000000;fill-rule:evenodd;stroke:none"
         inkscape:connector-curvature="0" />
      <path
         d="m 34.3,23.071 c 0,-0.938 -0.07,-0.977 -1.05,-0.977 -2.23,2.262 -5.42,2.297 -6.85,2.297 l 0,1.297 c 0.85,0 3.1699,0 5.1,-1.043 l 0,17.742 c 0,1.145 0,1.598 -3.52,1.598 l -1.33,0 0,1.297 c 0.62,-0.032 4.9101,-0.137 6.2,-0.137 1.0801,0 5.4699,0.102 6.24,0.137 l 0,-1.297 -1.32,0 c -3.47,0 -3.47,-0.449 -3.47,-1.602 l 0,-19.312 z"
         id="path4505"
         style="fill:#000000;fill-rule:evenodd;stroke:none"
         inkscape:connector-curvature="0" />
    </g>
    <g
       transform="matrix(0.64495621,0,0,0.64495621,210.91185,665.14915)"
       id="g4843">
      <path
         d="m 15.24,6.96002 c 0.29,-1.289 1.4401,-5.85501 4.93,-5.85501 0.24,0 1.4401,0 2.49,0.59799 -1.38,0.24601 -2.36,1.48001 -2.36,2.668 0,0.789 0.5401,1.72602 1.8901,1.72602 1.0999,0 2.6999,-0.883 2.6999,-2.85102 C 24.89,0.69101 21.9801,0 20.3,0 17.39,0 15.64,2.625 15.04,3.76501 13.79,0.496002 11.0901,0 9.64001,0 4.44006,0 1.59009,6.41 1.59009,7.65201 c 0,0.496 0.5,0.496 0.59997,0.496 0.40003,0 0.54993,-0.09799 0.65003,-0.543 1.68994,-5.26199 4.97998,-6.504 6.66992,-6.504 0.94009,0 2.68009,0.44501 2.68009,3.32401 0,1.535 -0.84,4.86398 -2.68009,11.80898 -0.79993,3.074 -2.53992,5.16 -4.72998,5.16 -0.29993,0 -1.43994,0 -2.48999,-0.598 C 3.51001,20.55 4.6001,19.511 4.6001,18.128 4.6001,16.796 3.5,16.402 2.75,16.402 1.25,16.402 0,17.679 0,19.253 c 0,2.262 2.5,3.243 4.69006,3.243 3.29004,0 5.08997,-3.442 5.23999,-3.739 0.59995,1.821 2.39005,3.739 5.39005,3.739 5.13,0 7.9799,-6.387 7.9799,-7.625 0,-0.493 -0.4399,-0.493 -0.5899,-0.493 -0.4501,0 -0.5501,0.196 -0.65,0.543 -1.6401,5.289 -5.0301,6.477 -6.62,6.477 -1.9401,0 -2.74,-1.586 -2.74,-3.273 0,-1.09 0.2999,-2.184 0.8399,-4.368 l 1.7,-6.79698 z"
         id="path4845"
         style="fill:#000000;fill-rule:evenodd;stroke:none"
         inkscape:connector-curvature="0" />
      <path
         d="M 38.7001,7.28101 C 38.7001,6.34302 38.63,6.30402 37.65,6.30402 35.42,8.56601 32.2301,8.60101 30.8,8.60101 l 0,1.297 c 0.85,0 3.1701,0 5.1,-1.043 l 0,17.74199 c 0,1.145 0,1.598 -3.51,1.598 l -1.34,0 0,1.297 c 0.6301,-0.032 4.9101,-0.137 6.2,-0.137 1.0801,0 5.4801,0.102 6.24,0.137 l 0,-1.297 -1.3099,0 c -3.47,0 -3.47,-0.449 -3.47,-1.602 l -0.01,-19.31199 z"
         id="path4847"
         style="fill:#000000;fill-rule:evenodd;stroke:none"
         inkscape:connector-curvature="0" />
    </g>
    <g
       transform="matrix(0.64478245,0,0,0.64478245,607.35134,608.4829)"
       id="g5039">
      <path
         d="m 15.24,6.96002 c 0.29,-1.289 1.4401,-5.85501 4.93,-5.85501 0.24,0 1.4401,0 2.49,0.59799 -1.38,0.24601 -2.36,1.48001 -2.36,2.668 0,0.789 0.5401,1.72602 1.8901,1.72602 1.0999,0 2.6999,-0.883 2.6999,-2.85102 C 24.89,0.69101 21.9801,0 20.3,0 17.39,0 15.64,2.625 15.04,3.76501 13.79,0.496002 11.0901,0 9.64001,0 4.44006,0 1.59009,6.41 1.59009,7.65201 c 0,0.496 0.5,0.496 0.59997,0.496 0.40003,0 0.54993,-0.09799 0.65003,-0.543 1.68994,-5.26199 4.97998,-6.504 6.66992,-6.504 0.94009,0 2.68009,0.44501 2.68009,3.32401 0,1.535 -0.84,4.86398 -2.68009,11.80898 -0.79993,3.074 -2.53992,5.16 -4.72998,5.16 -0.29993,0 -1.43994,0 -2.48999,-0.598 C 3.51001,20.55 4.6001,19.511 4.6001,18.128 4.6001,16.796 3.5,16.402 2.75,16.402 1.25,16.402 0,17.679 0,19.253 c 0,2.262 2.5,3.243 4.69006,3.243 3.29004,0 5.08997,-3.442 5.23999,-3.739 0.59995,1.821 2.39005,3.739 5.39005,3.739 5.13,0 7.9799,-6.387 7.9799,-7.625 0,-0.493 -0.4399,-0.493 -0.5899,-0.493 -0.4501,0 -0.5501,0.196 -0.65,0.543 -1.6401,5.289 -5.0301,6.477 -6.62,6.477 -1.9401,0 -2.74,-1.586 -2.74,-3.273 0,-1.09 0.2999,-2.184 0.8399,-4.368 l 1.7,-6.79698 z"
         id="path5041"
         style="fill:#000000;fill-rule:evenodd;stroke:none"
         inkscape:connector-curvature="0" />
      <path
         d="m 44.6001,23.156 -1.1901,0 c -0.0999,0.758 -0.4499,2.793 -0.9,3.137 -0.2799,0.203 -2.96,0.203 -3.4399,0.203 l -6.4101,0 c 3.6501,-3.243 4.87,-4.219 6.96,-5.856 2.5801,-2.054 4.9801,-4.219 4.9801,-7.531 0,-4.21899 -3.6901,-6.80498 -8.15,-6.80498 -4.3201,0 -7.24,3.035 -7.24,6.24198 0,1.778 1.5,1.954 1.8399,1.954 0.84,0 1.85,-0.59 1.85,-1.848 0,-0.629 -0.24,-1.848 -2.0599,-1.848 C 31.91,8.36301 34.28,7.60901 35.91,7.60901 c 3.48,0 5.2901,2.71899 5.2901,5.54299 0,3.031 -2.1601,5.437 -3.27,6.691 L 29.55,28.14 c -0.3499,0.313 -0.3499,0.383 -0.3499,1.36 l 14.3499,0 1.0501,-6.344 z"
         id="path5043"
         style="fill:#000000;fill-rule:evenodd;stroke:none"
         inkscape:connector-curvature="0" />
    </g>
    <g
       transform="matrix(0.62985637,0,0,0.62985637,292.46252,447.48705)"
       id="g5255">
      <path
         d="m 15.24,6.96002 c 0.29,-1.289 1.4401,-5.85501 4.93,-5.85501 0.24,0 1.4401,0 2.49,0.59799 -1.38,0.24601 -2.36,1.48001 -2.36,2.668 0,0.789 0.5401,1.72602 1.8901,1.72602 1.0999,0 2.6999,-0.883 2.6999,-2.85102 C 24.89,0.69101 21.9801,0 20.3,0 17.39,0 15.64,2.625 15.04,3.76501 13.79,0.496002 11.0901,0 9.64001,0 4.44006,0 1.59009,6.41 1.59009,7.65201 c 0,0.496 0.5,0.496 0.59997,0.496 0.40003,0 0.54993,-0.09799 0.65003,-0.543 1.68994,-5.26199 4.97998,-6.504 6.66992,-6.504 0.94009,0 2.68009,0.44501 2.68009,3.32401 0,1.535 -0.84,4.86398 -2.68009,11.80898 -0.79993,3.074 -2.53992,5.16 -4.72998,5.16 -0.29993,0 -1.43994,0 -2.48999,-0.598 C 3.51001,20.55 4.6001,19.511 4.6001,18.128 4.6001,16.796 3.5,16.402 2.75,16.402 1.25,16.402 0,17.679 0,19.253 c 0,2.262 2.5,3.243 4.69006,3.243 3.29004,0 5.08997,-3.442 5.23999,-3.739 0.59995,1.821 2.39005,3.739 5.39005,3.739 5.13,0 7.9799,-6.387 7.9799,-7.625 0,-0.493 -0.4399,-0.493 -0.5899,-0.493 -0.4501,0 -0.5501,0.196 -0.65,0.543 -1.6401,5.289 -5.0301,6.477 -6.62,6.477 -1.9401,0 -2.74,-1.586 -2.74,-3.273 0,-1.09 0.2999,-2.184 0.8399,-4.368 l 1.7,-6.79698 z"
         id="path5257"
         style="fill:#000000;fill-rule:evenodd;stroke:none"
         inkscape:connector-curvature="0" />
      <path
         d="m 36.52,17.898 c 2.72,0 4.6701,1.879 4.6701,5.602 0,4.308 -2.51,5.597 -4.5301,5.597 -1.4,0 -4.4699,-0.375 -5.9299,-2.398 1.6399,-0.067 2.0199,-1.227 2.0199,-1.965 0,-1.121 -0.84,-1.93 -1.9199,-1.93 -0.98,0 -1.9501,0.59 -1.9501,2.012 0,3.262 3.62,5.383 7.8301,5.383 4.8399,0 8.1799,-3.246 8.1799,-6.742 0,-2.723 -2.22,-5.45 -6.0399,-6.254 3.6499,-1.325 4.97,-3.946 4.97,-6.078 0,-2.758 -3.1601,-4.82098 -7.0201,-4.82098 -3.8499,0 -6.8,1.90298 -6.8,4.72698 0,1.199 0.76,1.867 1.8201,1.867 1.0799,0 1.78,-0.801 1.78,-1.781 0,-1.012 -0.7201,-1.746 -1.8201,-1.81698 1.22,-1.59702 3.63,-1.996 4.9101,-1.996 1.5699,0 3.77,0.76999 3.77,3.81698 0,1.468 -0.48,3.078 -1.39,4.168 -1.1501,1.328 -2.13,1.398 -3.88,1.504 -0.87,0.066 -0.9401,0.066 -1.11,0.101 -0.0701,0 -0.35,0.07 -0.35,0.481 0,0.515 0.3199,0.515 0.9099,0.515 l 1.88,0.008 z"
         id="path5259"
         style="fill:#000000;fill-rule:evenodd;stroke:none"
         inkscape:connector-curvature="0" />
    </g>
    <path
       style="fill:none;fill-rule:evenodd;stroke:#ff0000;stroke-width:1.81009865;stroke-linecap:butt;stroke-linejoin:miter;stroke-miterlimit:4;stroke-dasharray:1.81009854, 1.81009854;stroke-dashoffset:0;stroke-opacity:1"
       d="m 479.42385,451.3194 0,236.7762"
       id="path6195"
       inkscape:path-effect="#path-effect6197"
       inkscape:original-d="m 479.42385,451.3194 0,236.7762"
       inkscape:connector-curvature="0" />
    <path
       style="fill:#ffffff;fill-rule:evenodd;stroke:#ff0000;stroke-width:1.81009865;stroke-linecap:butt;stroke-linejoin:miter;stroke-miterlimit:4;stroke-dasharray:1.81009854, 1.81009854;stroke-dashoffset:0;stroke-opacity:1"
       d="m 479.42385,689.12283 -240.37149,0"
       id="path7011"
       inkscape:path-effect="#path-effect7013"
       inkscape:original-d="m 479.42385,689.12283 -240.37149,0"
       inkscape:connector-curvature="0" />
    <path
       style="fill:#ffffff;fill-rule:evenodd;stroke:#ff0000;stroke-width:1.81009865;stroke-linecap:butt;stroke-linejoin:miter;stroke-miterlimit:4;stroke-dasharray:1.81009854, 1.81009854;stroke-dashoffset:0;stroke-opacity:1"
       d="M 566.32706,634.6797 479.0126,689.12283"
       id="path7027"
       inkscape:path-effect="#path-effect7029"
       inkscape:original-d="M 566.32706,634.6797 479.0126,689.12283"
       inkscape:connector-curvature="0" />
    <g
       id="g7077"
       transform="matrix(3.6201971,0,0,3.6201971,346.70805,389.00418)"
       style="fill:#ff0000">
      <g
         id="content"
         transform="matrix(0.18642144,0,0,-0.18642144,-32.623753,153.80003)"
         xml:space="preserve"
         stroke-miterlimit="10.433"
         font-style="normal"
         font-variant="normal"
         font-weight="normal"
         font-stretch="normal"
         font-size-adjust="none"
         letter-spacing="normal"
         word-spacing="normal"
         style="font-style:normal;font-variant:normal;font-weight:normal;font-stretch:normal;letter-spacing:normal;word-spacing:normal;text-anchor:start;fill:#ff0000;fill-opacity:1;fill-rule:evenodd;stroke:#000000;stroke-linecap:butt;stroke-linejoin:miter;stroke-miterlimit:10.43299961;stroke-dasharray:none;stroke-dashoffset:0;stroke-opacity:1"><path
           d="m 479.31,424.53 0,0.13 0,0.12 -0.01,0.12 0,0.11 -0.01,0.12 -0.01,0.11 -0.01,0.11 -0.01,0.1 -0.04,0.21 -0.03,0.19 -0.05,0.18 -0.04,0.18 -0.06,0.16 -0.06,0.16 -0.06,0.15 -0.06,0.13 -0.08,0.13 -0.07,0.12 -0.08,0.12 -0.08,0.1 -0.08,0.1 -0.09,0.09 -0.08,0.08 -0.09,0.07 -0.09,0.07 -0.09,0.06 -0.1,0.05 -0.09,0.05 -0.09,0.04 -0.09,0.03 -0.1,0.03 -0.09,0.03 -0.09,0.01 -0.09,0.02 -0.08,0 -0.09,0.01 c -1.24,0 -2.44,-1.3 -2.44,-2.4 0,-0.64 0.25,-0.94 0.8,-1.49 1.04,-0.99 1.69,-2.29 1.69,-4.08 0,-2.09 -3.04,-13.5 -8.87,-13.5 -2.54,0 -3.68,1.74 -3.68,4.33 0,2.79 1.34,6.43 2.89,10.56 0.35,0.85 0.6,1.54 0.6,2.49 0,2.25 -1.6,4.09 -4.09,4.09 -4.68,0 -6.57,-7.23 -6.57,-7.67 0,-0.5 0.49,-0.5 0.59,-0.5 0.5,0 0.55,0.1 0.8,0.9 1.45,5.03 3.59,6.17 5.03,6.17 0.4,0 1.25,0 1.25,-1.59 0,-1.25 -0.5,-2.59 -0.85,-3.49 -2.19,-5.78 -2.84,-8.07 -2.84,-10.21 0,-5.38 4.38,-6.18 6.68,-6.18 8.36,0 11.2,16.49 11.2,19.08 z"
           id="path7080"
           inkscape:connector-curvature="0"
           style="fill:#ff0000;stroke-width:0" /><path
           d="m 491.68,421.18 0,0.04 0,0.04 0,0.04 0,0.04 0,0.04 0,0.04 0,0.03 0,0.04 -0.01,0.03 0,0.03 0,0.04 0,0.03 -0.01,0.02 0,0.03 0,0.03 -0.01,0.03 0,0.02 0,0.02 -0.02,0.05 -0.01,0.04 -0.01,0.04 -0.02,0.03 -0.02,0.03 -0.02,0.03 -0.03,0.03 -0.02,0.02 -0.03,0.02 -0.04,0.02 -0.03,0.01 -0.04,0.01 -0.05,0.02 -0.05,0 -0.02,0.01 -0.03,0 -0.03,0.01 -0.02,0 -0.03,0 -0.03,0 -0.04,0 -0.03,0.01 -0.03,0 -0.04,0 -0.03,0 -0.04,0 -0.04,0 -0.04,0 -0.04,0 -0.04,0 -0.05,0 -0.04,0 c -2.24,-2.19 -5.41,-2.23 -6.84,-2.23 l 0,-1.25 c 0.84,0 3.14,0 5.06,0.97 l 0,-17.78 c 0,-1.15 0,-1.61 -3.49,-1.61 l -1.33,0 0,-1.25 12.45,0 0,1.25 -1.32,0 c -3.49,0 -3.49,0.46 -3.49,1.61 z"
           id="path7082"
           inkscape:connector-curvature="0"
           style="fill:#ff0000;stroke-width:0" /></g>    </g>
    <g
       id="g7182"
       transform="matrix(3.6201971,0,0,3.6201971,161.80687,398.24926)"
       style="fill:#ff0000">
      <g
         word-spacing="normal"
         letter-spacing="normal"
         font-size-adjust="none"
         font-stretch="normal"
         font-weight="normal"
         font-variant="normal"
         font-style="normal"
         stroke-miterlimit="10.433"
         xml:space="preserve"
         transform="matrix(0.18642144,0,0,-0.18642144,-32.623753,153.80003)"
         id="g7184"
         style="font-style:normal;font-variant:normal;font-weight:normal;font-stretch:normal;letter-spacing:normal;word-spacing:normal;text-anchor:start;fill:#ff0000;fill-opacity:1;fill-rule:evenodd;stroke:#000000;stroke-linecap:butt;stroke-linejoin:miter;stroke-miterlimit:10.43299961;stroke-dasharray:none;stroke-dashoffset:0;stroke-opacity:1"><path
           id="path7186"
           d="m 479.31,424.53 0,0.13 0,0.12 -0.01,0.12 0,0.11 -0.01,0.12 -0.01,0.11 -0.01,0.11 -0.01,0.1 -0.04,0.21 -0.03,0.19 -0.05,0.18 -0.04,0.18 -0.06,0.16 -0.06,0.16 -0.06,0.15 -0.06,0.13 -0.08,0.13 -0.07,0.12 -0.08,0.12 -0.08,0.1 -0.08,0.1 -0.09,0.09 -0.08,0.08 -0.09,0.07 -0.09,0.07 -0.09,0.06 -0.1,0.05 -0.09,0.05 -0.09,0.04 -0.09,0.03 -0.1,0.03 -0.09,0.03 -0.09,0.01 -0.09,0.02 -0.08,0 -0.09,0.01 c -1.24,0 -2.44,-1.3 -2.44,-2.4 0,-0.64 0.25,-0.94 0.8,-1.49 1.04,-0.99 1.69,-2.29 1.69,-4.08 0,-2.09 -3.04,-13.5 -8.87,-13.5 -2.54,0 -3.68,1.74 -3.68,4.33 0,2.79 1.34,6.43 2.89,10.56 0.35,0.85 0.6,1.54 0.6,2.49 0,2.25 -1.6,4.09 -4.09,4.09 -4.68,0 -6.57,-7.23 -6.57,-7.67 0,-0.5 0.49,-0.5 0.59,-0.5 0.5,0 0.55,0.1 0.8,0.9 1.45,5.03 3.59,6.17 5.03,6.17 0.4,0 1.25,0 1.25,-1.59 0,-1.25 -0.5,-2.59 -0.85,-3.49 -2.19,-5.78 -2.84,-8.07 -2.84,-10.21 0,-5.38 4.38,-6.18 6.68,-6.18 8.36,0 11.2,16.49 11.2,19.08 z"
           inkscape:connector-curvature="0"
           style="fill:#ff0000;stroke-width:0" /><path
           id="path7188"
           d="m 497.61,405.35 -1.19,0 c -0.1,-0.77 -0.45,-2.83 -0.9,-3.18 -0.28,-0.21 -2.97,-0.21 -3.45,-0.21 l -6.42,0 c 3.66,3.25 4.88,4.22 6.97,5.86 2.58,2.06 4.99,4.22 4.99,7.54 0,4.21 -3.7,6.79 -8.16,6.79 -4.33,0 -7.25,-3.03 -7.25,-6.24 0,-1.78 1.5,-1.95 1.84,-1.95 0.84,0 1.85,0.59 1.85,1.85 0,0.62 -0.24,1.85 -2.05,1.85 1.08,2.47 3.45,3.24 5.09,3.24 3.48,0 5.3,-2.72 5.3,-5.54 0,-3.04 -2.16,-5.45 -3.28,-6.7 l -8.4,-8.3 c -0.35,-0.31 -0.35,-0.38 -0.35,-1.36 l 14.36,0 z"
           inkscape:connector-curvature="0"
           style="fill:#ff0000;stroke-width:0" /></g>    </g>
    <g
       id="g7296"
       transform="matrix(3.6201971,0,0,3.6201971,295.34658,289.363)"
       style="fill:#ff0000">
      <g
         id="g7298"
         transform="matrix(0.18642144,0,0,-0.18642144,-32.623753,153.80003)"
         xml:space="preserve"
         stroke-miterlimit="10.433"
         font-style="normal"
         font-variant="normal"
         font-weight="normal"
         font-stretch="normal"
         font-size-adjust="none"
         letter-spacing="normal"
         word-spacing="normal"
         style="font-style:normal;font-variant:normal;font-weight:normal;font-stretch:normal;letter-spacing:normal;word-spacing:normal;text-anchor:start;fill:#ff0000;fill-opacity:1;fill-rule:evenodd;stroke:#000000;stroke-linecap:butt;stroke-linejoin:miter;stroke-miterlimit:10.43299961;stroke-dasharray:none;stroke-dashoffset:0;stroke-opacity:1"><path
           d="m 479.31,424.53 0,0.13 0,0.12 -0.01,0.12 0,0.11 -0.01,0.12 -0.01,0.11 -0.01,0.11 -0.01,0.1 -0.04,0.21 -0.03,0.19 -0.05,0.18 -0.04,0.18 -0.06,0.16 -0.06,0.16 -0.06,0.15 -0.06,0.13 -0.08,0.13 -0.07,0.12 -0.08,0.12 -0.08,0.1 -0.08,0.1 -0.09,0.09 -0.08,0.08 -0.09,0.07 -0.09,0.07 -0.09,0.06 -0.1,0.05 -0.09,0.05 -0.09,0.04 -0.09,0.03 -0.1,0.03 -0.09,0.03 -0.09,0.01 -0.09,0.02 -0.08,0 -0.09,0.01 c -1.24,0 -2.44,-1.3 -2.44,-2.4 0,-0.64 0.25,-0.94 0.8,-1.49 1.04,-0.99 1.69,-2.29 1.69,-4.08 0,-2.09 -3.04,-13.5 -8.87,-13.5 -2.54,0 -3.68,1.74 -3.68,4.33 0,2.79 1.34,6.43 2.89,10.56 0.35,0.85 0.6,1.54 0.6,2.49 0,2.25 -1.6,4.09 -4.09,4.09 -4.68,0 -6.57,-7.23 -6.57,-7.67 0,-0.5 0.49,-0.5 0.59,-0.5 0.5,0 0.55,0.1 0.8,0.9 1.45,5.03 3.59,6.17 5.03,6.17 0.4,0 1.25,0 1.25,-1.59 0,-1.25 -0.5,-2.59 -0.85,-3.49 -2.19,-5.78 -2.84,-8.07 -2.84,-10.21 0,-5.38 4.38,-6.18 6.68,-6.18 8.36,0 11.2,16.49 11.2,19.08 z"
           id="path7300"
           inkscape:connector-curvature="0"
           style="fill:#ff0000;stroke-width:0" /><path
           d="m 489.52,410.64 0.25,0 0.25,-0.02 0.24,-0.02 0.24,-0.04 0.23,-0.05 0.23,-0.06 0.22,-0.07 0.22,-0.09 0.21,-0.09 0.2,-0.11 0.19,-0.11 0.19,-0.13 0.18,-0.13 0.18,-0.15 0.17,-0.16 0.15,-0.17 0.16,-0.18 0.14,-0.2 0.13,-0.2 0.13,-0.21 0.12,-0.23 0.11,-0.23 0.09,-0.25 0.09,-0.26 0.08,-0.27 0.07,-0.28 0.06,-0.29 0.05,-0.3 0.04,-0.31 0.03,-0.32 0.02,-0.33 0,-0.35 c 0,-4.32 -2.51,-5.61 -4.53,-5.61 -1.39,0 -4.46,0.38 -5.93,2.44 1.64,0.07 2.02,1.22 2.02,1.95 0,1.12 -0.83,1.92 -1.91,1.92 -0.98,0 -1.96,-0.59 -1.96,-2.02 0,-3.28 3.63,-5.41 7.85,-5.41 4.84,0 8.19,3.25 8.19,6.73 0,2.72 -2.23,5.44 -6.06,6.24 3.66,1.33 4.98,3.94 4.98,6.07 0,2.76 -3.17,4.81 -7.04,4.81 -3.87,0 -6.84,-1.88 -6.84,-4.67 0,-1.18 0.77,-1.85 1.82,-1.85 1.08,0 1.77,0.8 1.77,1.78 0,1.01 -0.69,1.75 -1.77,1.81 1.22,1.54 3.62,1.92 4.92,1.92 1.56,0 3.76,-0.76 3.76,-3.8 0,-1.46 -0.49,-3.07 -1.39,-4.15 -1.16,-1.32 -2.13,-1.39 -3.87,-1.5 -0.88,-0.07 -0.95,-0.07 -1.12,-0.1 -0.07,0 -0.35,-0.07 -0.35,-0.46 0,-0.49 0.31,-0.49 0.91,-0.49 z"
           id="path7302"
           inkscape:connector-curvature="0"
           style="fill:#ff0000;stroke-width:0" /></g>    </g>
    <g
       id="g7418"
       transform="matrix(3.6201971,0,0,3.6201971,200.84158,242.11048)"
       style="fill:#ff0000">
      <g
         word-spacing="normal"
         letter-spacing="normal"
         font-size-adjust="none"
         font-stretch="normal"
         font-weight="normal"
         font-variant="normal"
         font-style="normal"
         stroke-miterlimit="10.433"
         xml:space="preserve"
         transform="matrix(0.18642144,0,0,-0.18642144,-32.623753,153.80003)"
         id="g7420"
         style="font-style:normal;font-variant:normal;font-weight:normal;font-stretch:normal;letter-spacing:normal;word-spacing:normal;text-anchor:start;fill:#ff0000;fill-opacity:1;fill-rule:evenodd;stroke:#000000;stroke-linecap:butt;stroke-linejoin:miter;stroke-miterlimit:10.43299961;stroke-dasharray:none;stroke-dashoffset:0;stroke-opacity:1"><path
           id="path7422"
           d="m 479.31,424.53 0,0.13 0,0.12 -0.01,0.12 0,0.11 -0.01,0.12 -0.01,0.11 -0.01,0.11 -0.01,0.1 -0.04,0.21 -0.03,0.19 -0.05,0.18 -0.04,0.18 -0.06,0.16 -0.06,0.16 -0.06,0.15 -0.06,0.13 -0.08,0.13 -0.07,0.12 -0.08,0.12 -0.08,0.1 -0.08,0.1 -0.09,0.09 -0.08,0.08 -0.09,0.07 -0.09,0.07 -0.09,0.06 -0.1,0.05 -0.09,0.05 -0.09,0.04 -0.09,0.03 -0.1,0.03 -0.09,0.03 -0.09,0.01 -0.09,0.02 -0.08,0 -0.09,0.01 c -1.24,0 -2.44,-1.3 -2.44,-2.4 0,-0.64 0.25,-0.94 0.8,-1.49 1.04,-0.99 1.69,-2.29 1.69,-4.08 0,-2.09 -3.04,-13.5 -8.87,-13.5 -2.54,0 -3.68,1.74 -3.68,4.33 0,2.79 1.34,6.43 2.89,10.56 0.35,0.85 0.6,1.54 0.6,2.49 0,2.25 -1.6,4.09 -4.09,4.09 -4.68,0 -6.57,-7.23 -6.57,-7.67 0,-0.5 0.49,-0.5 0.59,-0.5 0.5,0 0.55,0.1 0.8,0.9 1.45,5.03 3.59,6.17 5.03,6.17 0.4,0 1.25,0 1.25,-1.59 0,-1.25 -0.5,-2.59 -0.85,-3.49 -2.19,-5.78 -2.84,-8.07 -2.84,-10.21 0,-5.38 4.38,-6.18 6.68,-6.18 8.36,0 11.2,16.49 11.2,19.08 z"
           inkscape:connector-curvature="0"
           style="fill:#ff0000;stroke-width:0" /></g>    </g>
  </g>
</svg>
